<?xml version="1.0" ?><svg viewBox="0 0 512 512" xmlns="http://www.w3.org/2000/svg"><title/><g data-name="/ OUTLINE" id="_OUTLINE"><rect height="16" width="16" x="48" y="48"/><rect height="16" width="16" x="80" y="48"/><rect height="16" width="16" x="112" y="48"/><rect height="16" width="16" x="448" y="48"/><path d="M472,16H40A24.0275,24.0275,0,0,0,16,40V392a24.0275,24.0275,0,0,0,24,24h8v24a24.0275,24.0275,0,0,0,24,24H216V448H72a8.00917,8.00917,0,0,1-8-8V416H200V400H40a8.00917,8.00917,0,0,1-8-8V96H480V336h16V40A24.0275,24.0275,0,0,0,472,16Zm8,64H32V40a8.00917,8.00917,0,0,1,8-8H472a8.00917,8.00917,0,0,1,8,8Z"/><path d="M360,224h80a24.0275,24.0275,0,0,0,24-24V136a24.0275,24.0275,0,0,0-24-24H360a24.0275,24.0275,0,0,0-24,24v64A24.0275,24.0275,0,0,0,360,224Zm-8-88a8.00917,8.00917,0,0,1,8-8h80a8.00917,8.00917,0,0,1,8,8v64a8.00917,8.00917,0,0,1-8,8H360a8.00917,8.00917,0,0,1-8-8Z"/><path d="M216,224h80a24.0275,24.0275,0,0,0,24-24V136a24.0275,24.0275,0,0,0-24-24H216a24.0275,24.0275,0,0,0-24,24v64A24.0275,24.0275,0,0,0,216,224Zm-8-88a8.00917,8.00917,0,0,1,8-8h80a8.00917,8.00917,0,0,1,8,8v64a8.00917,8.00917,0,0,1-8,8H216a8.00917,8.00917,0,0,1-8-8Z"/><path d="M176,136a24.0275,24.0275,0,0,0-24-24H72a24.0275,24.0275,0,0,0-24,24v64a24.0275,24.0275,0,0,0,24,24h80a24.0275,24.0275,0,0,0,24-24Zm-16,64a8.00917,8.00917,0,0,1-8,8H72a8.00917,8.00917,0,0,1-8-8V136a8.00917,8.00917,0,0,1,8-8h80a8.00917,8.00917,0,0,1,8,8Z"/><rect height="16" width="24" x="80" y="144"/><rect height="16" width="24" x="224" y="144"/><rect height="16" width="24" x="368" y="144"/><path d="M472,352h-8V336H448v16H400V336H384v16h-8a24.0275,24.0275,0,0,0-24,24v96c0,.66309.03418,1.31836.0874,1.96777a88.01352,88.01352,0,1,1,26.11768-147.96972L388.793,314.002A103.81848,103.81848,0,0,0,352,293.0459V264a8.00917,8.00917,0,0,1,8-8h80a8.00917,8.00917,0,0,1,8,8v56h16V264a24.0275,24.0275,0,0,0-24-24H360a24.0275,24.0275,0,0,0-24,24v25.26025A104.18558,104.18558,0,0,0,320,288V264a24.0275,24.0275,0,0,0-24-24H216a24.0275,24.0275,0,0,0-24,24v64a24.0275,24.0275,0,0,0,24,24h8.00464a104.03116,104.03116,0,0,0,134.658,136.56934A23.9275,23.9275,0,0,0,376,496h96a24.0275,24.0275,0,0,0,24-24V376A24.0275,24.0275,0,0,0,472,352ZM216,336a8.00917,8.00917,0,0,1-8-8V264a8.00917,8.00917,0,0,1,8-8h80a8.00917,8.00917,0,0,1,8,8v25.231A104.20277,104.20277,0,0,0,232.39819,336ZM480,472a8.00917,8.00917,0,0,1-8,8H376a8.00917,8.00917,0,0,1-8-8V416H480Zm0-72H368V376a8.00917,8.00917,0,0,1,8-8h8v16h16V368h48v16h16V368h8a8.00917,8.00917,0,0,1,8,8Z"/><rect height="16" width="64" x="80" y="176"/><rect height="16" width="64" x="224" y="176"/><rect height="16" width="64" x="368" y="176"/><path d="M152,240H72a24.0275,24.0275,0,0,0-24,24v64a24.0275,24.0275,0,0,0,24,24h80a24.0275,24.0275,0,0,0,24-24V264A24.0275,24.0275,0,0,0,152,240Zm8,88a8.00917,8.00917,0,0,1-8,8H72a8.00917,8.00917,0,0,1-8-8V264a8.00917,8.00917,0,0,1,8-8h80a8.00917,8.00917,0,0,1,8,8Z"/><rect height="16" width="24" x="80" y="272"/><rect height="16" width="24" x="224" y="272"/><rect height="16" width="64" x="80" y="304"/><polygon points="312 388.687 266.343 434.343 277.657 445.657 328 395.313 328 320 312 320 312 388.687"/><rect height="32" width="16" x="400" y="432"/><rect height="32" width="16" x="432" y="432"/></g></svg>