<?xml version="1.0" ?><svg viewBox="0 0 64 64" xmlns="http://www.w3.org/2000/svg"><g id="High_efficacy"><path d="M61.5422,49.0639,54.1471,42.3a1.2575,1.2575,0,0,0-1.6973,0l-7.3952,6.7644a1.4485,1.4485,0,0,0,.9776,2.5173h2.1246a1.1043,1.1043,0,0,1,1.1044,1.1043v7.8762a1.0774,1.0774,0,0,0,1.0774,1.0774h5.7393a1.0775,1.0775,0,0,0,1.0774-1.0774V52.6855A1.1042,1.1042,0,0,1,58.26,51.5812h2.3052A1.4484,1.4484,0,0,0,61.5422,49.0639Z"/><path d="M44.9333,39.3837l-2.5576-3.7378A1.9208,1.9208,0,0,1,42.21,33.74,18.2963,18.2963,0,0,0,42.9275,32a1.9253,1.9253,0,0,1,1.4668-1.2315l4.4521-.835a2.0757,2.0757,0,0,0,1.6934-2.04V24.0512a2.0755,2.0755,0,0,0-1.6934-2.039l-4.4521-.8355a1.9235,1.9235,0,0,1-1.4668-1.2314,18.059,18.059,0,0,0-.7188-1.7408,1.9224,1.9224,0,0,1,.168-1.9062l2.5566-3.7368a2.075,2.075,0,0,0-.2461-2.6387L41.97,7.2055A2.0769,2.0769,0,0,0,39.3318,6.96L35.5945,9.517a1.9228,1.9228,0,0,1-1.9063.167,18.2121,18.2121,0,0,0-1.7412-.7192A1.924,1.924,0,0,1,30.7156,7.498l-.835-4.4526a2.0749,2.0749,0,0,0-2.0391-1.6919H23.9988A2.0749,2.0749,0,0,0,21.96,3.0454l-.835,4.4526a1.9249,1.9249,0,0,1-1.2324,1.4673,18.0434,18.0434,0,0,0-1.74.7192,1.9249,1.9249,0,0,1-1.9063-.1675L12.5085,6.96A2.0766,2.0766,0,0,0,9.87,7.2055L7.1531,9.9228a2.0754,2.0754,0,0,0-.2452,2.6387l2.5567,3.7378a1.9245,1.9245,0,0,1,.168,1.9047,17.7333,17.7333,0,0,0-.72,1.7417,1.9214,1.9214,0,0,1-1.4668,1.231l-4.4521.8355a2.0755,2.0755,0,0,0-1.6934,2.039v3.8423a2.0757,2.0757,0,0,0,1.6934,2.04l4.4512.835a1.9231,1.9231,0,0,1,1.4677,1.231,17.6739,17.6739,0,0,0,.72,1.7412,1.9249,1.9249,0,0,1-.169,1.9062L6.9089,39.3832a2.0747,2.0747,0,0,0,.2442,2.6392L9.87,44.7392a2.0742,2.0742,0,0,0,2.6386.2456l3.7373-2.5566a1.9225,1.9225,0,0,1,1.9063-.167,18.004,18.004,0,0,0,1.7412.7187,1.9255,1.9255,0,0,1,1.2314,1.4673L21.96,48.9a2.0749,2.0749,0,0,0,2.0391,1.6919h3.8427A2.0749,2.0749,0,0,0,29.8806,48.9l.835-4.4526A1.9255,1.9255,0,0,1,31.947,42.98a17.916,17.916,0,0,0,1.7412-.7192,1.929,1.929,0,0,1,1.9063.1675l3.7373,2.5566a2.0743,2.0743,0,0,0,2.6386-.2456l2.7168-2.7168A2.075,2.075,0,0,0,44.9333,39.3837ZM25.92,34.9121a8.94,8.94,0,1,1,8.9393-8.94A8.94,8.94,0,0,1,25.92,34.9121Z"/></g></svg>