<?xml version="1.0" encoding="UTF-8"?>
<svg version="1.1" xmlns="http://www.w3.org/2000/svg" width="1920" height="1080">
<path d="M0 0 C633.6 0 1267.2 0 1920 0 C1920 356.4 1920 712.8 1920 1080 C1286.4 1080 652.8 1080 0 1080 C0 723.6 0 367.2 0 0 Z " fill="#F3F3F3" transform="translate(0,0)"/>
<path d="M0 0 C4.50991517 3.45966095 8.97687098 6.97687098 13 11 C13.33 6.05 13.66 1.1 14 -4 C25.88 -4 37.76 -4 50 -4 C50.06796292 12.67357013 50.12312402 29.34702032 50.15543652 46.02069092 C50.1708447 53.76417025 50.19181709 61.50755681 50.22631836 69.25097656 C50.2564075 76.00741838 50.27561884 82.76379295 50.28226548 89.52029991 C50.28614505 93.09123445 50.29513289 96.66197677 50.31719017 100.23284912 C50.48743237 128.90353075 50.48743237 128.90353075 47 142 C46.78263687 142.82356995 46.56527374 143.64713989 46.34132385 144.4956665 C42.34017779 158.1100035 34.9425524 169.09922979 23 177 C22.24203125 177.53238281 21.4840625 178.06476563 20.703125 178.61328125 C2.55246726 190.56543005 -24.86965884 191.73730589 -45.77368164 187.76904297 C-49.54812133 186.95742582 -53.27689678 186.01977882 -57 185 C-58.09441406 184.71125 -59.18882812 184.4225 -60.31640625 184.125 C-68.46198293 181.69542719 -81.73984787 177.05866003 -87 170 C-86.90358688 165.75782265 -85.50937699 162.83404748 -83.3046875 159.26953125 C-81.17926625 155.57231644 -79.40824798 151.67792673 -77.63818359 147.79882812 C-76.35908378 145.13130373 -75.36145571 143.25614437 -72.921875 141.52734375 C-71 141 -71 141 -68.75 141.875 C-67.88375 142.431875 -67.88375 142.431875 -67 143 C-67 143.66 -67 144.32 -67 145 C-65.68902344 145.41958984 -65.68902344 145.41958984 -64.3515625 145.84765625 C-61.27176345 146.90656152 -58.35164363 148.12138071 -55.375 149.4375 C-40.35042089 155.64570017 -22.87485732 158.38933855 -7.34375 152.12890625 C-0.14109317 148.65962654 5.78324339 143.79074557 8.75 136.1875 C10.9516834 128.73564849 11.29336925 120.70643183 12 113 C11.34515625 113.59167969 10.6903125 114.18335938 10.015625 114.79296875 C-3.92635381 126.86420182 -18.52150025 129.98701565 -36.46972656 129.18652344 C-51.79427366 128.05684822 -66.9732844 121.0818742 -77.3125 109.5625 C-83.9545619 101.77224796 -89.50930316 92.97939202 -92 83 C-92.27585937 82.04996094 -92.55171875 81.09992188 -92.8359375 80.12109375 C-97.26545305 63.56120762 -96.12618045 43.38523798 -88 28 C-77.44961254 9.84853794 -63.06357661 -0.48724841 -43 -6 C-29.95518201 -9.19008789 -11.24446438 -7.82223609 0 0 Z " fill="#030303" transform="translate(899,498)"/>
<path d="M0 0 C0.495 1.485 0.495 1.485 1 3 C2.8644281 4.81346266 2.8644281 4.81346266 5.0625 6.5625 C6.41159519 7.66501188 7.73388897 8.80310688 9 10 C9 10.66 9 11.32 9 12 C9.58910156 12.25136719 10.17820312 12.50273437 10.78515625 12.76171875 C13.27644202 14.15455401 14.62300414 15.6208572 16.4375 17.8125 C18.4038981 20.13794319 20.34379182 22.34379182 22.5 24.5 C25.2001044 27.2001044 27.67616881 30.03627294 30.15625 32.9375 C32.34921701 35.39064954 34.65816523 37.68785046 37 40 C39.62786753 42.60128713 42.25182298 45.20648395 44.875 47.8125 C45.55691406 48.48603516 46.23882812 49.15957031 46.94140625 49.85351562 C50.96740694 53.86034488 54.80536114 57.96482299 58.49804688 62.28149414 C59.81232276 63.78526331 61.21279555 65.21279555 62.625 66.625 C65 69 65 69 67.375 71.9375 C69.82253471 74.95586549 72.63480335 77.35577842 75.64453125 79.80078125 C76.09183594 80.19652344 76.53914062 80.59226562 77 81 C77 81.33 77 81.66 77 82 C58.85 82 40.7 82 22 82 C22 174.73 22 267.46 22 363 C6.16 363 -9.68 363 -26 363 C-26 270.27 -26 177.54 -26 82 C-43.49 82 -60.98 82 -79 82 C-77.37106101 78.74212201 -76.30769633 77.03111959 -73.91015625 74.49609375 C-73.29575684 73.84302246 -72.68135742 73.18995117 -72.04833984 72.51708984 C-71.3930127 71.8308252 -70.73768555 71.14456055 -70.0625 70.4375 C-69.3917041 69.72803223 -68.7209082 69.01856445 -68.02978516 68.28759766 C-63.18763798 63.18701804 -58.23643689 58.2084909 -53.234375 53.265625 C-50.63480448 50.62969685 -48.32773569 47.8754382 -46 45 C-44.33333333 43.33333333 -42.66666667 41.66666667 -41 40 C-40.175 39.01 -39.35 38.02 -38.5 37 C-36.12885733 34.15462879 -33.65020627 31.58395112 -31 29 C-30.24460937 28.24460937 -29.48921875 27.48921875 -28.7109375 26.7109375 C-26.85714505 24.85714505 -24.99888755 23.00925901 -23.1328125 21.16796875 C-17.52543362 15.61961491 -12.13168257 9.99657289 -7 4 C-3.4 0 -3.4 0 0 0 Z " fill="#00D001" transform="translate(451,324)"/>
<path d="M0 0 C2.81115461 0.35677673 3.82955843 0.80858688 5.74609375 2.9609375 C6.58333984 4.15589844 6.58333984 4.15589844 7.4375 5.375 C9.31320862 8.04712319 10.62986233 9.77921613 13.44921875 11.4609375 C16.52299726 13.31556037 18.18316024 15.41722515 20.375 18.25 C23.62356285 22.35831651 26.94692913 26.10043994 30.78515625 29.66015625 C32 31 32 31 32 33 C32.99 33 33.98 33 35 33 C35 33.66 35 34.32 35 35 C35.66 35 36.32 35 37 35 C38.35386936 36.65002828 39.68678142 38.3174387 41 40 C41.66 40.33 42.32 40.66 43 41 C43 41.66 43 42.32 43 43 C43.5775 43.2475 44.155 43.495 44.75 43.75 C47.32939979 45.18299988 49.06121592 46.78424676 51 49 C51 49.66 51 50.32 51 51 C51.66 51 52.32 51 53 51 C54.49381291 52.70218367 55.92097016 54.46322891 57.3125 56.25 C60.2862536 60.06690615 63.17902799 63.04462036 67 66 C68.14121965 67.17340155 69.25065036 68.37931593 70.3125 69.625 C70.82425781 70.21539062 71.33601562 70.80578125 71.86328125 71.4140625 C73 73 73 73 73 75 C73.61875 75.2475 74.2375 75.495 74.875 75.75 C77 77 77 77 79 81 C61.51 81 44.02 81 26 81 C26 173.73 26 266.46 26 362 C10.16 362 -5.68 362 -22 362 C-22 269.27 -22 176.54 -22 81 C-40.15 81 -58.3 81 -77 81 C-77 79 -77 79 -75.125 76.875 C-73 75 -73 75 -71 75 C-71 74.34 -71 73.68 -71 73 C-70.34 73 -69.68 73 -69 73 C-68.773125 72.4225 -68.54625 71.845 -68.3125 71.25 C-66.6591307 68.41565264 -64.57036056 67.03237811 -62 65 C-60.81023452 63.55298793 -59.62158378 62.10489613 -58.453125 60.640625 C-56.15807751 58.04944235 -53.49293157 55.90940802 -50.859375 53.671875 C-48.61485563 51.65369372 -46.84021015 49.3854576 -45 47 C-44.01 46.34 -43.02 45.68 -42 45 C-41.55914062 44.25105469 -41.11828125 43.50210938 -40.6640625 42.73046875 C-38.66102322 39.44379163 -36.13363683 36.95260165 -33.375 34.3125 C-29.74503625 31.00228864 -29.74503625 31.00228864 -27 27 C-26.34 27 -25.68 27 -25 27 C-24.34 25.68 -23.68 24.36 -23 23 C-22.34 23 -21.68 23 -21 23 C-20.34 21.68 -19.68 20.36 -19 19 C-18.34 19 -17.68 19 -17 19 C-16.7525 18.401875 -16.505 17.80375 -16.25 17.1875 C-15 15 -15 15 -13.0625 13.5625 C-10.57863514 11.68078419 -9.56602374 9.67529056 -8 7 C-5.61759651 4.31979608 -4.43387177 3.14462392 -1 2 C-0.67 1.34 -0.34 0.68 0 0 Z " fill="#FEC502" transform="translate(237,325)"/>
<path d="M0 0 C12.87 0 25.74 0 39 0 C39 23.76 39 47.52 39 72 C64.41 72 89.82 72 116 72 C116 48.24 116 24.48 116 0 C129.2 0 142.4 0 156 0 C156 60.39 156 120.78 156 183 C142.8 183 129.6 183 116 183 C116 158.25 116 133.5 116 108 C90.59 108 65.18 108 39 108 C39 132.75 39 157.5 39 183 C26.13 183 13.26 183 0 183 C0 122.61 0 62.22 0 0 Z " fill="#020202" transform="translate(555,451)"/>
<path d="M0 0 C2.30349734 1.03202368 3.52144255 2.15551197 5.21972656 4.01879883 C5.81140625 4.66075195 6.40308594 5.30270508 7.01269531 5.96411133 C7.61984375 6.63958008 8.22699219 7.31504883 8.85253906 8.01098633 C9.45195312 8.66325195 10.05136719 9.31551758 10.66894531 9.98754883 C13.54377779 13.13053271 16.35714144 16.3157233 19.11035156 19.56567383 C21.60101016 22.48884692 24.22729692 25.20201508 26.97753906 27.88598633 C28.17682088 29.08253629 29.37461698 30.28057637 30.57128906 31.47973633 C31.209375 32.11782227 31.84746094 32.7559082 32.50488281 33.41333008 C38.38378906 39.29223633 38.38378906 39.29223633 40.25537109 41.16577148 C41.7283845 42.63711434 43.20778871 44.10205442 44.68847656 45.56567383 C46.9104407 47.81797195 49.01325073 50.13571176 51.10253906 52.51098633 C54.48931083 56.30417071 57.98706305 59.93524082 61.60253906 63.51098633 C67.15960202 69.01356828 72.28541247 74.62981754 76.97753906 80.88598633 C59.81753906 80.88598633 42.65753906 80.88598633 24.97753906 80.88598633 C24.97753906 135.33598633 24.97753906 189.78598633 24.97753906 245.88598633 C7.15753906 245.88598633 -10.66246094 245.88598633 -29.02246094 245.88598633 C-29.35246094 191.76598633 -29.68246094 137.64598633 -30.02246094 81.88598633 C-54.27746094 81.39098633 -54.27746094 81.39098633 -79.02246094 80.88598633 C-74.624406 75.02191308 -72.26369379 72.16454376 -67.02246094 67.88598633 C-65.20643853 65.84840128 -63.45706301 63.77165976 -61.73339844 61.65551758 C-59.9395018 59.80018612 -58.33058689 58.98161574 -56.02246094 57.88598633 C-55.32094942 56.57065222 -54.65720168 55.23481041 -54.02246094 53.88598633 C-52.02246094 51.63598633 -52.02246094 51.63598633 -50.02246094 49.88598633 C-49.36246094 49.88598633 -48.70246094 49.88598633 -48.02246094 49.88598633 C-47.79558594 49.34973633 -47.56871094 48.81348633 -47.33496094 48.26098633 C-45.56676005 45.06138471 -43.48575891 42.5956141 -41.02246094 39.88598633 C-40.36246094 39.88598633 -39.70246094 39.88598633 -39.02246094 39.88598633 C-38.67441406 39.04487305 -38.67441406 39.04487305 -38.31933594 38.18676758 C-36.69168999 35.29916678 -34.65986262 33.37045613 -32.27246094 31.07348633 C-29.19552418 28.07213906 -26.25365019 25.08032772 -23.52246094 21.76098633 C-22.69746094 20.81223633 -21.87246094 19.86348633 -21.02246094 18.88598633 C-20.36246094 18.88598633 -19.70246094 18.88598633 -19.02246094 18.88598633 C-18.76126465 18.30244385 -18.50006836 17.71890137 -18.23095703 17.11767578 C-16.09223154 13.16816271 -12.78892749 10.24172674 -9.64746094 7.07348633 C-8.97457031 6.36772461 -8.30167969 5.66196289 -7.60839844 4.93481445 C-6.62613281 3.94191406 -6.62613281 3.94191406 -5.62402344 2.92895508 C-5.02928223 2.32075928 -4.43454102 1.71256348 -3.82177734 1.0859375 C-2.02246094 -0.11401367 -2.02246094 -0.11401367 0 0 Z " fill="#0097FC" transform="translate(346.0224609375,440.114013671875)"/>
<path d="M0 0 C12.87 0 25.74 0 39 0 C39 21.78 39 43.56 39 66 C41.64 64.02 44.28 62.04 47 60 C57.09778782 53.52217385 66.60776264 51.35488271 78.5625 51.5625 C80.2940332 51.55186523 80.2940332 51.55186523 82.06054688 51.54101562 C95.53236896 51.64035407 108.6165348 55.86750855 118.8125 65.0625 C133.88834167 81.60823623 134.30812097 101.54627873 134.1953125 122.61328125 C134.19157496 124.67978274 134.1887315 126.74628601 134.18673706 128.81278992 C134.17915891 134.20987986 134.15956143 139.60685943 134.1373291 145.00390625 C134.11674427 150.52797961 134.10770851 156.05207108 134.09765625 161.57617188 C134.07630918 172.38417048 134.04117552 183.19205873 134 194 C121.46 194 108.92 194 96 194 C95.97421875 187.99167969 95.9484375 181.98335937 95.921875 175.79296875 C95.89668603 171.96935935 95.87033734 168.14582744 95.83984375 164.32226562 C95.79163285 158.26342553 95.74754163 152.20476499 95.72900391 146.14575195 C95.71377554 141.25664696 95.67922111 136.36801413 95.63169098 131.47912025 C95.61694065 129.62101679 95.60896266 127.76284589 95.60811615 125.90468407 C95.5977701 114.57397908 95.20850097 105.06426948 89.25 95.0625 C82.41298279 88.79523422 74.63758728 87.63389085 65.6484375 87.7265625 C57.7973868 88.31497101 51.78213559 91.18535162 46.46875 97 C41.27607747 104.07087323 39.86034786 111.39675718 39.79467773 119.98144531 C39.78477814 120.7818222 39.77487854 121.5821991 39.76467896 122.40682983 C39.73314058 125.04723166 39.70833687 127.68765147 39.68359375 130.328125 C39.6630176 132.16087303 39.64202096 133.99361639 39.62062073 135.82635498 C39.56546829 140.64644582 39.51602892 145.466579 39.46777344 150.28674316 C39.40866856 156.07210922 39.34247818 161.857398 39.27747345 167.6427002 C39.17954984 176.42841954 39.09063501 185.21418881 39 194 C26.13 194 13.26 194 0 194 C0 129.98 0 65.96 0 0 Z " fill="#040404" transform="translate(980,440)"/>
<path d="M0 0 C15.59553281 11.04962944 24.9914964 24.4190221 29.80517578 43.06640625 C31.30519144 53.14984486 30.93017578 63.43450675 30.93017578 73.62890625 C-2.06982422 73.62890625 -35.06982422 73.62890625 -69.06982422 73.62890625 C-63.25593342 86.74235539 -63.25593342 86.74235539 -53.31982422 95.81640625 C-52.52060547 96.30496094 -51.72138672 96.79351563 -50.89794922 97.296875 C-39.07872183 102.8636658 -23.88360427 102.16344647 -11.78857422 97.91796875 C-7.85146154 96.05123429 -5.1748515 93.66493293 -2.06982422 90.62890625 C-1.40982422 90.62890625 -0.74982422 90.62890625 -0.06982422 90.62890625 C-0.06982422 89.96890625 -0.06982422 89.30890625 -0.06982422 88.62890625 C0.92017578 88.62890625 1.91017578 88.62890625 2.93017578 88.62890625 C4.19186761 90.32222949 5.44459467 92.02408661 6.62158203 93.77734375 C7.97755638 95.80681649 7.97755638 95.80681649 10.24267578 97.94140625 C12.74024806 100.43897852 15.03321358 102.98875904 17.30517578 105.69140625 C18.01416016 106.52800781 18.72314453 107.36460937 19.45361328 108.2265625 C20.93017578 110.62890625 20.93017578 110.62890625 20.90283203 112.6953125 C15.9984507 122.44498622 2.94231136 128.17011074 -6.88232422 131.44140625 C-27.9262114 138.17981158 -50.660259 136.00350019 -70.56982422 126.81640625 C-87.61264733 117.58880036 -99.3342225 102.53749725 -104.83276367 84.06591797 C-106.89127782 76.53483087 -107.57970223 69.54583303 -107.50732422 61.75390625 C-107.50047607 60.61493896 -107.49362793 59.47597168 -107.48657227 58.30249023 C-107.32401641 49.77470056 -106.34267439 42.56959192 -103.06982422 34.62890625 C-102.70759766 33.675 -102.34537109 32.72109375 -101.97216797 31.73828125 C-94.69174943 14.06784169 -81.23983819 1.67431295 -63.90185547 -5.72265625 C-43.7889532 -13.26838746 -17.97915131 -12.10932558 0 0 Z " fill="#040404" transform="translate(1384.06982421875,501.37109375)"/>
<path d="M0 0 C8.73071457 6.52631773 14.38315721 13.13026001 19.875 22.5625 C20.4628125 23.56603516 20.4628125 23.56603516 21.0625 24.58984375 C29.3576353 39.91640232 28.875 55.19998387 28.875 72.5625 C-4.125 72.5625 -37.125 72.5625 -71.125 72.5625 C-64.68049004 86.93950513 -64.68049004 86.93950513 -53 95.875 C-51.96617188 96.36613281 -50.93234375 96.85726562 -49.8671875 97.36328125 C-40.64742296 101.39528654 -27.86442797 101.3858378 -18.35546875 98.17578125 C-11.95220587 95.60443176 -6.80664763 92.69635223 -2.125 87.5625 C3.56365033 89.9199587 6.96651066 94.99198641 10.875 99.5625 C11.66648437 100.46742188 12.45796875 101.37234375 13.2734375 102.3046875 C14.37558594 103.60792969 14.37558594 103.60792969 15.5 104.9375 C16.17289063 105.72898437 16.84578125 106.52046875 17.5390625 107.3359375 C18.875 109.5625 18.875 109.5625 18.85546875 111.578125 C13.35268982 122.71522339 -1.51234145 127.75872629 -12.359375 131.80078125 C-27.32612907 135.92298046 -46.39523985 135.15307566 -61.125 130.5625 C-61.97320313 130.30726563 -62.82140625 130.05203125 -63.6953125 129.7890625 C-79.77617344 124.15300513 -93.26886737 112.45801648 -101.20507812 97.4765625 C-109.83144926 79.52784973 -112.32082797 58.27185428 -107.296875 38.86328125 C-103.61841622 28.50228902 -98.52747666 18.74957096 -91.125 10.5625 C-90.60679688 9.964375 -90.08859375 9.36625 -89.5546875 8.75 C-67.41275051 -15.21035693 -26.43694212 -17.9477716 0 0 Z " fill="#040404" transform="translate(1671.125,502.4375)"/>
<path d="M0 0 C13.2 0 26.4 0 40 0 C40 48.84 40 97.68 40 148 C68.05 148 96.1 148 125 148 C125 159.55 125 171.1 125 183 C83.75 183 42.5 183 0 183 C0 122.61 0 62.22 0 0 Z " fill="#040404" transform="translate(1147,451)"/>
<path d="M0 0 C12.87 0 25.74 0 39 0 C43.8991289 12.02513457 48.55395696 24.07888343 52.85327148 36.33178711 C54.74489432 41.68425428 56.7789278 46.88644228 59.13818359 52.04956055 C60.25856027 54.58516657 61.11603727 57.16640577 61.9375 59.8125 C63.60679566 64.96384209 65.57252454 69.91297539 67.69921875 74.890625 C69.57613245 79.37718148 71.27749732 83.92699444 72.984375 88.48046875 C73.76797561 90.89846347 73.76797561 90.89846347 75 92 C75.46374023 90.80511963 75.92748047 89.61023926 76.40527344 88.37915039 C78.14005366 83.91100871 79.87771463 79.44399189 81.61621094 74.97729492 C82.36568522 73.0505134 83.1143966 71.12343493 83.86230469 69.19604492 C84.94261406 66.41244776 86.0257383 63.62995953 87.109375 60.84765625 C87.43871033 59.99728287 87.76804565 59.14690948 88.10736084 58.27076721 C89.98631328 53.45539727 91.97464841 48.71191413 94.11262512 44.00553894 C95.52846334 40.80563015 96.73498134 37.53469593 97.9375 34.25 C98.4540519 32.85793364 98.97098458 31.46600852 99.48828125 30.07421875 C99.74174316 29.39020996 99.99520508 28.70620117 100.25634766 28.00146484 C103.02931981 20.5382916 105.82492792 13.11562522 109.203125 5.90234375 C110.18213077 3.69966485 110.18213077 3.69966485 111 0 C123.21 0 135.42 0 148 0 C145.97214186 6.75952714 143.86043957 13.14179606 141.1875 19.625 C138.66743254 25.82570751 136.19742196 32.03494668 133.875 38.3125 C131.73031178 44.10040858 129.49029306 49.84201249 127.17919922 55.56542969 C125.57300111 59.54779121 124.02156743 63.54711757 122.5 67.5625 C120.82600969 71.95539176 119.02390021 76.26234502 117.125 80.5625 C114.60600663 86.35165186 112.48049741 92.21506565 110.4375 98.1875 C108.318269 104.37783988 106.08215486 110.37070572 103.2578125 116.28125 C101.65500695 119.74569927 100.22777868 123.26806385 98.8125 126.8125 C98.07966797 128.64748047 98.07966797 128.64748047 97.33203125 130.51953125 C96.13475283 133.64790391 95.05925404 136.82223789 94 140 C80.8 140 67.6 140 54 140 C45.99815492 120.79557181 38.45569349 101.44353762 31.05078125 82.00390625 C27.10316891 71.64125216 23.15141993 61.28313925 19 51 C14.9152084 40.86458497 10.85594712 30.73274917 7.09179688 20.47314453 C5.27976123 15.59294604 3.18680697 10.90032606 0.8828125 6.234375 C0 4 0 4 0 0 Z " fill="#030303" transform="translate(1415,494)"/>
<path d="M0 0 C0.495 1.485 0.495 1.485 1 3 C2.8644281 4.81346266 2.8644281 4.81346266 5.0625 6.5625 C6.41159519 7.66501188 7.73388897 8.80310688 9 10 C9 10.66 9 11.32 9 12 C9.58910156 12.25136719 10.17820312 12.50273437 10.78515625 12.76171875 C13.27644202 14.15455401 14.62300414 15.6208572 16.4375 17.8125 C18.4038981 20.13794319 20.34379182 22.34379182 22.5 24.5 C25.2001044 27.2001044 27.67616881 30.03627294 30.15625 32.9375 C32.34921701 35.39064954 34.65816523 37.68785046 37 40 C39.62786753 42.60128713 42.25182298 45.20648395 44.875 47.8125 C45.55691406 48.48603516 46.23882812 49.15957031 46.94140625 49.85351562 C50.96740694 53.86034488 54.80536114 57.96482299 58.49804688 62.28149414 C59.81232276 63.78526331 61.21279555 65.21279555 62.625 66.625 C65 69 65 69 67.375 71.9375 C69.82253471 74.95586549 72.63480335 77.35577842 75.64453125 79.80078125 C76.09183594 80.19652344 76.53914062 80.59226562 77 81 C77 81.33 77 81.66 77 82 C58.85 82 40.7 82 22 82 C22 174.73 22 267.46 22 363 C6.16 363 -9.68 363 -26 363 C-26 270.27 -26 177.54 -26 82 C-43.49 82 -60.98 82 -79 82 C-77.37106101 78.74212201 -76.30769633 77.03111959 -73.91015625 74.49609375 C-73.29575684 73.84302246 -72.68135742 73.18995117 -72.04833984 72.51708984 C-71.3930127 71.8308252 -70.73768555 71.14456055 -70.0625 70.4375 C-69.3917041 69.72803223 -68.7209082 69.01856445 -68.02978516 68.28759766 C-63.18763798 63.18701804 -58.23643689 58.2084909 -53.234375 53.265625 C-50.63480448 50.62969685 -48.32773569 47.8754382 -46 45 C-44.33333333 43.33333333 -42.66666667 41.66666667 -41 40 C-40.175 39.01 -39.35 38.02 -38.5 37 C-36.12885733 34.15462879 -33.65020627 31.58395112 -31 29 C-30.24460937 28.24460937 -29.48921875 27.48921875 -28.7109375 26.7109375 C-26.85714505 24.85714505 -24.99888755 23.00925901 -23.1328125 21.16796875 C-17.52543362 15.61961491 -12.13168257 9.99657289 -7 4 C-3.4 0 -3.4 0 0 0 Z M-24 86 C-24.02286527 120.88895752 -24.04049766 155.77791334 -24.05106533 190.66687673 C-24.05231611 194.78141718 -24.05361042 198.89595762 -24.05493164 203.01049805 C-24.05519395 203.82966418 -24.05545626 204.64883032 -24.05572652 205.49281967 C-24.06008344 218.77439174 -24.06797111 232.05595949 -24.0771528 245.337529 C-24.08648873 258.95531299 -24.09205548 272.57309472 -24.09408849 286.19088179 C-24.09546385 294.60067128 -24.0998151 303.01044859 -24.10791647 311.42023433 C-24.11318318 317.17916473 -24.11480447 322.93808879 -24.11350138 328.69702142 C-24.11285788 332.02467129 -24.11441524 335.35228253 -24.11920547 338.67993164 C-24.12413528 342.27918713 -24.12300093 345.87838931 -24.12025452 349.47764587 C-24.12316736 350.54085287 -24.1260802 351.60405986 -24.12908131 352.69948524 C-24.12709026 353.65592668 -24.12509921 354.61236812 -24.12304783 355.59779263 C-24.12342755 356.42975987 -24.12380727 357.26172711 -24.1241985 358.11890548 C-24.20664345 360.0130184 -24.20664345 360.0130184 -23 361 C-20.49982906 361.10111336 -18.02793801 361.13969624 -15.52734375 361.1328125 C-14.3926339 361.13424759 -14.3926339 361.13424759 -13.23500061 361.13571167 C-11.6267997 361.13639398 -10.01859606 361.13453616 -8.41040039 361.13037109 C-5.97210304 361.12507516 -3.5339943 361.13028722 -1.09570312 361.13671875 C0.4687504 361.13605696 2.03320381 361.13477373 3.59765625 361.1328125 C4.31881119 361.13483673 5.03996613 361.13686096 5.78297424 361.13894653 C6.47986862 361.13579437 7.176763 361.13264221 7.89477539 361.12939453 C8.49576553 361.12859894 9.09675568 361.12780334 9.71595764 361.12698364 C11.88148905 361.00658874 13.99197234 360.76643549 16.14275265 360.49206352 C17.41564427 360.32968256 18.6885359 360.1673016 20 360 C20.09123007 330.02013836 20.16202819 300.04028138 20.20426132 270.06031086 C20.20926421 266.5217337 20.21444149 262.98315682 20.21972656 259.44458008 C20.22130043 258.38786978 20.22130043 258.38786978 20.22290608 257.30981179 C20.24031623 245.89972765 20.27185725 234.48972404 20.30861118 223.07968769 C20.3460037 211.37387012 20.36823226 199.66809474 20.37635398 187.96221989 C20.38157608 181.38636223 20.39387931 174.81068728 20.42292023 168.23488808 C20.45002015 162.04861684 20.45845587 155.86260402 20.45243073 149.67627907 C20.45353338 147.40304664 20.46151925 145.12980579 20.4768219 142.8566246 C20.49666445 139.75767833 20.49195964 136.65971327 20.48101807 133.56074524 C20.49849512 132.20519585 20.49849512 132.20519585 20.51632524 130.82226163 C20.47706702 126.72087101 20.32816677 124.54055199 18.15743637 120.96495342 C16.07174474 118.79890954 16.07174474 118.79890954 13 118 C11.8125 115.4375 11.8125 115.4375 11 113 C10.01 113 9.02 113 8 113 C7.938125 112.21625 7.87625 111.4325 7.8125 110.625 C7.544375 109.75875 7.27625 108.8925 7 108 C5.35965807 107.27095914 3.68698082 106.61344757 2 106 C0.29115995 104.37660195 -1.37446717 102.70680947 -3 101 C-3.86625 100.34 -4.7325 99.68 -5.625 99 C-8 97 -8 97 -9.4375 94.25 C-9.953125 93.5075 -10.46875 92.765 -11 92 C-14.12635209 91.58253392 -14.12635209 91.58253392 -17 92 C-17 91.01 -17 90.02 -17 89 C-18.18700508 87.22954016 -18.18700508 87.22954016 -20 86 C-21.32 86 -22.64 86 -24 86 Z " fill="#02CF03" transform="translate(451,324)"/>
<path d="M0 0 C12.54 0 25.08 0 38 0 C38 64.02 38 128.04 38 194 C25.46 194 12.92 194 0 194 C0 129.98 0 65.96 0 0 Z " fill="#020202" transform="translate(1721,440)"/>
<path d="M0 0 C2.81115461 0.35677673 3.82955843 0.80858688 5.74609375 2.9609375 C6.58333984 4.15589844 6.58333984 4.15589844 7.4375 5.375 C9.31320862 8.04712319 10.62986233 9.77921613 13.44921875 11.4609375 C16.52299726 13.31556037 18.18316024 15.41722515 20.375 18.25 C23.62356285 22.35831651 26.94692913 26.10043994 30.78515625 29.66015625 C32 31 32 31 32 33 C32.99 33 33.98 33 35 33 C35 33.66 35 34.32 35 35 C35.66 35 36.32 35 37 35 C38.35386936 36.65002828 39.68678142 38.3174387 41 40 C41.66 40.33 42.32 40.66 43 41 C43 41.66 43 42.32 43 43 C43.5775 43.2475 44.155 43.495 44.75 43.75 C47.32939979 45.18299988 49.06121592 46.78424676 51 49 C51 49.66 51 50.32 51 51 C51.66 51 52.32 51 53 51 C54.49381291 52.70218367 55.92097016 54.46322891 57.3125 56.25 C60.2862536 60.06690615 63.17902799 63.04462036 67 66 C68.14121965 67.17340155 69.25065036 68.37931593 70.3125 69.625 C70.82425781 70.21539062 71.33601562 70.80578125 71.86328125 71.4140625 C73 73 73 73 73 75 C73.61875 75.2475 74.2375 75.495 74.875 75.75 C77 77 77 77 79 81 C61.51 81 44.02 81 26 81 C26 173.73 26 266.46 26 362 C10.16 362 -5.68 362 -22 362 C-22 269.27 -22 176.54 -22 81 C-40.15 81 -58.3 81 -77 81 C-77 79 -77 79 -75.125 76.875 C-73 75 -73 75 -71 75 C-71 74.34 -71 73.68 -71 73 C-70.34 73 -69.68 73 -69 73 C-68.773125 72.4225 -68.54625 71.845 -68.3125 71.25 C-66.6591307 68.41565264 -64.57036056 67.03237811 -62 65 C-60.81023452 63.55298793 -59.62158378 62.10489613 -58.453125 60.640625 C-56.15807751 58.04944235 -53.49293157 55.90940802 -50.859375 53.671875 C-48.61485563 51.65369372 -46.84021015 49.3854576 -45 47 C-44.01 46.34 -43.02 45.68 -42 45 C-41.55914062 44.25105469 -41.11828125 43.50210938 -40.6640625 42.73046875 C-38.66102322 39.44379163 -36.13363683 36.95260165 -33.375 34.3125 C-29.74503625 31.00228864 -29.74503625 31.00228864 -27 27 C-26.34 27 -25.68 27 -25 27 C-24.34 25.68 -23.68 24.36 -23 23 C-22.34 23 -21.68 23 -21 23 C-20.34 21.68 -19.68 20.36 -19 19 C-18.34 19 -17.68 19 -17 19 C-16.7525 18.401875 -16.505 17.80375 -16.25 17.1875 C-15 15 -15 15 -13.0625 13.5625 C-10.57863514 11.68078419 -9.56602374 9.67529056 -8 7 C-5.61759651 4.31979608 -4.43387177 3.14462392 -1 2 C-0.67 1.34 -0.34 0.68 0 0 Z M-20 83 C-21.08077331 85.90581609 -21.12445987 88.6774918 -21.12304783 91.75573349 C-21.12503888 92.71466468 -21.12702993 93.67359586 -21.12908131 94.66158557 C-21.12616847 95.71216309 -21.12325563 96.76274061 -21.12025452 97.84515381 C-21.12110894 98.9633813 -21.12196337 100.0816088 -21.12284368 101.23372197 C-21.12449547 104.99404691 -21.11898198 108.75432759 -21.11352539 112.51464844 C-21.11324343 115.20486044 -21.11335736 117.8950697 -21.1139679 120.58528137 C-21.11449244 126.38399466 -21.1113529 132.1826967 -21.10573006 137.98140717 C-21.09760565 146.36538535 -21.09499887 154.7493581 -21.09374207 163.13333979 C-21.09155303 176.73554341 -21.08489695 190.33774104 -21.07543945 203.93994141 C-21.06626151 217.15380829 -21.05918254 230.36767354 -21.05493164 243.58154297 C-21.05466892 244.39594187 -21.05440619 245.21034077 -21.05413551 246.04941842 C-21.05283048 250.13498732 -21.05156677 254.22055624 -21.05032361 258.30612516 C-21.03995561 292.20408797 -21.02206625 326.10204283 -21 360 C-6.15 360 8.7 360 24 360 C24.12825602 330.23368715 24.25588323 300.46737179 24.38218227 270.70105058 C24.3971971 267.16251677 24.41221931 263.62398298 24.42724609 260.08544922 C24.43023671 259.38118471 24.43322732 258.67692019 24.43630856 257.95131433 C24.48433442 246.64574727 24.53295419 235.34018285 24.58180541 224.03461933 C24.63216323 212.37722092 24.68185512 200.7198198 24.73096704 189.06241608 C24.75847879 182.53861803 24.78627038 176.01482149 24.81480408 169.49102783 C24.9436083 139.99383809 25.03683038 110.49749257 25 81 C19.07349487 80.95215845 13.14711189 80.91428181 7.22045898 80.89013672 C5.20383619 80.88007227 3.18722801 80.86641953 1.1706543 80.84912109 C-1.72611089 80.82489231 -4.62268331 80.81352141 -7.51953125 80.8046875 C-8.42274612 80.79436493 -9.325961 80.78404236 -10.25654602 80.77340698 C-11.09719101 80.77325592 -11.937836 80.77310486 -12.80395508 80.77294922 C-13.54341873 80.768508 -14.28288239 80.76406677 -15.04475403 80.75949097 C-17.32324251 80.89124013 -17.32324251 80.89124013 -20 83 Z " fill="#FDC505" transform="translate(237,325)"/>
<path d="M0 0 C12.54 0 25.08 0 38 0 C38 46.53 38 93.06 38 141 C25.46 141 12.92 141 0 141 C0 94.47 0 47.94 0 0 Z " fill="#040404" transform="translate(745,493)"/>
<path d="M0 0 C7.78134387 5.6939675 12.38859933 11.65162448 15 21 C16.28263607 31.5827282 15.61990049 41.71561645 10 51 C7.5 54 7.5 54 5 56 C4.195625 56.70125 3.39125 57.4025 2.5625 58.125 C-6.66718534 64.8784283 -17.92549549 65.37796716 -29 64 C-36.025075 61.79402281 -40.58487946 58.8652752 -45 53 C-45.53367187 52.49339844 -46.06734375 51.98679687 -46.6171875 51.46484375 C-48.33216984 49.64812517 -49.1433804 47.85423396 -50.125 45.5625 C-50.45757813 44.80066406 -50.79015625 44.03882813 -51.1328125 43.25390625 C-54.42378564 34.70034092 -54.23396214 24.01621932 -51.2421875 15.3828125 C-46.80739142 6.87581373 -38.72246451 -0.29657307 -29.66015625 -3.45703125 C-19.95606048 -5.43774977 -8.55780732 -5.39776893 0 0 Z " fill="#F2F2F2" transform="translate(896,529)"/>
<path d="M0 0 C4.7110833 2.66639025 7.23437913 5.0583886 9.8515625 9.8203125 C10.5115625 10.8103125 11.1715625 11.8003125 11.8515625 12.8203125 C12.75065387 20.71338833 12.8806227 28.22754922 8.33984375 35.01953125 C4.58925319 39.55764739 0.74621645 42.61954966 -5.1484375 43.8203125 C-13.21627247 44.45844634 -20.51371764 44.4365153 -27.0859375 39.30859375 C-31.84958543 34.89229515 -34.78292338 30.59385969 -35.42578125 23.95703125 C-35.61779878 17.78942827 -35.10895356 13.24792527 -32.1484375 7.8203125 C-31.4884375 7.8203125 -30.8284375 7.8203125 -30.1484375 7.8203125 C-29.89320313 7.21703125 -29.63796875 6.61375 -29.375 5.9921875 C-24.03277678 -3.46729056 -8.98605299 -3.36698263 0 0 Z " fill="#040404" transform="translate(775.1484375,430.1796875)"/>
<path d="M0 0 C1.65 1.65 3.3 3.3 5 5 C-12.16 5 -29.32 5 -47 5 C-47 59.45 -47 113.9 -47 170 C-64.82 170 -82.64 170 -101 170 C-101.495 88.325 -101.495 88.325 -102 5 C-39.82298658 3.84857383 -39.82298658 3.84857383 -20.125 3.9375 C-18.01041784 3.94257055 -15.89583437 3.94712281 -13.78125 3.95117188 C-8.85413092 3.96163688 -3.92708284 3.97852619 1 4 C0.505 2.02 0.505 2.02 0 0 Z M-100 10 C-100 61.48 -100 112.96 -100 166 C-99.34 166 -98.68 166 -98 166 C-97.67 166.99 -97.34 167.98 -97 169 C-90.343173 169.07588693 -83.68645697 169.12853061 -77.02929688 169.16479492 C-74.76330395 169.17990804 -72.4973404 169.20039913 -70.23144531 169.22631836 C-66.97974411 169.26259062 -63.72842864 169.2797009 -60.4765625 169.29296875 C-59.45881744 169.30845261 -58.44107239 169.32393646 -57.39248657 169.33988953 C-55.98125015 169.34022942 -55.98125015 169.34022942 -54.54150391 169.34057617 C-53.71099518 169.34723801 -52.88048645 169.35389984 -52.02481079 169.36076355 C-51.35662323 169.24171158 -50.68843567 169.12265961 -50 169 C-47.84408621 165.76612932 -47.75150708 164.92194522 -47.75949097 161.19746399 C-47.75674164 160.20888397 -47.75399231 159.22030396 -47.75115967 158.20176697 C-47.75835022 157.11851639 -47.76554077 156.03526581 -47.77294922 154.91918945 C-47.77265717 153.77758362 -47.77236511 152.63597778 -47.77206421 151.45977783 C-47.77346016 147.67753561 -47.78903404 143.89548916 -47.8046875 140.11328125 C-47.80841668 137.49440112 -47.8112641 134.8755196 -47.81326294 132.25663757 C-47.81948097 126.06245093 -47.83589612 119.86833483 -47.85596192 113.67417926 C-47.8783109 106.62225863 -47.88931182 99.57033465 -47.89935279 92.51838744 C-47.92026209 78.01222189 -47.95544433 63.50611193 -48 49 C-49.32 49 -50.64 49 -52 49 C-52 48.01 -52 47.02 -52 46 C-53.63631892 44.95107762 -55.30485863 43.95093297 -57 43 C-57.33 42.34 -57.66 41.68 -58 41 C-58.99 41 -59.98 41 -61 41 C-61 40.01 -61 39.02 -61 38 C-61.66 38 -62.32 38 -63 38 C-63 37.34 -63 36.68 -63 36 C-64.0725 35.4225 -65.145 34.845 -66.25 34.25 C-69.32670411 32.51315091 -71.50171195 30.49828805 -74 28 C-74.99 28 -75.98 28 -77 28 C-77 27.01 -77 26.02 -77 25 C-77.66 25 -78.32 25 -79 25 C-79 24.34 -79 23.68 -79 23 C-80.27056525 21.31267956 -80.27056525 21.31267956 -82 20 C-82.99 20 -83.98 20 -85 20 C-85.33 19.01 -85.66 18.02 -86 17 C-86.99 16.67 -87.98 16.34 -89 16 C-90.1875 13.9375 -90.1875 13.9375 -91 12 C-93.31 12 -95.62 12 -98 12 C-98 11.34 -98 10.68 -98 10 C-98.66 10 -99.32 10 -100 10 Z " fill="#0083DF" transform="translate(418,516)"/>
<path d="M0 0 C0.33 0 0.66 0 1 0 C1 92.4 1 184.8 1 280 C16.18 280 31.36 280 47 280 C46.93863412 249.62083743 46.86661764 219.24176811 46.77101372 188.86269872 C46.75974529 185.27776955 46.74860688 181.69283998 46.73754883 178.10791016 C46.73534514 177.39420247 46.73314146 176.68049478 46.730871 175.94515958 C46.69547967 164.38249063 46.67062591 152.81982174 46.64965298 141.25711867 C46.62790552 129.39644578 46.5948652 117.53584329 46.55129844 105.67523026 C46.527147 99.0117272 46.50861944 92.34828858 46.50238609 85.68474579 C46.49635888 79.41719783 46.47644483 73.14984981 46.44572449 66.88237572 C46.43690626 64.57811303 46.43322945 62.27382425 46.43499184 59.96954536 C46.43663491 56.83092405 46.4200278 53.69291934 46.39872742 50.55438232 C46.40357499 49.63609705 46.40842257 48.71781177 46.41341704 47.77169967 C46.37939222 42.91916826 46.37939222 42.91916826 44.61179829 38.4809761 C42.85566932 36.86738397 41.1984833 35.90971723 39 35 C39 34.01 39 33.02 39 32 C37.35 31.67 35.7 31.34 34 31 C33.67 29.35 33.34 27.7 33 26 C32.278125 25.938125 31.55625 25.87625 30.8125 25.8125 C27.09410668 24.73829749 25.6236779 22.81565434 23 20 C21.94802606 19.13290267 20.88536773 18.27860747 19.8125 17.4375 C17.23155079 15.20067736 16.34155975 13.99271022 15 11 C14.01 10.34 13.02 9.68 12 9 C12 8.01 12 7.02 12 6 C10.35 5.67 8.7 5.34 7 5 C7 3.35 7 1.7 7 0 C20.53 0 34.06 0 48 0 C48 92.73 48 185.46 48 281 C32.16 281 16.32 281 0 281 C0 188.27 0 95.54 0 0 Z " fill="#17B83E" transform="translate(425,406)"/>
<path d="M0 0 C6.27312997 4.4087382 10.60742104 10.87265259 12.3125 18.375 C12.3125 20.025 12.3125 21.675 12.3125 23.375 C-8.1475 23.375 -28.6075 23.375 -49.6875 23.375 C-49.6875 14.12784162 -47.87694733 9.97821991 -41.7890625 3.2890625 C-29.83217779 -7.91165559 -13.63353729 -8.20748065 0 0 Z " fill="#EFEFEF" transform="translate(1365.6875,527.625)"/>
<path d="M0 0 C0.83418457 0.00805664 1.66836914 0.01611328 2.52783203 0.02441406 C9.17169657 0.23952651 14.17617655 1.62535842 19.625 5.5625 C20.635625 6.243125 21.64625 6.92375 22.6875 7.625 C24.71187684 9.64937684 25.32333707 10.7469793 25.625 13.5625 C26.285 13.5625 26.945 13.5625 27.625 13.5625 C28.30985921 14.73960176 28.97192828 15.92996945 29.625 17.125 C29.99625 17.78628906 30.3675 18.44757812 30.75 19.12890625 C31.625 21.5625 31.625 21.5625 31.625 28.5625 C10.835 28.5625 -9.955 28.5625 -31.375 28.5625 C-29.99922493 18.93207448 -27.18938003 12.46254958 -19.73046875 6.1328125 C-13.16735245 1.75740163 -7.93757201 -0.14399949 0 0 Z " fill="#F2F2F2" transform="translate(1631.375,522.4375)"/>
<path d="M0 0 C1.77206192 0.00015919 3.54412846 0.00585754 5.31616211 0.01586914 C6.24698105 0.01728409 7.17779999 0.01869904 8.13682556 0.02015686 C11.12241777 0.02577367 14.10793615 0.03832899 17.09350586 0.05102539 C19.11238499 0.05603823 21.13126529 0.06060151 23.15014648 0.06469727 C28.11048456 0.07489952 33.07066216 0.09447157 38.03100586 0.11352539 C38.03100586 13.31352539 38.03100586 26.51352539 38.03100586 40.11352539 C36.71100586 40.11352539 35.39100586 40.11352539 34.03100586 40.11352539 C34.03100586 39.12352539 34.03100586 38.13352539 34.03100586 37.11352539 C33.41225586 37.03102539 32.79350586 36.94852539 32.15600586 36.86352539 C29.35595167 35.87527097 29.28986654 34.70992554 28.03100586 32.11352539 C25.99741105 30.84547973 25.99741105 30.84547973 24.03100586 30.11352539 C24.03100586 29.45352539 24.03100586 28.79352539 24.03100586 28.11352539 C23.37100586 28.11352539 22.71100586 28.11352539 22.03100586 28.11352539 C21.70100586 26.79352539 21.37100586 25.47352539 21.03100586 24.11352539 C20.43288086 24.01040039 19.83475586 23.90727539 19.21850586 23.80102539 C16.718423 23.01528506 15.65565504 22.14433686 14.03100586 20.11352539 C14.03100586 19.45352539 14.03100586 18.79352539 14.03100586 18.11352539 C13.04100586 18.11352539 12.05100586 18.11352539 11.03100586 18.11352539 C11.03100586 17.45352539 11.03100586 16.79352539 11.03100586 16.11352539 C10.04100586 15.78352539 9.05100586 15.45352539 8.03100586 15.11352539 C8.03100586 14.12352539 8.03100586 13.13352539 8.03100586 12.11352539 C7.37100586 12.11352539 6.71100586 12.11352539 6.03100586 12.11352539 C6.03100586 11.45352539 6.03100586 10.79352539 6.03100586 10.11352539 C5.04100586 9.78352539 4.05100586 9.45352539 3.03100586 9.11352539 C3.03100586 8.45352539 3.03100586 7.79352539 3.03100586 7.11352539 C2.04100586 7.11352539 1.05100586 7.11352539 0.03100586 7.11352539 C0.03100586 6.12352539 0.03100586 5.13352539 0.03100586 4.11352539 C-0.62899414 4.11352539 -1.28899414 4.11352539 -1.96899414 4.11352539 C-1.96899414 3.45352539 -1.96899414 2.79352539 -1.96899414 2.11352539 C-2.95899414 1.78352539 -3.94899414 1.45352539 -4.96899414 1.11352539 C-3.96899414 0.11352539 -3.96899414 0.11352539 0 0 Z " fill="#EAAA02" transform="translate(223.968994140625,405.886474609375)"/>
<path d="M0 0 C0.33 0 0.66 0 1 0 C1 92.07 1 184.14 1 279 C15.85 279 30.7 279 46 279 C45.99476318 271.96945312 45.98952637 264.93890625 45.98413086 257.6953125 C45.96797696 235.03056018 45.95691344 212.36580708 45.94893467 189.70105058 C45.94768442 186.16251678 45.94639005 182.62398299 45.94506836 179.08544922 C45.94480605 178.38118471 45.94454374 177.67692019 45.94427348 176.95131433 C45.93995816 165.64574656 45.93209417 154.34018403 45.9228472 143.03461933 C45.91339417 131.37721858 45.90792017 119.71982051 45.90591151 108.06241608 C45.90462375 101.5386148 45.90166398 95.01482529 45.89426994 88.49102783 C45.86207672 58.97757541 46.04243523 29.49952353 47 0 C47.33 0 47.66 0 48 0 C48 92.73 48 185.46 48 281 C32.16 281 16.32 281 0 281 C0 188.27 0 95.54 0 0 Z " fill="#F1CA43" transform="translate(215,406)"/>
<path d="M0 0 C2.02054804 1.64169528 4.02043058 3.30911778 6 5 C6 5.33 6 5.66 6 6 C-25.68 6 -57.36 6 -90 6 C-90 7.65 -90 9.3 -90 11 C-88.35 11.33 -86.7 11.66 -85 12 C-84.67 13.32 -84.34 14.64 -84 16 C-85.32 16 -86.64 16 -88 16 C-88 15.01 -88 14.02 -88 13 C-88.99 12.67 -89.98 12.34 -91 12 C-91 11.34 -91 10.68 -91 10 C-92.32 10 -93.64 10 -95 10 C-94.67 100.42 -94.34 190.84 -94 284 C-79.81 284 -65.62 284 -51 284 C-51.05968525 253.9860064 -51.13336284 223.97208045 -51.22898628 193.9581802 C-51.24025483 190.41702609 -51.25139322 186.87587157 -51.26245117 183.3347168 C-51.26465486 182.62971864 -51.26685854 181.92472049 -51.269129 181.19835875 C-51.30452854 169.7740447 -51.32937765 158.34973071 -51.35034702 146.9253821 C-51.37208796 135.20822503 -51.40512203 123.49113931 -51.44870156 111.7740429 C-51.47269497 105.19049246 -51.49138359 98.60702118 -51.49761391 92.02342796 C-51.50363714 85.832214 -51.52353647 79.64120279 -51.55427551 73.45006371 C-51.56310021 71.17279464 -51.56676923 68.89549913 -51.56500816 66.61821365 C-51.56336741 63.5186503 -51.579952 60.41971392 -51.60127258 57.32023621 C-51.59642501 56.41071093 -51.59157743 55.50118566 -51.58658296 54.56409901 C-51.5960395 53.73604451 -51.60549604 52.90799001 -51.61523914 52.05484295 C-51.61713775 51.33907013 -51.61903635 50.6232973 -51.62099248 49.8858344 C-52.10667656 47.46920756 -53.22775129 46.64691435 -55 45 C-55 44.34 -55 43.68 -55 43 C-56.32 42.67 -57.64 42.34 -59 42 C-59.495 40.02 -59.495 40.02 -60 38 C-59.34 38 -58.68 38 -58 38 C-57.67 38.99 -57.34 39.98 -57 41 C-55.34467377 42.01866229 -53.67739862 43.01810813 -52 44 C-49.95681513 47.06477731 -49.75029412 47.65573368 -49.75390434 51.10169506 C-49.74992225 51.94019975 -49.74594015 52.77870444 -49.74183738 53.64261836 C-49.75057591 55.02441554 -49.75057591 55.02441554 -49.75949097 56.43412781 C-49.75778212 57.4126601 -49.75607327 58.39119238 -49.75431263 59.39937717 C-49.7510066 62.69300132 -49.7620398 65.98642377 -49.77294922 69.2800293 C-49.77351309 71.63512161 -49.77319724 73.99021428 -49.77206421 76.3453064 C-49.77148876 82.75197981 -49.78327409 89.15857882 -49.79721212 95.5652349 C-49.80937527 101.57831332 -49.81045679 107.59140062 -49.81251587 113.60448918 C-49.81689467 125.51571846 -49.83020877 137.42692036 -49.84912109 149.33813477 C-49.86747512 160.90974795 -49.88163396 172.48135371 -49.89013672 184.05297852 C-49.89092489 185.12263417 -49.89092489 185.12263417 -49.89172898 186.21389904 C-49.89433903 189.79128012 -49.89686645 193.36866125 -49.89935279 196.94604242 C-49.92009104 226.63071645 -49.95696389 256.31534813 -50 286 C-65.18 286 -80.36 286 -96 286 C-96 193.93 -96 101.86 -96 7 C-94.68 7.33 -93.36 7.66 -92 8 C-91.67 7.01 -91.34 6.02 -91 5 C-60.3288856 4.04699289 -29.68456662 3.87563398 1 4 C0.505 2.02 0.505 2.02 0 0 Z " fill="#10BA13" transform="translate(522,400)"/>
<path d="M0 0 C1.65 1.65 3.3 3.3 5 5 C-12.16 5 -29.32 5 -47 5 C-47 59.45 -47 113.9 -47 170 C-64.82 170 -82.64 170 -101 170 C-101.495 88.325 -101.495 88.325 -102 5 C-39.82298658 3.84857383 -39.82298658 3.84857383 -20.125 3.9375 C-18.01041784 3.94257055 -15.89583437 3.94712281 -13.78125 3.95117188 C-8.85413092 3.96163688 -3.92708284 3.97852619 1 4 C0.505 2.02 0.505 2.02 0 0 Z M-100 6 C-99.67 6.99 -99.34 7.98 -99 9 C-96.98491642 9.73323796 -96.98491642 9.73323796 -95 10 C-95 10.66 -95 11.32 -95 12 C-95.99 12 -96.98 12 -98 12 C-98 11.34 -98 10.68 -98 10 C-98.66 10 -99.32 10 -100 10 C-100 61.48 -100 112.96 -100 166 C-99.34 166 -98.68 166 -98 166 C-97.67 166.99 -97.34 167.98 -97 169 C-90.343173 169.07588693 -83.68645697 169.12853061 -77.02929688 169.16479492 C-74.76330395 169.17990804 -72.4973404 169.20039913 -70.23144531 169.22631836 C-66.97974411 169.26259062 -63.72842864 169.2797009 -60.4765625 169.29296875 C-59.45881744 169.30845261 -58.44107239 169.32393646 -57.39248657 169.33988953 C-55.98125015 169.34022942 -55.98125015 169.34022942 -54.54150391 169.34057617 C-53.71099518 169.34723801 -52.88048645 169.35389984 -52.02481079 169.36076355 C-51.35662323 169.24171158 -50.68843567 169.12265961 -50 169 C-47.63106505 165.44659757 -47.75075257 163.95744374 -47.75276184 159.74378967 C-47.74856735 158.43283829 -47.74437286 157.1218869 -47.74005127 155.77120972 C-47.74553491 154.3150017 -47.7512179 152.85879443 -47.75708008 151.40258789 C-47.75600734 149.87170836 -47.75406877 148.34082923 -47.75132751 146.80995178 C-47.74647433 142.64879655 -47.75414111 138.48774833 -47.76428056 134.32660604 C-47.77305541 129.97493563 -47.77130371 125.62326864 -47.7709198 121.27159119 C-47.77185683 113.96204841 -47.78054537 106.6525471 -47.79418945 99.34301758 C-47.8099095 90.8900619 -47.81518777 82.43715166 -47.8144539 73.98418242 C-47.81384359 65.85714401 -47.81894971 57.73012043 -47.82724571 49.60308647 C-47.8307777 46.14265261 -47.83260885 42.68222399 -47.83313942 39.22178841 C-47.83414378 35.14656727 -47.84024809 31.07138431 -47.85030556 26.99617577 C-47.85322714 25.49979003 -47.85445662 24.00339989 -47.85387802 22.50701141 C-47.85338741 20.4657348 -47.85966053 18.42445989 -47.86628723 16.38319397 C-47.86796308 15.24037995 -47.86963892 14.09756594 -47.87136555 12.92012119 C-47.9120885 9.786095 -47.9120885 9.786095 -49 6 C-65.83 6 -82.66 6 -100 6 Z " fill="#0C8FE9" transform="translate(418,516)"/>
<path d="M0 0 C0.33 0 0.66 0 1 0 C1 92.4 1 184.8 1 280 C0.67 280 0.34 280 0 280 C-0.12747925 245.03471264 -0.25488214 210.069425 -0.38218227 175.10413699 C-0.39720299 170.97844158 -0.41222435 166.85274618 -0.42724609 162.72705078 C-0.43023671 161.90568096 -0.43322732 161.08431114 -0.43630856 160.23805133 C-0.48476696 146.92940873 -0.53327673 133.62076632 -0.58180541 120.31212398 C-0.63157975 106.66155507 -0.68129906 93.01098595 -0.73096704 79.36041665 C-0.76162945 70.9337508 -0.79233504 62.50708512 -0.82309544 54.08041963 C-0.84416989 48.30605091 -0.86519101 42.53168199 -0.88616979 36.75731292 C-0.8982844 33.42322854 -0.91043079 30.08914429 -0.92262459 26.7550602 C-0.93582866 23.14373422 -0.94894388 19.53240793 -0.96203613 15.92108154 C-0.96592708 14.86272213 -0.96981803 13.80436271 -0.97382689 12.7139318 C-0.97905198 11.26508483 -0.97905198 11.26508483 -0.98438263 9.78696823 C-0.98742039 8.95310239 -0.99045815 8.11923654 -0.99358797 7.26010203 C-0.99950803 5.17340866 -1 3.08670177 -1 1 C-0.67 0.67 -0.34 0.34 0 0 Z " fill="#27B82A" transform="translate(472,406)"/>
<path d="M0 0 C0.66 0 1.32 0 2 0 C2.33 0.99 2.66 1.98 3 3 C4.65532623 4.01866229 6.32260138 5.01810813 8 6 C10.03790803 9.05686205 10.24972242 9.63773089 10.24609566 13.07046032 C10.25007775 13.90199822 10.25405985 14.73353611 10.25816262 15.59027213 C10.25233693 16.50368835 10.24651125 17.41710457 10.24050903 18.35820007 C10.24221788 19.32856526 10.24392673 20.29893044 10.24568737 21.29870063 C10.24899328 24.56468634 10.2379604 27.83046862 10.22705078 31.09643555 C10.22648691 33.43182368 10.22680276 35.76721217 10.22793579 38.1026001 C10.22851123 44.45555648 10.21672606 50.80843782 10.20278788 57.16137671 C10.1915754 63.1240767 10.18954319 69.0867737 10.18748413 75.0494828 C10.18310537 86.86088359 10.16979137 98.67225678 10.15087891 110.48364258 C10.13252479 121.95825055 10.11836599 133.43285102 10.10986328 144.9074707 C10.10933783 145.61460048 10.10881239 146.32173027 10.10827102 147.05028822 C10.10566097 150.59770116 10.10313355 154.14511415 10.10064721 157.69252717 C10.07990908 187.12836925 10.0445301 216.56418433 10 246 C9.67 246 9.34 246 9 246 C8.99761165 244.78648456 8.99522329 243.57296911 8.99276257 242.32268047 C8.93543755 213.53446159 8.86273189 184.74630913 8.77101372 155.9581802 C8.75974517 152.41702609 8.74860678 148.87587157 8.73754883 145.3347168 C8.73534514 144.62971864 8.73314146 143.92472049 8.730871 143.19835875 C8.69547146 131.7740447 8.67062235 120.34973071 8.64965298 108.9253821 C8.62791204 97.20822503 8.59487797 85.49113931 8.55129844 73.7740429 C8.52730503 67.19049246 8.50861641 60.60702118 8.50238609 54.02342796 C8.49636286 47.832214 8.47646353 41.64120279 8.44572449 35.45006371 C8.43689979 33.17279464 8.43323077 30.89549913 8.43499184 28.61821365 C8.43663259 25.5186503 8.420048 22.41971392 8.39872742 19.32023621 C8.40357499 18.41071093 8.40842257 17.50118566 8.41341704 16.56409901 C8.4039605 15.73604451 8.39450396 14.90799001 8.38476086 14.05484295 C8.38286225 13.33907013 8.38096365 12.6232973 8.37900752 11.8858344 C7.89332344 9.46920756 6.77224871 8.64691435 5 7 C5 6.34 5 5.68 5 5 C3.68 4.67 2.36 4.34 1 4 C0.67 2.68 0.34 1.36 0 0 Z " fill="#0DC50E" transform="translate(462,438)"/>
<path d="M0 0 C2.475 2.475 2.475 2.475 5 5 C-12.16 5 -29.32 5 -47 5 C-47 59.45 -47 113.9 -47 170 C-47.33 170 -47.66 170 -48 170 C-48.00423194 169.17816821 -48.00846388 168.35633642 -48.01282406 167.50960064 C-48.11604352 147.53010372 -48.22466816 127.5506426 -48.33933926 107.571208 C-48.39466198 97.90938216 -48.44814243 88.24755262 -48.49731445 78.58569336 C-48.54016792 70.16628537 -48.58644888 61.74690446 -48.63687855 53.32753831 C-48.6634701 48.86788014 -48.68832297 44.40822731 -48.70907402 39.94853783 C-48.72864768 35.75351071 -48.75279369 31.55853511 -48.78049088 27.363554 C-48.78985744 25.82160629 -48.79753414 24.27964727 -48.80341911 22.73768234 C-48.811687 20.63672564 -48.82596556 18.53589373 -48.84178162 16.4349823 C-48.84823417 15.25785266 -48.85468672 14.08072302 -48.8613348 12.86792278 C-48.87412378 9.92755684 -48.87412378 9.92755684 -50 7 C-49.34 6.01 -48.68 5.02 -48 4 C-45.89926147 3.63923645 -45.89926147 3.63923645 -43.27490234 3.65942383 C-42.29403656 3.65965042 -41.31317078 3.65987701 -40.30258179 3.66011047 C-39.24108917 3.67559433 -38.17959656 3.69107819 -37.0859375 3.70703125 C-36.00116119 3.71127609 -34.91638489 3.71552094 -33.79873657 3.71989441 C-30.32390833 3.736727 -26.84965382 3.77438811 -23.375 3.8125 C-21.02344586 3.82754089 -18.67188265 3.84123033 -16.3203125 3.85351562 C-10.54667827 3.88664546 -4.77338011 3.93689018 1 4 C0.505 2.02 0.505 2.02 0 0 Z " fill="#3392D3" transform="translate(418,516)"/>
<path d="M0 0 C0.495 0.99 0.495 0.99 1 2 C-1.36730297 6.82565605 -3.8952336 10.43533444 -8 14 C-8.66 14 -9.32 14 -10 14 C-10.21011719 14.87140625 -10.42023438 15.7428125 -10.63671875 16.640625 C-12.26586248 20.65513392 -14.62186484 22.96446362 -17.8125 25.75 C-18.33392578 26.23082031 -18.85535156 26.71164062 -19.39257812 27.20703125 C-22.45225463 29.94966263 -25.19339005 31.55050796 -29 33 C-30.36078035 35.52372901 -30.36078035 35.52372901 -31 38 C-31.66 38 -32.32 38 -33 38 C-33 38.66 -33 39.32 -33 40 C-18.81 40 -4.62 40 10 40 C10 40.33 10 40.66 10 41 C-5.84 41 -21.68 41 -38 41 C-33.60194506 35.13592675 -31.24123285 32.27855743 -26 28 C-24.18397759 25.96241495 -22.43460207 23.88567343 -20.7109375 21.76953125 C-18.91704086 19.9141998 -17.30812595 19.09562941 -15 18 C-14.29848848 16.6846659 -13.63474075 15.34882408 -13 14 C-11 11.75 -11 11.75 -9 10 C-8.34 10 -7.68 10 -7 10 C-6.773125 9.46375 -6.54625 8.9275 -6.3125 8.375 C-4.56617944 5.21499137 -2.3597151 2.7323017 0 0 Z " fill="#2196E6" transform="translate(305,480)"/>
<path d="M0 0 C2.64 0.33 5.28 0.66 8 1 C8.185625 1.928125 8.37125 2.85625 8.5625 3.8125 C10.49391176 8.09519563 12.79191887 8.24025698 17 10 C17.9375 12.6875 17.9375 12.6875 18 15 C18.66 15 19.32 15 20 15 C20 14.34 20 13.68 20 13 C23 14 23 14 24.0625 15.9609375 C24.371875 16.75757813 24.68125 17.55421875 25 18.375 C26.27375987 21.63370233 27.44927428 23.61842055 30 26 C30.7734375 27.299375 30.7734375 27.299375 31.5625 28.625 C32.77912906 31.11190375 32.77912906 31.11190375 35 32 C35 32.66 35 33.32 35 34 C36.175625 34.0928125 36.175625 34.0928125 37.375 34.1875 C40 35 40 35 41.3125 37.375 C42 40 42 40 42 43 C40.62437146 41.71034824 39.29233607 40.37310707 38 39 C38 38.34 38 37.68 38 37 C37.34 37 36.68 37 36 37 C36 36.34 36 35.68 36 35 C35.01 35 34.02 35 33 35 C31.38671875 33.49609375 31.38671875 33.49609375 29.6875 31.4375 C29.07519531 30.70660156 28.46289062 29.97570312 27.83203125 29.22265625 C26.92517578 28.12244141 26.92517578 28.12244141 26 27 C24.96072475 25.78960922 23.91922638 24.58112195 22.875 23.375 C21.43765835 21.70447261 20.02327863 20.02943663 18.65625 18.30078125 C16.28017291 15.2135344 16.28017291 15.2135344 13.07421875 13.1171875 C10.39712579 11.67528809 9.20199714 9.89674322 7.4375 7.4375 C4.93265713 3.80102586 4.93265713 3.80102586 1 2 C0.67 2.99 0.34 3.98 0 5 C-0.99 5.33 -1.98 5.66 -3 6 C-5.65229659 8.38706693 -7.7251986 10.51909754 -9.5 13.625 C-11.27574208 16.43659162 -13.07437795 17.49765354 -16 19 C-15.75 17.125 -15.75 17.125 -15 15 C-14.360625 14.690625 -13.72125 14.38125 -13.0625 14.0625 C-10.73547609 13.12720697 -10.73547609 13.12720697 -9.75 10.375 C-9.5025 9.59125 -9.255 8.8075 -9 8 C-8.01 8 -7.02 8 -6 8 C-5.62875 7.0409375 -5.62875 7.0409375 -5.25 6.0625 C-4 4 -4 4 -1.875 3.25 C-1.25625 3.1675 -0.6375 3.085 0 3 C0 2.01 0 1.02 0 0 Z " fill="#FAEDBD" transform="translate(236,323)"/>
<path d="M0 0 C2.02054804 1.64169528 4.02043058 3.30911778 6 5 C6 5.33 6 5.66 6 6 C-25.68 6 -57.36 6 -90 6 C-90 7.65 -90 9.3 -90 11 C-88.35 11.33 -86.7 11.66 -85 12 C-84.67 13.32 -84.34 14.64 -84 16 C-85.32 16 -86.64 16 -88 16 C-88 15.01 -88 14.02 -88 13 C-88.99 12.67 -89.98 12.34 -91 12 C-91 11.34 -91 10.68 -91 10 C-92.32 10 -93.64 10 -95 10 C-95 9.34 -95 8.68 -95 8 C-94.01 8 -93.02 8 -92 8 C-91.67 7.01 -91.34 6.02 -91 5 C-60.3288856 4.04699289 -29.68456662 3.87563398 1 4 C0.505 2.02 0.505 2.02 0 0 Z " fill="#04C912" transform="translate(522,400)"/>
<path d="M0 0 C0.76504349 -0.00095673 1.53008698 -0.00191345 2.3183136 -0.00289917 C3.92778608 -0.00357717 5.53726135 -0.00174949 7.14672852 0.00244141 C9.61545899 0.00781724 12.08400936 0.00247225 14.55273438 -0.00390625 C16.11848999 -0.00324583 17.68424548 -0.00196543 19.25 0 C19.98957443 -0.00202423 20.72914886 -0.00404846 21.49113464 -0.00613403 C26.69582842 0.01783608 26.69582842 0.01783608 28.92578125 1.1328125 C28.92578125 2.4528125 28.92578125 3.7728125 28.92578125 5.1328125 C27.93578125 5.4628125 26.94578125 5.7928125 25.92578125 6.1328125 C25.92578125 5.4728125 25.92578125 4.8128125 25.92578125 4.1328125 C24.81017822 4.13804932 23.6945752 4.14328613 22.54516602 4.14868164 C18.42098792 4.16673025 14.29681334 4.17824399 10.17260742 4.18774414 C8.38484104 4.19278468 6.5970788 4.19961704 4.80932617 4.20825195 C2.24526957 4.2203298 -0.31873272 4.22604344 -2.8828125 4.23046875 C-4.08906532 4.23821068 -4.08906532 4.23821068 -5.31968689 4.24610901 C-7.2382359 4.24630465 -9.15667243 4.19483233 -11.07421875 4.1328125 C-11.40421875 3.8028125 -11.73421875 3.4728125 -12.07421875 3.1328125 C-12.73421875 3.7928125 -13.39421875 4.4528125 -14.07421875 5.1328125 C-13.74421875 3.8128125 -13.41421875 2.4928125 -13.07421875 1.1328125 C-8.71367261 0.05828174 -4.46314406 -0.01231685 0 0 Z " fill="#D8D8D8" transform="translate(1537.07421875,489.8671875)"/>
<path d="M0 0 C0.33 0.66 0.66 1.32 1 2 C-0.26459474 5.44889474 -2.39894333 7.47776323 -5 10 C-5.7734375 11.11375 -5.7734375 11.11375 -6.5625 12.25 C-7.036875 12.8275 -7.51125 13.405 -8 14 C-8.99 14 -9.98 14 -11 14 C-11 14.99 -11 15.98 -11 17 C4.51 17 20.02 17 36 17 C36.495 17.99 36.495 17.99 37 19 C19.51 19 2.02 19 -16 19 C-14.34029454 15.68058909 -13.2009804 13.92103388 -10.7421875 11.328125 C-10.11699219 10.66425781 -9.49179687 10.00039063 -8.84765625 9.31640625 C-8.19667969 8.63449219 -7.54570312 7.95257813 -6.875 7.25 C-6.21628906 6.55261719 -5.55757813 5.85523438 -4.87890625 5.13671875 C-3.25672226 3.42049511 -1.63034621 1.70846565 0 0 Z " fill="#0ACB12" transform="translate(388,387)"/>
<path d="M0 0 C0 0.66 0 1.32 0 2 C-0.66 2 -1.32 2 -2 2 C-2 2.66 -2 3.32 -2 4 C-0.02 4 1.96 4 4 4 C4 4.33 4 4.66 4 5 C-8.87 5 -21.74 5 -35 5 C-35.33 5.66 -35.66 6.32 -36 7 C-36.33 5.02 -36.66 3.04 -37 1 C-32.05209374 0.85722082 -27.10417697 0.71481353 -22.15625 0.57275391 C-20.47232777 0.52435414 -18.78840848 0.47585197 -17.10449219 0.42724609 C-14.68685658 0.35747922 -12.26921072 0.28807821 -9.8515625 0.21875 C-9.0963028 0.19687622 -8.34104309 0.17500244 -7.56289673 0.15246582 C-2.22774341 0 -2.22774341 0 0 0 Z " fill="#D3D3D3" transform="translate(1450,489)"/>
<path d="M0 0 C1.485 0.495 1.485 0.495 3 1 C3 1.99 3 2.98 3 4 C3.66 4 4.32 4 5 4 C5 4.66 5 5.32 5 6 C-6.88 6 -18.76 6 -31 6 C-31 5.67 -31 5.34 -31 5 C-30.195625 4.87625 -29.39125 4.7525 -28.5625 4.625 C-27.716875 4.41875 -26.87125 4.2125 -26 4 C-25.67 3.34 -25.34 2.68 -25 2 C-24.27820557 1.97494385 -23.55641113 1.9498877 -22.81274414 1.92407227 C-19.562465 1.80848698 -16.31250312 1.68559226 -13.0625 1.5625 C-11.92619141 1.52318359 -10.78988281 1.48386719 -9.61914062 1.44335938 C-7.99975586 1.38051758 -7.99975586 1.38051758 -6.34765625 1.31640625 C-5.34742432 1.27974854 -4.34719238 1.24309082 -3.31665039 1.20532227 C-1.03930812 1.25328159 -1.03930812 1.25328159 0 0 Z " fill="#D2D2D2" transform="translate(944,488)"/>
<path d="M0 0 C0.33 0.99 0.66 1.98 1 3 C-3.20279857 7.3403447 -7.71586741 11.01453793 -12.4765625 14.71875 C-14.98814611 16.98928379 -16.34907079 19.07835557 -18 22 C-18.66 22.33 -19.32 22.66 -20 23 C-20.33 23.99 -20.66 24.98 -21 26 C-4.83 26 11.34 26 28 26 C28 26.33 28 26.66 28 27 C10.18 27 -7.64 27 -26 27 C-26 25 -26 25 -24.125 22.875 C-22 21 -22 21 -20 21 C-20 20.34 -20 19.68 -20 19 C-19.34 19 -18.68 19 -18 19 C-17.773125 18.4225 -17.54625 17.845 -17.3125 17.25 C-15.6591307 14.41565264 -13.57036056 13.03237811 -11 11 C-10.195625 10.030625 -9.39125 9.06125 -8.5625 8.0625 C-5.90345426 4.88461607 -3.23690758 2.5594153 0 0 Z " fill="#EED04A" transform="translate(186,379)"/>
<path d="M0 0 C2.475 2.475 2.475 2.475 5 5 C-12.16 5 -29.32 5 -47 5 C-47 20.18 -47 35.36 -47 51 C-47.33 51 -47.66 51 -48 51 C-48.02505615 49.77369873 -48.0501123 48.54739746 -48.07592773 47.28393555 C-48.17003054 42.7384173 -48.27024433 38.19305083 -48.37231445 33.64770508 C-48.41565241 31.67964221 -48.45732832 29.71154202 -48.49731445 27.7434082 C-48.55504445 24.9160639 -48.61873116 22.08890729 -48.68359375 19.26171875 C-48.70030624 18.38037766 -48.71701874 17.49903656 -48.73423767 16.59098816 C-48.75418289 15.77036392 -48.77412811 14.94973969 -48.79467773 14.10424805 C-48.81022202 13.38254929 -48.8257663 12.66085052 -48.84178162 11.9172821 C-48.94195257 9.77891856 -48.94195257 9.77891856 -50 7 C-49.34 6.01 -48.68 5.02 -48 4 C-45.89926147 3.63923645 -45.89926147 3.63923645 -43.27490234 3.65942383 C-42.29403656 3.65965042 -41.31317078 3.65987701 -40.30258179 3.66011047 C-39.24108917 3.67559433 -38.17959656 3.69107819 -37.0859375 3.70703125 C-36.00116119 3.71127609 -34.91638489 3.71552094 -33.79873657 3.71989441 C-30.32390833 3.736727 -26.84965382 3.77438811 -23.375 3.8125 C-21.02344586 3.82754089 -18.67188265 3.84123033 -16.3203125 3.85351562 C-10.54667827 3.88664546 -4.77338011 3.93689018 1 4 C0.505 2.02 0.505 2.02 0 0 Z " fill="#1E8ED9" transform="translate(418,516)"/>
<path d="M0 0 C0.66 0 1.32 0 2 0 C1.45156876 3.83901868 -0.2765265 5.36163505 -3 8 C-3.33 8.99 -3.66 9.98 -4 11 C11.84 11 27.68 11 44 11 C44 12.65 44 14.3 44 16 C43.505 14.02 43.505 14.02 43 12 C26.83 12.33 10.66 12.66 -6 13 C-6 10.69 -6 8.38 -6 6 C-5.34 6 -4.68 6 -4 6 C-3.67 5.01 -3.34 4.02 -3 3 C-2.01 3 -1.02 3 0 3 C0 2.01 0 1.02 0 0 Z " fill="#EEF6FB" transform="translate(271,512)"/>
<path d="M0 0 C0.99 0 1.98 0 3 0 C3.2475 0.61875 3.495 1.2375 3.75 1.875 C5.20628639 4.35068687 6.37812506 4.95125002 9 6 C9 6.99 9 7.98 9 9 C10.65 8.67 12.3 8.34 14 8 C14 8.66 14 9.32 14 10 C14.66 10 15.32 10 16 10 C16 11.32 16 12.64 16 14 C17.65 14.66 19.3 15.32 21 16 C21 16.99 21 17.98 21 19 C21.99 19.33 22.98 19.66 24 20 C24 20.66 24 21.32 24 22 C22.35 21.67 20.7 21.34 19 21 C18.505 18.525 18.505 18.525 18 16 C16.9171875 15.9071875 16.9171875 15.9071875 15.8125 15.8125 C12.09410668 14.73829749 10.6236779 12.81565434 8 10 C6.94659941 9.15519358 5.88395115 8.32179263 4.8125 7.5 C2.01912932 5.01700384 1.00994308 3.53480077 0 0 Z " fill="#00BD23" transform="translate(440,416)"/>
<path d="M0 0 C2 2 2 2 2 9 C-16.15 9 -34.3 9 -53 9 C-53 8.67 -53 8.34 -53 8 C-36.5 8 -20 8 -3 8 C-1.84188612 5.05270463 -1.84188612 5.05270463 -2 2 C-1.34 2.33 -0.68 2.66 0 3 C0 2.01 0 1.02 0 0 Z " fill="#EDEDED" transform="translate(1661,542)"/>
<path d="M0 0 C0.66 0.33 1.32 0.66 2 1 C1.42032471 1.57443848 0.84064941 2.14887695 0.2434082 2.74072266 C-2.40290094 5.3661364 -5.04522577 7.99552572 -7.6875 10.625 C-8.59951172 11.52863281 -9.51152344 12.43226563 -10.45117188 13.36328125 C-14.85875243 17.75483424 -19.14414522 22.11321141 -23 27 C-23.6875 25.1875 -23.6875 25.1875 -24 23 C-22.6875 21.25 -22.6875 21.25 -21 20 C-20.34 20 -19.68 20 -19 20 C-18.67 19.01 -18.34 18.02 -18 17 C-17.34 16.67 -16.68 16.34 -16 16 C-15.67 15.01 -15.34 14.02 -15 13 C-13.625 11.3125 -13.625 11.3125 -12 10 C-11.01 10 -10.02 10 -9 10 C-8.67 8.68 -8.34 7.36 -8 6 C-7.01 6 -6.02 6 -5 6 C-4.9175 5.38125 -4.835 4.7625 -4.75 4.125 C-4 2 -4 2 -2.0625 0.6875 C-1.381875 0.460625 -0.70125 0.23375 0 0 Z " fill="#DAFCD7" transform="translate(399,374)"/>
<path d="M0 0 C0.66 0.99 1.32 1.98 2 3 C5.54518884 1.60240095 5.54518884 1.60240095 9 0 C8.34 1.32 7.68 2.64 7 4 C6.34 4 5.68 4 5 4 C4.7525 4.5775 4.505 5.155 4.25 5.75 C2.81700012 8.32939979 1.21575324 10.06121592 -1 12 C-1.66 12 -2.32 12 -3 12 C-3.66 13.32 -4.32 14.64 -5 16 C-5.66 16 -6.32 16 -7 16 C-7 14.68 -7 13.36 -7 12 C-6.01 12 -5.02 12 -4 12 C-4.33 10.68 -4.66 9.36 -5 8 C-3.68 8 -2.36 8 -1 8 C-1 7.34 -1 6.68 -1 6 C-1.66 6 -2.32 6 -3 6 C-1.125 1.125 -1.125 1.125 0 0 Z " fill="#F7F2E1" transform="translate(187,368)"/>
<path d="M0 0 C0.99 0 1.98 0 3 0 C3 0.99 3 1.98 3 3 C2.34 3 1.68 3 1 3 C1.99 4.485 1.99 4.485 3 6 C4.32 6 5.64 6 7 6 C7 6.66 7 7.32 7 8 C4.1875 8.6875 4.1875 8.6875 1 9 C-0.625 7.5 -0.625 7.5 -2 6 C-5.39702566 6.39416964 -7.25641729 7.80868486 -9.75 10.0625 C-10.36359375 10.61035156 -10.9771875 11.15820312 -11.609375 11.72265625 C-12.06828125 12.14417969 -12.5271875 12.56570313 -13 13 C-13 11.35 -13 9.7 -13 8 C-11.68 8 -10.36 8 -9 8 C-8.8453125 7.071875 -8.8453125 7.071875 -8.6875 6.125 C-8 4 -8 4 -5 2 C-3.68 2 -2.36 2 -1 2 C-0.67 1.34 -0.34 0.68 0 0 Z " fill="#F0F7FB" transform="translate(349,435)"/>
<path d="M0 0 C0.33 1.32 0.66 2.64 1 4 C0.52949219 4.37511719 0.05898438 4.75023437 -0.42578125 5.13671875 C-4.11788882 8.17143243 -6.64401977 10.78403538 -9 15 C-9.66 15 -10.32 15 -11 15 C-11 15.66 -11 16.32 -11 17 C-11.66 17 -12.32 17 -13 17 C-13 17.66 -13 18.32 -13 19 C-13.61875 19.268125 -14.2375 19.53625 -14.875 19.8125 C-17.2995233 20.95556848 -17.2995233 20.95556848 -19 24 C-19.99 23.67 -20.98 23.34 -22 23 C-21.34773438 22.35933594 -20.69546875 21.71867187 -20.0234375 21.05859375 C-14.05479334 15.1585676 -14.05479334 15.1585676 -8.5 8.875 C-7.675 7.92625 -6.85 6.9775 -6 6 C-5.34 6 -4.68 6 -4 6 C-3.566875 5.071875 -3.566875 5.071875 -3.125 4.125 C-2 2 -2 2 0 0 Z " fill="#279BE7" transform="translate(331,453)"/>
<path d="M0 0 C3.27344435 1.63672217 4.90973729 4.17035146 7.125 7.0625 C6.135 7.5575 6.135 7.5575 5.125 8.0625 C5.125 7.4025 5.125 6.7425 5.125 6.0625 C3.145 6.7225 1.165 7.3825 -0.875 8.0625 C-1.535 7.4025 -2.195 6.7425 -2.875 6.0625 C-3.865 6.3925 -4.855 6.7225 -5.875 7.0625 C-5.875 7.7225 -5.875 8.3825 -5.875 9.0625 C-7.525 9.3925 -9.175 9.7225 -10.875 10.0625 C-9.93909496 8.9569811 -9.00120142 7.85314547 -8.0625 6.75 C-7.54042969 6.13511719 -7.01835937 5.52023437 -6.48046875 4.88671875 C-2.24561549 0.07485385 -2.24561549 0.07485385 0 0 Z " fill="#1297F1" transform="translate(345.875,439.9375)"/>
<path d="M0 0 C0.99 1.32 1.98 2.64 3 4 C2.34 4 1.68 4 1 4 C1 4.66 1 5.32 1 6 C1.66 6 2.32 6 3 6 C3.226875 6.598125 3.45375 7.19625 3.6875 7.8125 C4.8837149 10.22350467 4.8837149 10.22350467 7.625 11.4375 C8.800625 12.2109375 8.800625 12.2109375 10 13 C10.3125 15.6875 10.3125 15.6875 10 18 C4.33870569 13.30233025 -0.85228904 8.25276628 -6 3 C-5.34 2.67 -4.68 2.34 -4 2 C-3.01 2.33 -2.02 2.66 -1 3 C-0.67 2.01 -0.34 1.02 0 0 Z " fill="#D8F8D5" transform="translate(492,360)"/>
<path d="M0 0 C0.6015625 1.8125 0.6015625 1.8125 1 4 C-1.32690029 8.29581593 -3.9721662 11.24411372 -8 14 C-8.66 14 -9.32 14 -10 14 C-10.33 14.99 -10.66 15.98 -11 17 C-11.99 17 -12.98 17 -14 17 C-14 17.66 -14 18.32 -14 19 C-14.66 18.67 -15.32 18.34 -16 18 C-15.401875 17.443125 -14.80375 16.88625 -14.1875 16.3125 C-11.95445238 14.13314628 -11.95445238 14.13314628 -10.65625 11.65625 C-8.83260277 8.73153275 -6.78185994 6.58528429 -4.3125 4.1875 C-3.50425781 3.39730469 -2.69601563 2.60710937 -1.86328125 1.79296875 C-1.24839844 1.20128906 -0.63351563 0.60960937 0 0 Z " fill="#F5C92A" transform="translate(207,356)"/>
<path d="M0 0 C2.02054804 1.64169528 4.02043058 3.30911778 6 5 C6 5.33 6 5.66 6 6 C-11.82 6 -29.64 6 -48 6 C-48 5.67 -48 5.34 -48 5 C-31.83 5 -15.66 5 1 5 C0.505 2.525 0.505 2.525 0 0 Z " fill="#23BE2E" transform="translate(522,400)"/>
<path d="M0 0 C0.86625 0.33064453 0.86625 0.33064453 1.75 0.66796875 C0.986875 1.36921875 0.22375 2.07046875 -0.5625 2.79296875 C-3.21590478 5.63149479 -4.69000743 8.13745926 -6.25 11.66796875 C-8.89 11.00796875 -11.53 10.34796875 -14.25 9.66796875 C-11.77424786 6.98590393 -9.09519596 4.63268716 -6.25 2.35546875 C-5.59 1.82308594 -4.93 1.29070313 -4.25 0.7421875 C-2.25 -0.33203125 -2.25 -0.33203125 0 0 Z " fill="#EDEDED" transform="translate(1403.25,618.33203125)"/>
<path d="M0 0 C1.67542976 0.28604898 3.34385343 0.61781233 5 1 C3.57214933 2.66582578 2.14407884 4.33145523 0.71484375 5.99609375 C-0.38064535 7.27624389 -1.47220121 8.55977737 -2.55859375 9.84765625 C-10.525 19.2625 -10.525 19.2625 -14 21 C-14 19.68 -14 18.36 -14 17 C-13.34 17 -12.68 17 -12 17 C-11.67 16.01 -11.34 15.02 -11 14 C-10.01 14 -9.02 14 -8 14 C-7.9175 13.38125 -7.835 12.7625 -7.75 12.125 C-7.5025 11.42375 -7.255 10.7225 -7 10 C-6.0409375 9.5978125 -6.0409375 9.5978125 -5.0625 9.1875 C-2.58304249 8.06401422 -2.58304249 8.06401422 -1.8125 4.4375 C-1.544375 3.303125 -1.27625 2.16875 -1 1 C-0.67 0.67 -0.34 0.34 0 0 Z " fill="#D8FCDA" transform="translate(430,337)"/>
<path d="M0 0 C0.66 0.33 1.32 0.66 2 1 C2 1.66 2 2.32 2 3 C18.17 3 34.34 3 51 3 C51 3.33 51 3.66 51 4 C33.51 4 16.02 4 -2 4 C-1.34 2.68 -0.68 1.36 0 0 Z " fill="#27BC2D" transform="translate(374,402)"/>
<path d="M0 0 C-1.36983503 3.16115776 -1.9890638 3.9927092 -5 6 C-5 7.32 -5 8.64 -5 10 C-6.65 9.67 -8.3 9.34 -10 9 C-10 8.34 -10 7.68 -10 7 C-12.64 6.67 -15.28 6.34 -18 6 C-18 5.67 -18 5.34 -18 5 C-17.01257813 4.72285156 -16.02515625 4.44570313 -15.0078125 4.16015625 C-13.71351203 3.79437568 -12.41924281 3.42848451 -11.125 3.0625 C-10.47402344 2.88009766 -9.82304688 2.69769531 -9.15234375 2.50976562 C-0.29971591 0 -0.29971591 0 0 0 Z " fill="#EDEDED" transform="translate(898,621)"/>
<path d="M0 0 C1.32 0 2.64 0 4 0 C3.25 7.75 3.25 7.75 1 10 C-1.625 10.125 -1.625 10.125 -4 10 C-4 5.75354935 -2.18249194 3.61475228 0 0 Z " fill="#0998F6" transform="translate(308,477)"/>
<path d="M0 0 C0.99 0.66 1.98 1.32 3 2 C3 3.32 3 4.64 3 6 C2.34 6 1.68 6 1 6 C1.33 6.66 1.66 7.32 2 8 C2.66 7.67 3.32 7.34 4 7 C4 8.66666667 4 10.33333333 4 12 C1.69 12 -0.62 12 -3 12 C-2.49202991 7.6822542 -1.80317221 3.96697886 0 0 Z " fill="#E1E1E1" transform="translate(1603,539)"/>
<path d="M0 0 C0.66 0.33 1.32 0.66 2 1 C1.34 2.32 0.68 3.64 0 5 C-0.66 5 -1.32 5 -2 5 C-2.26554688 5.58265625 -2.53109375 6.1653125 -2.8046875 6.765625 C-4.03302996 9.06174228 -5.40314939 10.80356018 -7.125 12.75 C-7.93324219 13.67039062 -7.93324219 13.67039062 -8.7578125 14.609375 C-9.37269531 15.29773438 -9.37269531 15.29773438 -10 16 C-11.32 15.67 -12.64 15.34 -14 15 C-13.34 14.01 -12.68 13.02 -12 12 C-11.34 12 -10.68 12 -10 12 C-9.34 10.68 -8.68 9.36 -8 8 C-7.34 8 -6.68 8 -6 8 C-5.34 6.68 -4.68 5.36 -4 4 C-3.34 4 -2.68 4 -2 4 C-1.34 2.68 -0.68 1.36 0 0 Z " fill="#F4CC40" transform="translate(222,340)"/>
<path d="M0 0 C0.99 0 1.98 0 3 0 C3 14.52 3 29.04 3 44 C2.67 44 2.34 44 2 44 C1.97494385 42.77369873 1.9498877 41.54739746 1.92407227 40.28393555 C1.82996946 35.7384173 1.72975567 31.19305083 1.62768555 26.64770508 C1.58434759 24.67964221 1.54267168 22.71154202 1.50268555 20.7434082 C1.44495555 17.9160639 1.38126884 15.08890729 1.31640625 12.26171875 C1.29969376 11.38037766 1.28298126 10.49903656 1.26576233 9.59098816 C1.24581711 8.77036392 1.22587189 7.94973969 1.20532227 7.10424805 C1.18977798 6.38254929 1.1742337 5.66085052 1.15821838 4.9172821 C1.05804743 2.77891856 1.05804743 2.77891856 0 0 Z " fill="#2782BE" transform="translate(368,523)"/>
<path d="M0 0 C0.43570312 0.37511719 0.87140625 0.75023437 1.3203125 1.13671875 C1.91585938 1.64847656 2.51140625 2.16023438 3.125 2.6875 C4.07439453 3.50541016 4.07439453 3.50541016 5.04296875 4.33984375 C6.81640213 5.8442533 8.62132079 7.29792354 10.4375 8.75 C11.283125 9.4925 12.12875 10.235 13 11 C13 11.66 13 12.32 13 13 C13.78375 13.061875 14.5675 13.12375 15.375 13.1875 C18 14 18 14 19.3125 16.375 C20 19 20 19 20 22 C18.62437146 20.71034824 17.29233607 19.37310707 16 18 C16 17.34 16 16.68 16 16 C15.34 16 14.68 16 14 16 C14 15.34 14 14.68 14 14 C13.01 14 12.02 14 11 14 C9.31640625 12.390625 9.31640625 12.390625 7.5625 10.25 C5.62057853 7.92133993 3.73763265 5.74436002 1.5625 3.625 C0 2 0 2 0 0 Z " fill="#F6DA6F" transform="translate(258,344)"/>
<path d="M0 0 C0.33 0.66 0.66 1.32 1 2 C1.66 2.33 2.32 2.66 3 3 C2.40975852 4.65087847 1.80233994 6.29562407 1.1875 7.9375 C0.68283203 9.31228516 0.68283203 9.31228516 0.16796875 10.71484375 C-1 13 -1 13 -4 14 C-4.5625 12.0625 -4.5625 12.0625 -5 10 C-4.67 9.67 -4.34 9.34 -4 9 C-4 7.68 -4 6.36 -4 5 C-3.34 5 -2.68 5 -2 5 C-1.34 3.35 -0.68 1.7 0 0 Z " fill="#EBEBEB" transform="translate(1566,528)"/>
<path d="M0 0 C0.33 0 0.66 0 1 0 C1 13.86 1 27.72 1 42 C0.67 42 0.34 42 0 42 C-0.1431099 36.80389251 -0.28550675 31.60776615 -0.42724609 26.41162109 C-0.47555309 24.64436313 -0.5240541 22.87711046 -0.57275391 21.10986328 C-0.64276457 18.56804757 -0.71207493 16.02621357 -0.78125 13.484375 C-0.80312378 12.69569031 -0.82499756 11.90700562 -0.84753418 11.09442139 C-0.93856577 7.72762627 -1 4.3683456 -1 1 C-0.67 0.67 -0.34 0.34 0 0 Z " fill="#20A54B" transform="translate(472,406)"/>
<path d="M0 0 C0.66 0 1.32 0 2 0 C2 4.29 2 8.58 2 13 C1.67 13 1.34 13 1 13 C0.9175 12.21625 0.835 11.4325 0.75 10.625 C0.27193661 7.85250896 0.27193661 7.85250896 -2.0625 6.6875 C-2.701875 6.460625 -3.34125 6.23375 -4 6 C-4.33 6.99 -4.66 7.98 -5 9 C-5.99 8.67 -6.98 8.34 -8 8 C-6.37660195 6.29115995 -4.70680947 4.62553283 -3 3 C-2.34 3 -1.68 3 -1 3 C-0.67 2.01 -0.34 1.02 0 0 Z M-3 8 C-2.01 8.495 -2.01 8.495 -1 9 C-1.99 9.495 -1.99 9.495 -3 10 C-3 9.34 -3 8.68 -3 8 Z " fill="#D4D4D4" transform="translate(909,611)"/>
<path d="M0 0 C0.99 0.33 1.98 0.66 3 1 C-0.94291645 6.8845041 -5.1154959 11.05708355 -11 15 C-11 13.68 -11 12.36 -11 11 C-10.071875 10.87625 -10.071875 10.87625 -9.125 10.75 C-6.84957521 10.20076457 -6.84957521 10.20076457 -5.875 8.125 C-5.58625 7.42375 -5.2975 6.7225 -5 6 C-4.34 5.01 -3.68 4.02 -3 3 C-2.34 3 -1.68 3 -1 3 C-0.67 2.01 -0.34 1.02 0 0 Z " fill="#C8EFFE" transform="translate(301,481)"/>
<path d="M0 0 C0.33 0.66 0.66 1.32 1 2 C-0.26459474 5.44889474 -2.39894333 7.47776323 -5 10 C-5.474375 10.721875 -5.94875 11.44375 -6.4375 12.1875 C-8.45397285 14.5266085 -9.99417492 14.67504594 -13 15 C-9.09489511 9.49280079 -4.90282356 4.64172645 0 0 Z " fill="#24C426" transform="translate(388,387)"/>
<path d="M0 0 C0.33 0.99 0.66 1.98 1 3 C1.66 3.33 2.32 3.66 3 4 C2.67 4.66 2.34 5.32 2 6 C1.01 5.34 0.02 4.68 -1 4 C-1 3.01 -1 2.02 -1 1 C-1.99 1 -2.98 1 -4 1 C-4.226875 1.556875 -4.45375 2.11375 -4.6875 2.6875 C-6.68085165 6.19959577 -9.36119749 9.18059875 -13 11 C-12.67 9.68 -12.34 8.36 -12 7 C-11.34 7 -10.68 7 -10 7 C-9.71125 5.865625 -9.4225 4.73125 -9.125 3.5625 C-8.75375 2.386875 -8.3825 1.21125 -8 0 C-5.13822943 -1.43088528 -3.06624227 -0.59991697 0 0 Z " fill="#D3F9CF" transform="translate(452,323)"/>
<path d="M0 0 C0.66 0.33 1.32 0.66 2 1 C-0.68190259 6.26065508 -3.08479112 9.65347481 -8 13 C-8.99 12.67 -9.98 12.34 -11 12 C-7.37 8.04 -3.74 4.08 0 0 Z " fill="#1DC51C" transform="translate(405,369)"/>
<path d="M0 0 C0.66 0.33 1.32 0.66 2 1 C0.25406749 4.07616681 -1.39811034 6.60626151 -4 9 C-4.66 9.70125 -5.32 10.4025 -6 11.125 C-8 13 -8 13 -11 14 C-9.61085525 9.70281047 -7.61968015 7.29312243 -4.375 4.1875 C-3.55773437 3.39730469 -2.74046875 2.60710938 -1.8984375 1.79296875 C-0.95871094 0.90544922 -0.95871094 0.90544922 0 0 Z " fill="#DCDCDC" transform="translate(857,530)"/>
<path d="M0 0 C1.67542976 0.28604898 3.34385343 0.61781233 5 1 C3.50164772 5.66154042 0.11536409 6.86610751 -4 9 C-4.66 8.34 -5.32 7.68 -6 7 C-5.34 7 -4.68 7 -4 7 C-4 6.34 -4 5.68 -4 5 C-3.34 5 -2.68 5 -2 5 C-1.855625 4.360625 -1.71125 3.72125 -1.5625 3.0625 C-1 1 -1 1 0 0 Z " fill="#E7E7E7" transform="translate(1589,499)"/>
<path d="M0 0 C5 5 10 10 15 15 C11.04119531 15 9.92844812 13.5623921 7 11 C6.484375 10.46375 5.96875 9.9275 5.4375 9.375 C3.77453673 7.78433948 2.08968466 6.93675519 0 6 C0 4.02 0 2.04 0 0 Z " fill="#2B94DE" transform="translate(369,464)"/>
<path d="M0 0 C5.7858359 3.24571282 9.14729638 7.6654873 13 13 C12.01 13.495 12.01 13.495 11 14 C11 13.34 11 12.68 11 12 C9.68 12 8.36 12 7 12 C6.896875 11.38125 6.79375 10.7625 6.6875 10.125 C6.12474627 7.63473516 6.12474627 7.63473516 3 6 C3 5.34 3 4.68 3 4 C2.01 4.33 1.02 4.66 0 5 C0 3.35 0 1.7 0 0 Z " fill="#2AC22C" transform="translate(508,386)"/>
<path d="M0 0 C0.33 0.66 0.66 1.32 1 2 C-1.68058098 5.57410797 -4.42589203 8.31941902 -8 11 C-8.66 10.67 -9.32 10.34 -10 10 C-7.43634612 5.38542302 -5.14630856 1.71543619 0 0 Z " fill="#F4CC3B" transform="translate(236,327)"/>
<path d="M0 0 C2.94956528 1.36944102 5.52468811 2.87830409 8 5 C8 5.66 8 6.32 8 7 C8.639375 7.2475 9.27875 7.495 9.9375 7.75 C12 9 12 9 12.75 11.125 C12.87375 12.053125 12.87375 12.053125 13 13 C9.63820226 11.55922954 7.40843732 9.75249979 5 7 C5 6.34 5 5.68 5 5 C4.01 4.67 3.02 4.34 2 4 C0.8125 1.9375 0.8125 1.9375 0 0 Z " fill="#C3ECFC" transform="translate(411,507)"/>
<path d="M0 0 C0.33 0.99 0.66 1.98 1 3 C-3.12324647 7.25209792 -7.51282966 11.13635705 -12 15 C-12 10.39852874 -9.10228152 8.19311408 -6 5 C-4.05341967 3.24193983 -2.06456557 1.62215867 0 0 Z " fill="#EEC82E" transform="translate(186,379)"/>
<path d="M0 0 C2 4 2 4 2 6 C2.99 6 3.98 6 5 6 C4.34 7.98 3.68 9.96 3 12 C1.02 12 -0.96 12 -3 12 C-2.01 8.04 -1.02 4.08 0 0 Z " fill="#D5D5D5" transform="translate(946,636)"/>
<path d="M0 0 C1.0828125 1.11375 1.0828125 1.11375 2.1875 2.25 C4.84792867 4.97077079 4.84792867 4.97077079 7.5 6.875 C10.68861921 9.58532633 12.66563032 12.53179362 15 16 C11.45566346 14.58226538 10.66193881 13.32387762 9 10 C7.16715557 8.87483915 7.16715557 8.87483915 5 8 C2.25 6.6875 2.25 6.6875 0 5 C-0.3125 2.3125 -0.3125 2.3125 0 0 Z " fill="#2695E3" transform="translate(384,480)"/>
<path d="M0 0 C2.475 0.495 2.475 0.495 5 1 C5 1.99 5 2.98 5 4 C5.99 4.33 6.98 4.66 8 5 C8 5.66 8 6.32 8 7 C9.32 7.66 10.64 8.32 12 9 C11.67 10.32 11.34 11.64 11 13 C9.16365966 11.02354928 7.33083938 9.044035 5.5 7.0625 C4.71302734 6.21655273 4.71302734 6.21655273 3.91015625 5.35351562 C0 1.11328125 0 1.11328125 0 0 Z " fill="#C8F1FF" transform="translate(357,451)"/>
<path d="M0 0 C0.99 0 1.98 0 3 0 C3.33 0.99 3.66 1.98 4 3 C4.99 3.33 5.98 3.66 7 4 C7 4.99 7 5.98 7 7 C7.639375 7.2475 8.27875 7.495 8.9375 7.75 C11 9 11 9 11.75 11.125 C11.87375 12.053125 11.87375 12.053125 12 13 C6.88899452 10.52193674 3.32925974 6.51896639 0 2 C0 1.34 0 0.68 0 0 Z " fill="#FDEDB8" transform="translate(290,376)"/>
<path d="M0 0 C4.52615993 3.67832017 8.39424999 7.41086363 12 12 C11.01 12.33 10.02 12.66 9 13 C5.78590766 11.14946199 4.50563653 9.31240036 3 6 C2.195625 4.948125 2.195625 4.948125 1.375 3.875 C0 2 0 2 0 0 Z " fill="#2DC630" transform="translate(470,346)"/>
<path d="M0 0 C1.20142955 4.11787686 1.08221825 7.85969532 0 12 C-1.9375 15 -1.9375 15 -4 17 C-4.66 17 -5.32 17 -6 17 C-4.13236819 11.27789404 -2.14710968 5.62338249 0 0 Z " fill="#D4D4D4" transform="translate(1516,613)"/>
<path d="M0 0 C2.00720923 0.28674418 4.0085944 0.61866701 6 1 C5.67 1.66 5.34 2.32 5 3 C4.09507812 3.21462891 4.09507812 3.21462891 3.171875 3.43359375 C0.53709303 4.12072214 -0.74178529 5.24738285 -2.75 7.0625 C-3.36359375 7.61035156 -3.9771875 8.15820312 -4.609375 8.72265625 C-5.06828125 9.14417969 -5.5271875 9.56570313 -6 10 C-6 8.35 -6 6.7 -6 5 C-4.68 5 -3.36 5 -2 5 C-1.855625 4.360625 -1.71125 3.72125 -1.5625 3.0625 C-1 1 -1 1 0 0 Z " fill="#C8ECFD" transform="translate(342,438)"/>
<path d="M0 0 C0.66 0 1.32 0 2 0 C2 0.66 2 1.32 2 2 C0.57421875 3.33203125 0.57421875 3.33203125 -1.3125 4.8125 C-4.33626207 7.2969538 -5.99838716 9.63365114 -8 13 C-10.6875 14.8125 -10.6875 14.8125 -13 16 C-12.75 14.125 -12.75 14.125 -12 12 C-11.360625 11.690625 -10.72125 11.38125 -10.0625 11.0625 C-7.73547609 10.12720697 -7.73547609 10.12720697 -6.75 7.375 C-6.5025 6.59125 -6.255 5.8075 -6 5 C-5.01 5 -4.02 5 -3 5 C-2.690625 4.360625 -2.38125 3.72125 -2.0625 3.0625 C-1 1 -1 1 0 0 Z " fill="#FDF0BB" transform="translate(233,326)"/>
<path d="M0 0 C2.64 0.33 5.28 0.66 8 1 C8.33 3.64 8.66 6.28 9 9 C4.77728219 6.46636932 2.21689838 4.43379675 0 0 Z " fill="#D2F7D0" transform="translate(517,394)"/>
<path d="M0 0 C3.17730766 1.73307691 4.8693062 4.26166365 7.0625 7.125 C6.0725 7.62 6.0725 7.62 5.0625 8.125 C5.0625 7.465 5.0625 6.805 5.0625 6.125 C4.0725 6.125 3.0825 6.125 2.0625 6.125 C2.0625 5.465 2.0625 4.805 2.0625 4.125 C1.299375 4.125 0.53625 4.125 -0.25 4.125 C-2.14583333 4.125 -4.04166667 4.125 -5.9375 4.125 C-2.57865822 0.16636505 -2.57865822 0.16636505 0 0 Z " fill="#329AE5" transform="translate(345.9375,439.875)"/>
<path d="M0 0 C2.625 0.375 2.625 0.375 5 1 C5 1.66 5 2.32 5 3 C3.2984375 3.680625 3.2984375 3.680625 1.5625 4.375 C-2.04721692 5.57095806 -2.04721692 5.57095806 -3 8 C-4.32 7.67 -5.64 7.34 -7 7 C-4.66666667 4.66666667 -2.33333333 2.33333333 0 0 Z " fill="#F9F0EA" transform="translate(343,434)"/>
<path d="M0 0 C0.33 0.66 0.66 1.32 1 2 C-0.3125 4.625 -0.3125 4.625 -2 7 C-2.66 7 -3.32 7 -4 7 C-4 7.99 -4 8.98 -4 10 C-5.65 10 -7.3 10 -9 10 C-8.06862408 8.70391053 -7.1296434 7.41328368 -6.1875 6.125 C-5.66542969 5.40570312 -5.14335937 4.68640625 -4.60546875 3.9453125 C-3 2 -3 2 0 0 Z " fill="#349CE0" transform="translate(276,511)"/>
<path d="M0 0 C0.61875 0.474375 1.2375 0.94875 1.875 1.4375 C3.90705546 3.02417441 3.90705546 3.02417441 6 4 C5.01 5.98 4.02 7.96 3 10 C0.3144406 7.3144406 -0.06049974 4.62378672 -1 1 C-0.67 0.67 -0.34 0.34 0 0 Z " fill="#E8E8E8" transform="translate(1487,577)"/>
<path d="M0 0 C0.33 1.32 0.66 2.64 1 4 C-1.31 4.66 -3.62 5.32 -6 6 C-6.33 7.32 -6.66 8.64 -7 10 C-8.32 9.67 -9.64 9.34 -11 9 C-4 0 -4 0 0 0 Z " fill="#30C62F" transform="translate(451,324)"/>
<path d="M0 0 C2.625 0.375 2.625 0.375 5 1 C0.74652778 5.73958333 0.74652778 5.73958333 -2.6875 6.9375 C-3.450625 6.958125 -4.21375 6.97875 -5 7 C-5.66 6.34 -6.32 5.68 -7 5 C-6.34 5 -5.68 5 -5 5 C-5 4.34 -5 3.68 -5 3 C-4.34 3 -3.68 3 -3 3 C-3 3.66 -3 4.32 -3 5 C-2.34 5 -1.68 5 -1 5 C-1.33 4.01 -1.66 3.02 -2 2 C-1.34 1.34 -0.68 0.68 0 0 Z " fill="#DDDDDD" transform="translate(1375,593)"/>
<path d="M0 0 C2.625 0.9375 2.625 0.9375 5 2 C5.33 4.64 5.66 7.28 6 10 C3.06799526 7.14723863 0.35684596 4.34920216 -2 1 C-1.34 0.67 -0.68 0.34 0 0 Z " fill="#E8E8E8" transform="translate(1679,506)"/>
<path d="M0 0 C0.33 0 0.66 0 1 0 C1 3.3 1 6.6 1 10 C-2.24299151 7.61042731 -4.50902342 5.7952131 -6 2 C-3.03 2.495 -3.03 2.495 0 3 C0 2.01 0 1.02 0 0 Z " fill="#D1F7D6" transform="translate(508,376)"/>
<path d="M0 0 C2 3 2 3 1.6875 5.4375 C1.29412614 6.90371167 0.89768369 8.36912575 0.4921875 9.83203125 C-0.06915279 12.30460158 -0.33000756 14.72579632 -0.5625 17.25 C-0.64628906 18.14203125 -0.73007812 19.0340625 -0.81640625 19.953125 C-0.87699219 20.62859375 -0.93757812 21.3040625 -1 22 C-1.33 22 -1.66 22 -2 22 C-2.19355213 14.34393782 -2.3479743 7.33741969 0 0 Z " fill="#CECECE" transform="translate(845,544)"/>
<path d="M0 0 C2.64 0.66 5.28 1.32 8 2 C4.98509443 4.00993705 2.7850073 4.72623341 -0.6875 5.625 C-1.68136719 5.88539063 -2.67523437 6.14578125 -3.69921875 6.4140625 C-4.45847656 6.60742188 -5.21773437 6.80078125 -6 7 C-6.33 6.34 -6.66 5.68 -7 5 C-2.375 2.875 -2.375 2.875 1 4 C0.67 2.68 0.34 1.36 0 0 Z " fill="#DBDBDB" transform="translate(848,490)"/>
<path d="M0 0 C1.67542976 0.28604898 3.34385343 0.61781233 5 1 C5 3.31 5 5.62 5 8 C0.125 4.375 0.125 4.375 -1 1 C-0.67 0.67 -0.34 0.34 0 0 Z " fill="#D9EDF7" transform="translate(352,443)"/>
<path d="M0 0 C1.65 1.65 3.3 3.3 5 5 C1.93882432 7.62386487 1.26826873 8 -3 8 C-3 6 -3 6 -2 5 C-1.31246699 3.34183216 -0.64438717 1.67540664 0 0 Z " fill="#1CCC1F" transform="translate(499,376)"/>
<path d="M0 0 C0 0.99 0 1.98 0 3 C-0.99 3.33 -1.98 3.66 -3 4 C-3.68486725 5.32407669 -4.34870203 6.65909241 -5 8 C-6.29470975 9.37086915 -7.62150897 10.71340837 -9 12 C-9.66 11.67 -10.32 11.34 -11 11 C-10.54625 10.608125 -10.0925 10.21625 -9.625 9.8125 C-7.82984446 8.04792801 -7.82984446 8.04792801 -7.125 5.4375 C-6 3 -6 3 -3.4375 1.75 C-2.633125 1.5025 -1.82875 1.255 -1 1 C-0.67 0.67 -0.34 0.34 0 0 Z " fill="#FBE393" transform="translate(195,368)"/>
<path d="M0 0 C1.98 0.66 3.96 1.32 6 2 C4.33333333 3.66666667 2.66666667 5.33333333 1 7 C0.01 6.67 -0.98 6.34 -2 6 C-1.125 1.125 -1.125 1.125 0 0 Z " fill="#EBEBEB" transform="translate(1058,528)"/>
<path d="M0 0 C4.13621084 3.3810038 7.81316569 6.66590534 11 11 C10.67 11.66 10.34 12.32 10 13 C8.5 11.625 8.5 11.625 7 10 C7 9.34 7 8.68 7 8 C6.01 7.67 5.02 7.34 4 7 C4 6.34 4 5.68 4 5 C2.68 4.67 1.36 4.34 0 4 C0 2.68 0 1.36 0 0 Z " fill="#2293E0" transform="translate(355,450)"/>
<path d="M0 0 C2.475 0.495 2.475 0.495 5 1 C5.66 2.98 6.32 4.96 7 7 C5.0625 6.625 5.0625 6.625 3 6 C2.67 5.34 2.34 4.68 2 4 C1.34 4.66 0.68 5.32 0 6 C0 4.02 0 2.04 0 0 Z " fill="#E8E8E8" transform="translate(1426,535)"/>
<path d="M0 0 C-0.33 0.66 -0.66 1.32 -1 2 C-1.66 2 -2.32 2 -3 2 C-3 2.66 -3 3.32 -3 4 C-4.875 6.125 -4.875 6.125 -7 8 C-7.66 8 -8.32 8 -9 8 C-9.33 8.66 -9.66 9.32 -10 10 C-10 9.01 -10 8.02 -10 7 C-9.34 6.67 -8.68 6.34 -8 6 C-7.71125 5.195625 -7.4225 4.39125 -7.125 3.5625 C-6 1 -6 1 -4 -0.375 C-2 -1 -2 -1 0 0 Z " fill="#FBF4D5" transform="translate(169,396)"/>
<path d="M0 0 C0.66 0 1.32 0 2 0 C0.60466338 4.43970742 -1.56128532 6.90515679 -5 10 C-5.99 10.495 -5.99 10.495 -7 11 C-7 9.68 -7 8.36 -7 7 C-6.34 7 -5.68 7 -5 7 C-4.67 6.01 -4.34 5.02 -4 4 C-3.01 4 -2.02 4 -1 4 C-0.67 2.68 -0.34 1.36 0 0 Z " fill="#CEF9CC" transform="translate(423,347)"/>
<path d="M0 0 C0.99 0.33 1.98 0.66 3 1 C2.04882866 2.1725131 1.08882991 3.33787015 0.125 4.5 C-0.40867187 5.1496875 -0.94234375 5.799375 -1.4921875 6.46875 C-1.98976563 6.9740625 -2.48734375 7.479375 -3 8 C-3.66 8 -4.32 8 -5 8 C-5.33 8.99 -5.66 9.98 -6 11 C-6.33 9.68 -6.66 8.36 -7 7 C-6.01 7 -5.02 7 -4 7 C-3.896875 6.401875 -3.79375 5.80375 -3.6875 5.1875 C-2.91123545 2.71756736 -1.92911079 1.67748765 0 0 Z " fill="#C9F0FE" transform="translate(330,451)"/>
<path d="M0 0 C-2.38957269 3.24299151 -4.2047869 5.50902342 -8 7 C-8 6.01 -8 5.02 -8 4 C-7.34 4 -6.68 4 -6 4 C-6.33 2.68 -6.66 1.36 -7 0 C-3.86650268 -1.04449911 -3.01031744 -0.93423645 0 0 Z " fill="#D6F8CE" transform="translate(411,364)"/>
<path d="M0 0 C0.66 0.33 1.32 0.66 2 1 C1.34 2.98 0.68 4.96 0 7 C-2 7 -2 7 -4.125 5.125 C-6 3 -6 3 -6 1 C-4.7934375 1.0309375 -4.7934375 1.0309375 -3.5625 1.0625 C-1.06645115 1.29633621 -1.06645115 1.29633621 0 0 Z " fill="#D4F6D3" transform="translate(462,329)"/>
<path d="M0 0 C0.66 0.33 1.32 0.66 2 1 C1.01 3.97 0.02 6.94 -1 10 C-1.66 10 -2.32 10 -3 10 C-3.125 7.125 -3.125 7.125 -3 4 C-2.34 3.34 -1.68 2.68 -1 2 C-0.67 1.34 -0.34 0.68 0 0 Z " fill="#E7E7E7" transform="translate(1495,568)"/>
<path d="M0 0 C0 3.10551666 -0.5393715 4.35261084 -2 7 C-2.66 7 -3.32 7 -4 7 C-4.28875 7.804375 -4.5775 8.60875 -4.875 9.4375 C-6 12 -6 12 -8 13 C-6.63589551 7.40717158 -3.84616474 4.08806189 0 0 Z " fill="#CCCCCC" transform="translate(1029,534)"/>
<path d="M0 0 C0.66 0 1.32 0 2 0 C1.49477778 4.37859255 -1.17827222 6.81651224 -4 10 C-4.66 8.68 -5.32 7.36 -6 6 C-5.34 6 -4.68 6 -4 6 C-3.67 5.01 -3.34 4.02 -3 3 C-2.01 3 -1.02 3 0 3 C0 2.01 0 1.02 0 0 Z " fill="#D5F2FD" transform="translate(271,512)"/>
<path d="M0 0 C0.33 0 0.66 0 1 0 C1 5.28 1 10.56 1 16 C-0.65 14.68 -2.3 13.36 -4 12 C-4 11.34 -4 10.68 -4 10 C-3.34 10 -2.68 10 -2 10 C-2 10.66 -2 11.32 -2 12 C-1.34 12 -0.68 12 0 12 C0 8.04 0 4.08 0 0 Z " fill="#DFDFDF" transform="translate(912,494)"/>
<path d="M0 0 C1.1725131 0.95117134 2.33787015 1.91117009 3.5 2.875 C4.47453125 3.67550781 4.47453125 3.67550781 5.46875 4.4921875 C5.9740625 4.98976563 6.479375 5.48734375 7 6 C7 6.66 7 7.32 7 8 C7.66 8 8.32 8 9 8 C9 8.66 9 9.32 9 10 C5.32408105 8.9789114 4.0660202 8.08564783 1.6875 5 C0 2 0 2 0 0 Z " fill="#F3D150" transform="translate(281,368)"/>
<path d="M0 0 C0.66 0 1.32 0 2 0 C2.33 0.66 2.66 1.32 3 2 C4.32 2 5.64 2 7 2 C7.33 4.31 7.66 6.62 8 9 C6.84775972 8.07038578 5.70340824 7.1309875 4.5625 6.1875 C3.60537109 5.40439453 3.60537109 5.40439453 2.62890625 4.60546875 C1 3 1 3 0 0 Z " fill="#C5EBFC" transform="translate(370,464)"/>
<path d="M0 0 C1.53166168 4.08443115 0.63081652 7.79455657 0 12 C-2 11 -2 11 -2.8125 8.8125 C-3.05705303 5.14420448 -1.81993515 3.13028846 0 0 Z " fill="#E2E2E2" transform="translate(1533,572)"/>
<path d="M0 0 C0.99 0.33 1.98 0.66 3 1 C4.2676439 3.73030993 4.04311598 4.87352646 3.0625 7.75 C2.711875 8.4925 2.36125 9.235 2 10 C1 7 1 7 1 5 C0.34 4.67 -0.32 4.34 -1 4 C-0.67 2.68 -0.34 1.36 0 0 Z " fill="#ECECEC" transform="translate(1514,512)"/>
<path d="M0 0 C0.66 0 1.32 0 2 0 C2 1.98 2 3.96 2 6 C0.02 6.33 -1.96 6.66 -4 7 C-2.68 4.69 -1.36 2.38 0 0 Z " fill="#0E93EB" transform="translate(307,479)"/>
<path d="M0 0 C0.66 0 1.32 0 2 0 C2.33 0.99 2.66 1.98 3 3 C3.804375 3.45375 4.60875 3.9075 5.4375 4.375 C8.44734958 6.2836851 9.00395199 7.64965669 10 11 C8.2925002 9.71937515 6.62626404 8.38232443 5 7 C5 6.34 5 5.68 5 5 C3.68 4.67 2.36 4.34 1 4 C0.67 2.68 0.34 1.36 0 0 Z " fill="#02C515" transform="translate(462,438)"/>
<path d="M0 0 C2.31 0.33 4.62 0.66 7 1 C5 4 5 4 2.375 4.6875 C1.199375 4.8421875 1.199375 4.8421875 0 5 C0 3.33333333 0 1.66666667 0 0 Z " fill="#ECECEC" transform="translate(754,425)"/>
<path d="M0 0 C0.66 0.33 1.32 0.66 2 1 C-0.64 3.64 -3.28 6.28 -6 9 C-6.33 8.01 -6.66 7.02 -7 6 C-6.34 6 -5.68 6 -5 6 C-4.9175 5.38125 -4.835 4.7625 -4.75 4.125 C-4 2 -4 2 -2.0625 0.6875 C-1.381875 0.460625 -0.70125 0.23375 0 0 Z " fill="#BEF9BF" transform="translate(399,374)"/>
<path d="M0 0 C4.55015893 1.51671964 6.50057264 5.16891053 9 9 C8.01 9 7.02 9 6 9 C4.97971135 7.68212715 3.98028616 6.34789347 3 5 C2.01 4.67 1.02 4.34 0 4 C0 2.68 0 1.36 0 0 Z " fill="#28C52D" transform="translate(482,359)"/>
<path d="M0 0 C0 3 0 3 -1.3125 4.38671875 C-2.875 5.59114583 -4.4375 6.79557292 -6 8 C-5.67 6.02 -5.34 4.04 -5 2 C-5.66 1.67 -6.32 1.34 -7 1 C-5.5459375 1.0309375 -5.5459375 1.0309375 -4.0625 1.0625 C-1.12534105 1.35618499 -1.12534105 1.35618499 0 0 Z " fill="#FCEFCB" transform="translate(209,352)"/>
<path d="M0 0 C0.66 0.66 1.32 1.32 2 2 C1.625 4.125 1.625 4.125 1 6 C0.01 6 -0.98 6 -2 6 C-2.66 5.34 -3.32 4.68 -4 4 C-2.68 2.68 -1.36 1.36 0 0 Z " fill="#E4E4E4" transform="translate(1612,528)"/>
<path d="M0 0 C1.15224028 0.92961422 2.29659176 1.8690125 3.4375 2.8125 C4.07558594 3.33457031 4.71367187 3.85664063 5.37109375 4.39453125 C7 6 7 6 8 9 C7.34 9 6.68 9 6 9 C6 8.34 6 7.68 6 7 C4.68 7 3.36 7 2 7 C1.34 4.69 0.68 2.38 0 0 Z " fill="#2D9BEA" transform="translate(406,503)"/>
<path d="M0 0 C1.32 0 2.64 0 4 0 C4 0.66 4 1.32 4 2 C4.99 2 5.98 2 7 2 C7.33 1.34 7.66 0.68 8 0 C8.66 0.99 9.32 1.98 10 3 C8.35 3.66 6.7 4.32 5 5 C3.35 3.35 1.7 1.7 0 0 Z " fill="#E0E0E0" transform="translate(1389,505)"/>
<path d="M0 0 C0.66 0.33 1.32 0.66 2 1 C2 2.65 2 4.3 2 6 C0.68 6 -0.64 6 -2 6 C-3.75 3.5 -3.75 3.5 -5 1 C-2.525 1.99 -2.525 1.99 0 3 C0 2.01 0 1.02 0 0 Z " fill="#FAF3DE" transform="translate(290,370)"/>
<path d="M0 0 C0.6875 1.8125 0.6875 1.8125 1 4 C-0.3125 5.75 -0.3125 5.75 -2 7 C-2.66 7 -3.32 7 -4 7 C-4.33 7.66 -4.66 8.32 -5 9 C-5 4.61031544 -2.87194899 3.23094261 0 0 Z " fill="#E1E1E1" transform="translate(934,663)"/>
<path d="M0 0 C0.99 0.66 1.98 1.32 3 2 C1.68 2.33 0.36 2.66 -1 3 C-0.67 3.99 -0.34 4.98 0 6 C-2.97 5.505 -2.97 5.505 -6 5 C-2.25 1.125 -2.25 1.125 0 0 Z " fill="#DEDEDE" transform="translate(1395,623)"/>
<path d="M0 0 C-1.65 0.66 -3.3 1.32 -5 2 C-5 2.66 -5 3.32 -5 4 C-7.64 3.67 -10.28 3.34 -13 3 C-13 2.67 -13 2.34 -13 2 C-11.21089097 1.47044766 -9.41860852 0.9516063 -7.625 0.4375 C-6.62726562 0.14746094 -5.62953125 -0.14257812 -4.6015625 -0.44140625 C-2 -1 -2 -1 0 0 Z " fill="#CACACA" transform="translate(893,624)"/>
<path d="M0 0 C2.93200474 2.85276137 5.64315404 5.65079784 8 9 C5 9 5 9 3.4375 7.875 C1.56112131 5.42754954 0.85010055 2.94265576 0 0 Z " fill="#E1E1E1" transform="translate(1574,607)"/>
<path d="M0 0 C1.32 0 2.64 0 4 0 C4 0.99 4 1.98 4 3 C1 5 1 5 -2 5 C-1.34 3.35 -0.68 1.7 0 0 Z " fill="#E9E9E9" transform="translate(1380,589)"/>
<path d="M0 0 C2.475 0.99 2.475 0.99 5 2 C5 3.32 5 4.64 5 6 C2.08482708 4.92598892 0.22189824 4.22189824 -2 2 C-1.34 2 -0.68 2 0 2 C0 1.34 0 0.68 0 0 Z " fill="#DEDEDE" transform="translate(1380,496)"/>
<path d="M0 0 C1.98 0.66 3.96 1.32 6 2 C6 2.66 6 3.32 6 4 C6.99 4.33 7.98 4.66 9 5 C8.01 6.485 8.01 6.485 7 8 C6.401875 7.236875 5.80375 6.47375 5.1875 5.6875 C3.53040668 3.6516425 1.89702326 1.8021721 0 0 Z " fill="#C0E8FA" transform="translate(390,486)"/>
<path d="M0 0 C0.99 0.66 1.98 1.32 3 2 C2.01 2.33 1.02 2.66 0 3 C-0.6837045 4.32467746 -1.34964186 5.65863633 -2 7 C-2.99 7.66 -3.98 8.32 -5 9 C-4.67 7.35 -4.34 5.7 -4 4 C-3.01 4 -2.02 4 -1 4 C-0.67 2.68 -0.34 1.36 0 0 Z " fill="#C4EDFC" transform="translate(320,461)"/>
<path d="M0 0 C5.75 1.625 5.75 1.625 8 5 C7.67 5.99 7.34 6.98 7 8 C6.5875 7.38125 6.175 6.7625 5.75 6.125 C3.94426121 3.93231719 2.5909466 3.07211583 0 2 C0 1.34 0 0.68 0 0 Z " fill="#01BA27" transform="translate(464,439)"/>
<path d="M0 0 C0.99 0 1.98 0 3 0 C3 0.66 3 1.32 3 2 C4.32 2.33 5.64 2.66 7 3 C7.33 4.65 7.66 6.3 8 8 C7.01 7.34 6.02 6.68 5 6 C5 5.34 5 4.68 5 4 C4.360625 3.71125 3.72125 3.4225 3.0625 3.125 C1 2 1 2 0 0 Z " fill="#C9F9C7" transform="translate(509,386)"/>
<path d="M0 0 C0.66 0.33 1.32 0.66 2 1 C-0.46153846 5.8 -0.46153846 5.8 -3.1875 6.8125 C-3.785625 6.874375 -4.38375 6.93625 -5 7 C-3.47793991 4.37098712 -2.15634036 2.15634036 0 0 Z " fill="#35C739" transform="translate(405,369)"/>
<path d="M0 0 C2.375 0.1875 2.375 0.1875 5 1 C6.59660706 3.88909849 7 5.69058796 7 9 C5.62437146 7.71034824 4.29233607 6.37310707 3 5 C3 4.34 3 3.68 3 3 C2.34 3 1.68 3 1 3 C0.67 2.01 0.34 1.02 0 0 Z " fill="#FCE5A0" transform="translate(271,357)"/>
<path d="M0 0 C2.475 0.495 2.475 0.495 5 1 C5.33 2.65 5.66 4.3 6 6 C6.66 6 7.32 6 8 6 C7.67 6.66 7.34 7.32 7 8 C3.75700849 5.61042731 1.49097658 3.7952131 0 0 Z " fill="#C0F9C0" transform="translate(478,353)"/>
<path d="M0 0 C1.32 0 2.64 0 4 0 C4 0.66 4 1.32 4 2 C5.32 2.33 6.64 2.66 8 3 C6.68 3 5.36 3 4 3 C4 3.99 4 4.98 4 6 C3.34 6 2.68 6 2 6 C1.34 4.02 0.68 2.04 0 0 Z " fill="#FAF4E8" transform="translate(232,320)"/>
<path d="M0 0 C0.66 0.99 1.32 1.98 2 3 C0.02 3.99 0.02 3.99 -2 5 C-2 5.66 -2 6.32 -2 7 C-3.65 6.67 -5.3 6.34 -7 6 C-4.83312509 3.72478134 -2.54379491 1.84205838 0 0 Z " fill="#D0D0D0" transform="translate(926,671)"/>
<path d="M0 0 C2 3 2 3 1.625 6.1875 C1.41875 7.115625 1.2125 8.04375 1 9 C0.01 9 -0.98 9 -2 9 C-1.34 6.03 -0.68 3.06 0 0 Z " fill="#DCDCDC" transform="translate(1460,611)"/>
<path d="M0 0 C0.66 0.33 1.32 0.66 2 1 C2 1.99 2 2.98 2 4 C0.35 4.66 -1.3 5.32 -3 6 C-3 4.35 -3 2.7 -3 1 C-2.01 0.67 -1.02 0.34 0 0 Z " fill="#FAEEF9" transform="translate(403,364)"/>
<path d="M0 0 C0.33 0.66 0.66 1.32 1 2 C-0.125 5.0625 -0.125 5.0625 -2 8 C-4.6875 8.875 -4.6875 8.875 -7 9 C-6.02180976 7.68677212 -5.0424189 6.37443848 -4.0625 5.0625 C-3.51722656 4.33160156 -2.97195313 3.60070312 -2.41015625 2.84765625 C-1 1 -1 1 0 0 Z " fill="#44CA45" transform="translate(415,358)"/>
<path d="M0 0 C1.5625 1.8125 1.5625 1.8125 3 4 C2.67 4.99 2.34 5.98 2 7 C1.67 6.34 1.34 5.68 1 5 C-0.32 5.33 -1.64 5.66 -3 6 C-2.01 4.02 -1.02 2.04 0 0 Z " fill="#E2E2E2" transform="translate(940,654)"/>
<path d="M0 0 C0.66 0.33 1.32 0.66 2 1 C0.35830472 3.02054804 -1.30911778 5.02043058 -3 7 C-3.33 7 -3.66 7 -4 7 C-4 5.35 -4 3.7 -4 2 C-2.125 0.9375 -2.125 0.9375 0 0 Z " fill="#C8EFFE" transform="translate(279,505)"/>
<path d="M0 0 C1.65 1.65 3.3 3.3 5 5 C4.67 5.99 4.34 6.98 4 8 C2.68 7.34 1.36 6.68 0 6 C0 4.02 0 2.04 0 0 Z " fill="#1D97EA" transform="translate(369,464)"/>
<path d="M0 0 C-0.639375 0.268125 -1.27875 0.53625 -1.9375 0.8125 C-4.33131686 1.88667752 -4.33131686 1.88667752 -5 5 C-5.66 3.35 -6.32 1.7 -7 0 C-3.86650268 -1.04449911 -3.01031744 -0.93423645 0 0 Z " fill="#D8F8D4" transform="translate(375,402)"/>
<path d="M0 0 C0.66 0 1.32 0 2 0 C1.60196439 2.88575819 1.20990931 3.82189513 -1.0625 5.75 C-1.701875 6.1625 -2.34125 6.575 -3 7 C-2.25 2.25 -2.25 2.25 0 0 Z " fill="#CAF9C5" transform="translate(378,394)"/>
<path d="M0 0 C1 2 1 2 0.375 4.0625 C-1 6 -1 6 -3.625 6.75 C-4.800625 6.87375 -4.800625 6.87375 -6 7 C-4.02 4.69 -2.04 2.38 0 0 Z " fill="#3EC941" transform="translate(388,387)"/>
<path d="M0 0 C1.98 1.65 3.96 3.3 6 5 C5.67 5.66 5.34 6.32 5 7 C2.5 5.75 2.5 5.75 0 4 C0 2.68 0 1.36 0 0 Z " fill="#F0CB3D" transform="translate(250,336)"/>
<path d="M0 0 C0.66 0.33 1.32 0.66 2 1 C-0.85276137 3.93200474 -3.65079784 6.64315404 -7 9 C-6.67 7.68 -6.34 6.36 -6 5 C-5.34 5 -4.68 5 -4 5 C-3.67 4.01 -3.34 3.02 -3 2 C-2.01 1.34 -1.02 0.68 0 0 Z " fill="#BBF6B6" transform="translate(446,325)"/>
<path d="M0 0 C2.31 0 4.62 0 7 0 C7 1.65 7 3.3 7 5 C6.01 5 5.02 5 4 5 C4 4.01 4 3.02 4 2 C2.68 1.67 1.36 1.34 0 1 C0 0.67 0 0.34 0 0 Z " fill="#0086EE" transform="translate(362,560)"/>
<path d="M0 0 C2 2 2 2 2 6 C1.01 6.33 0.02 6.66 -1 7 C-1.66 5.35 -2.32 3.7 -3 2 C-2.01 2.33 -1.02 2.66 0 3 C0 2.01 0 1.02 0 0 Z " fill="#D9D9D9" transform="translate(1661,542)"/>
<path d="M0 0 C2.50037734 2.17424117 3.43628586 3.73045798 4 7 C2.35 6.67 0.7 6.34 -1 6 C-0.67 4.02 -0.34 2.04 0 0 Z " fill="#DADADA" transform="translate(1069,535)"/>
<path d="M0 0 C2.475 0.495 2.475 0.495 5 1 C5.33 2.65 5.66 4.3 6 6 C3.97945196 4.35830472 1.97956942 2.69088222 0 1 C0 0.67 0 0.34 0 0 Z " fill="#B1E2FB" transform="translate(363,458)"/>
<path d="M0 0 C2.31 0.66 4.62 1.32 7 2 C7 4.31 7 6.62 7 9 C5 7 5 7 4.0625 5.0625 C2.96378184 2.92969416 1.76412816 1.60375287 0 0 Z " fill="#CDCDCD" transform="translate(779,433)"/>
<path d="M0 0 C-1.04874998 2.62187494 -1.64931313 3.79371361 -4.125 5.25 C-4.74375 5.4975 -5.3625 5.745 -6 6 C-3.84615385 0 -3.84615385 0 0 0 Z " fill="#0BC40A" transform="translate(412,366)"/>
<path d="M0 0 C0.66 0.33 1.32 0.66 2 1 C-1.465 3.97 -1.465 3.97 -5 7 C-4 3 -4 3 -3 1 C-2.01 0.67 -1.02 0.34 0 0 Z " fill="#FEF1D4" transform="translate(198,363)"/>
<path d="M0 0 C1.875 0.25 1.875 0.25 4 1 C5.25 3.0625 5.25 3.0625 6 5 C4.35 4.67 2.7 4.34 1 4 C0.67 2.68 0.34 1.36 0 0 Z " fill="#1DC325" transform="translate(476,354)"/>
<path d="M0 0 C0.33 0.99 0.66 1.98 1 3 C-1.375 4.5625 -1.375 4.5625 -4 6 C-4.66 5.67 -5.32 5.34 -6 5 C-3.375 1.125 -3.375 1.125 0 0 Z " fill="#F2C516" transform="translate(228,337)"/>
<path d="M0 0 C3.90838866 0 5.11594107 1.50567876 8 4 C4.86650268 5.04449911 4.01031744 4.93423645 1 4 C0.67 2.68 0.34 1.36 0 0 Z " fill="#DFDFDF" transform="translate(1299,620)"/>
<path d="M0 0 C2.56687367 3.8503105 1.83288724 5.58569763 1 10 C0.34 9.34 -0.32 8.68 -1 8 C-0.96712417 5.27130593 -0.43602229 2.7033382 0 0 Z " fill="#D6D6D6" transform="translate(1278,581)"/>
<path d="M0 0 C1.485 0.99 1.485 0.99 3 2 C3 3.32 3 4.64 3 6 C2.34 6 1.68 6 1 6 C0.67 7.32 0.34 8.64 0 10 C0 6.7 0 3.4 0 0 Z " fill="#E7E7E7" transform="translate(1603,539)"/>
<path d="M0 0 C1.98 0 3.96 0 6 0 C6 2.31 6 4.62 6 7 C5.34 6.34 4.68 5.68 4 5 C4 4.01 4 3.02 4 2 C2.68 1.67 1.36 1.34 0 1 C0 0.67 0 0.34 0 0 Z " fill="#F9F9F9" transform="translate(1680,506)"/>
<path d="M0 0 C2 2 2 2 2.125 4.625 C2.08375 5.40875 2.0425 6.1925 2 7 C0.68 7 -0.64 7 -2 7 C-1.34 4.69 -0.68 2.38 0 0 Z " fill="#D1D1D1" transform="translate(1562,496)"/>
<path d="M0 0 C1.32 0.99 2.64 1.98 4 3 C3.67 4.32 3.34 5.64 3 7 C1.35 5.02 -0.3 3.04 -2 1 C-1.34 0.67 -0.68 0.34 0 0 Z " fill="#C5E9FD" transform="translate(400,493)"/>
<path d="M0 0 C2.02054804 1.64169528 4.02043058 3.30911778 6 5 C6 5.33 6 5.66 6 6 C4.35 6 2.7 6 1 6 C0.67 4.02 0.34 2.04 0 0 Z " fill="#45C64B" transform="translate(522,400)"/>
<path d="M0 0 C2.62187494 1.04874998 3.79371361 1.64931313 5.25 4.125 C5.4975 4.74375 5.745 5.3625 6 6 C5.34 6 4.68 6 4 6 C4 5.34 4 4.68 4 4 C2.68 4 1.36 4 0 4 C0 2.68 0 1.36 0 0 Z " fill="#23C424" transform="translate(515,394)"/>
<path d="M0 0 C1.32 0.33 2.64 0.66 4 1 C2.35 2.98 0.7 4.96 -1 7 C-1.66 6.01 -2.32 5.02 -3 4 C-2.01 4 -1.02 4 0 4 C0 2.68 0 1.36 0 0 Z " fill="#FAF5E5" transform="translate(171,388)"/>
<path d="M0 0 C0.66 0 1.32 0 2 0 C2 0.66 2 1.32 2 2 C2.66 2.33 3.32 2.66 4 3 C2.68 4.32 1.36 5.64 0 7 C0 4.69 0 2.38 0 0 Z " fill="#DDF6DB" transform="translate(435,331)"/>
</svg>
