<svg width="1162" height="378" viewBox="0 0 1162 378" fill="none" xmlns="http://www.w3.org/2000/svg">
<path d="M476.617 247.447H423.195V123.439H476.617C484.301 123.551 490.695 124.449 495.799 126.131C504.492 128.992 511.531 134.236 516.916 141.864C521.234 148.033 524.179 154.708 525.749 161.887C527.32 169.066 528.105 175.908 528.105 182.414C528.105 198.904 524.796 212.869 518.178 224.311C509.204 239.735 495.35 247.447 476.617 247.447ZM495.883 155.072C491.901 148.342 484.021 144.977 472.243 144.977H448.35V225.91H472.243C484.47 225.91 492.995 219.88 497.818 207.822C500.454 201.203 501.772 193.323 501.772 184.181C501.772 171.562 499.809 161.859 495.883 155.072ZM570.422 155.745V247.447H546.109V155.745H570.422ZM570.422 122.682V144.808H546.109V122.682H570.422ZM597.176 165.673C603.513 157.596 614.394 153.558 629.818 153.558C639.858 153.558 648.775 155.549 656.571 159.531C664.367 163.513 668.265 171.029 668.265 182.078V224.143C668.265 227.059 668.322 230.593 668.434 234.743C668.602 237.884 669.079 240.015 669.864 241.137C670.649 242.259 671.827 243.184 673.397 243.913V247.447H647.317C646.588 245.596 646.083 243.857 645.803 242.231C645.522 240.604 645.298 238.753 645.13 236.678C641.821 240.268 638.007 243.325 633.688 245.848C628.528 248.821 622.695 250.307 616.189 250.307C607.888 250.307 601.018 247.952 595.577 243.24C590.193 238.473 587.501 231.743 587.501 223.049C587.501 211.776 591.847 203.615 600.541 198.567C605.308 195.819 612.319 193.856 621.573 192.678L629.734 191.669C634.165 191.108 637.334 190.407 639.241 189.565C642.662 188.107 644.373 185.836 644.373 182.751C644.373 178.993 643.055 176.413 640.418 175.011C637.838 173.553 634.025 172.824 628.977 172.824C623.312 172.824 619.302 174.226 616.946 177.03C615.264 179.105 614.142 181.91 613.581 185.443H590.445C590.95 177.423 593.193 170.833 597.176 165.673ZM615.011 230.116C617.255 231.967 620.003 232.892 623.256 232.892C628.416 232.892 633.155 231.378 637.474 228.349C641.849 225.321 644.12 219.796 644.288 211.776V202.858C642.774 203.811 641.232 204.597 639.661 205.214C638.147 205.775 636.044 206.307 633.352 206.812L627.967 207.822C622.919 208.719 619.302 209.813 617.114 211.103C613.413 213.29 611.562 216.683 611.562 221.282C611.562 225.377 612.712 228.321 615.011 230.116ZM690.139 123.439H714.116V247.447H690.139V123.439ZM814.063 167.355C821.803 177.058 825.673 188.528 825.673 201.764C825.673 215.225 821.803 226.751 814.063 236.342C806.323 245.876 794.573 250.644 778.812 250.644C763.052 250.644 751.302 245.876 743.562 236.342C735.822 226.751 731.952 215.225 731.952 201.764C731.952 188.528 735.822 177.058 743.562 167.355C751.302 157.652 763.052 152.801 778.812 152.801C794.573 152.801 806.323 157.652 814.063 167.355ZM778.728 173.076C771.717 173.076 766.305 175.572 762.491 180.564C758.733 185.499 756.854 192.566 756.854 201.764C756.854 210.963 758.733 218.057 762.491 223.049C766.305 228.041 771.717 230.537 778.728 230.537C785.739 230.537 791.123 228.041 794.881 223.049C798.639 218.057 800.518 210.963 800.518 201.764C800.518 192.566 798.639 185.499 794.881 180.564C791.123 175.572 785.739 173.076 778.728 173.076ZM885.91 122.682V142.2C884.564 142.032 882.292 141.92 879.095 141.864C875.954 141.752 873.767 142.453 872.533 143.967C871.355 145.425 870.766 147.052 870.766 148.847V156.587H886.499V173.497H870.766V247.447H846.873V173.497H833.497V156.587H846.621V150.697C846.621 140.882 848.276 134.124 851.585 130.422C855.062 124.926 863.447 122.177 876.74 122.177C878.254 122.177 879.628 122.233 880.862 122.346C882.096 122.402 883.778 122.514 885.91 122.682ZM942.277 230.369V248.288L930.919 248.709C919.59 249.101 911.85 247.138 907.699 242.82C905.007 240.072 903.661 235.837 903.661 230.116V173.665H890.873V156.587H903.661V131.011H927.386V156.587H942.277V173.665H927.386V222.124C927.386 225.882 927.863 228.237 928.816 229.191C929.77 230.088 932.686 230.537 937.566 230.537C938.295 230.537 939.052 230.537 939.837 230.537C940.678 230.481 941.492 230.425 942.277 230.369ZM1073.77 221.956H1028.09L1019.51 247.447H992.418L1036.67 123.439H1065.95L1109.86 247.447H1081.76L1073.77 221.956ZM1066.54 200.586L1051.06 151.791L1035.07 200.586H1066.54ZM1123.66 123.439H1149.4V247.447H1123.66V123.439Z" fill="url(#paint0_linear_473_336)"/>
<path d="M221.768 195.859C223.645 193.981 224.115 185.298 224.115 181.192V196.446L222.941 203.486C222.002 206.302 218.639 213.264 217.074 216.393C214.728 219.678 209.447 224.802 207.101 226.953C206.162 228.831 195.758 234.385 190.673 236.927C183.164 240.682 169.944 239.274 164.273 238.1C159.11 237.631 151.952 233.602 149.019 231.647L135.525 224.606C132.239 221.321 124.769 220.5 121.444 220.5C113.935 220.5 106.582 224.02 103.844 225.78C96.8036 230.004 90.3501 237.709 88.0033 241.034C84.2485 245.258 83.3098 256.092 83.3098 260.981C83.3098 265.675 88.7856 275.844 91.5234 280.342C96.6863 288.321 99.9326 294.618 100.91 296.769C105.135 304.279 105.799 314.37 105.604 318.476C106.073 329.271 99.5415 341.748 96.2169 346.637C91.0541 355.555 79.203 362.087 73.9228 364.238C68.2906 367.523 54.7577 367.562 48.6953 367.171L58.669 365.998C61.4851 365.998 70.0116 362.087 73.9228 360.131C80.4937 357.315 87.6122 348.397 90.3501 344.291C96.4516 338.189 97.5859 323.365 97.3903 316.716C98.329 309.676 91.5234 297.356 88.0033 292.075C80.0244 282.688 76.8563 274.475 76.2697 271.541C72.9842 256.522 75.2919 243.772 76.8563 239.274C83.8966 223.316 99.7371 215.415 106.777 213.459C114.756 208.766 127.703 210.33 133.178 211.699C137.402 211.699 149.019 219.131 154.299 222.846C159.462 226.132 172.486 228.909 178.353 229.887C185.393 230.356 197.323 224.998 202.407 222.26C213.672 216.628 220.008 202.312 221.768 195.859Z" fill="#A861FA" stroke="#A963FA" strokeWidth="1.17337"/>
<path d="M158.721 135.226C150.117 137.729 118.827 156.034 110.378 163.387C108.657 164.951 104.12 168.55 100.209 171.522C96.2979 174.338 89.727 179.345 85.3464 182.63C72.2046 192.643 47.4855 219.396 34.5002 238.17C20.8891 257.413 8.52953 280.568 3.36669 295.9C-6.17675 324.217 5.08764 353.63 30.5889 366.615C40.4453 371.622 42.3227 372.091 55.4645 372.091C67.824 372.091 70.7965 371.465 78.3061 367.867C89.5705 362.391 101.148 350.814 106.154 340.175C114.29 322.653 112.099 303.253 99.5833 283.697C90.8221 269.929 89.2576 266.018 89.2576 257.726C89.2576 245.836 96.2979 235.667 109.283 229.096C115.228 225.967 129.152 226.593 134.941 230.347C144.484 236.293 157.313 242.551 162.007 243.646C164.666 244.115 168.265 244.897 170.299 245.367C176.557 246.462 191.419 242.863 200.806 237.857C233.035 220.804 240.388 178.25 215.825 151.497C208.785 143.831 204.248 140.858 192.514 136.321C184.848 133.349 167.326 132.723 158.721 135.226ZM198.303 144.457C215.669 152.905 224.587 168.237 224.587 189.045C224.43 205.003 220.363 215.015 209.567 225.028C190.95 242.394 168.421 244.428 146.362 230.66C135.254 223.777 128.214 221.117 121.33 221.117C109.753 221.117 94.7334 229.878 88.6318 240.36C80.8093 253.658 81.748 266.018 91.7608 280.881C100.209 293.24 103.338 300.124 105.059 309.667C110.691 340.332 84.4077 369.901 53.2742 367.71C21.9842 365.677 1.01994 338.611 6.33923 307.008C11.3456 277.126 49.2065 220.804 85.8157 188.888C100.366 176.216 132.281 154.313 148.083 146.177C166.074 136.947 181.719 136.478 198.303 144.457Z" fill="#DDB7FD"/>
<path d="M171.273 136.298C166.751 136.891 155.516 140.501 153.461 141.963C152.775 142.466 149.578 144.202 147.249 145.39C146.107 145.984 144.829 146.852 144.326 147.4C143.869 147.903 143.047 148.314 142.454 148.314C141.86 148.314 141.22 148.588 141.038 148.862C140.672 149.456 140.124 149.867 137.064 151.603C136.105 152.197 134.963 152.883 134.552 153.111C134.141 153.385 132.132 154.573 130.076 155.807C127.976 156.995 126.286 158.137 126.286 158.274C126.286 158.457 125.327 159.097 124.139 159.736C122.906 160.33 121.856 161.016 121.719 161.198C121.582 161.381 120.211 162.341 118.75 163.346C117.243 164.351 115.507 165.539 114.868 165.996C114.228 166.407 112.31 167.686 110.529 168.828C108.793 169.971 106.738 171.478 105.962 172.164C105.231 172.895 103.906 173.9 103.084 174.494C102.308 175.042 101.486 175.865 101.349 176.322C101.212 176.733 100.435 177.372 99.6133 177.738C98.8369 178.058 97.8778 178.652 97.5124 178.972C97.147 179.337 96.3249 179.977 95.6855 180.388C95.0461 180.799 93.1279 182.398 91.3467 183.952C89.6112 185.505 87.3732 187.424 86.4141 188.201C82.8517 191.171 82.0753 191.902 76.0466 197.887C70.5203 203.324 66.7295 207.299 58.6456 216.117C54.0784 221.052 52.5256 222.925 48.6434 228.042C46.5425 230.783 44.67 233.159 44.4416 233.205C44.2589 233.296 44.1676 233.57 44.3046 233.753C44.4416 233.982 44.1676 234.439 43.7109 234.758C43.2998 235.078 42.2037 236.266 41.3359 237.408C40.4682 238.551 39.4634 239.739 39.1437 240.058C38.824 240.424 38.2302 241.338 37.8192 242.114C37.2255 243.348 35.3986 245.907 31.8362 250.658C31.3338 251.298 30.4203 252.806 29.7809 254.085C29.1415 255.319 28.1824 256.826 27.6343 257.42C27.0863 258.014 26.5839 258.745 26.5382 259.111C26.4926 259.431 25.8988 260.527 25.2137 261.487C24.5287 262.492 23.9806 263.451 23.9806 263.634C23.9806 263.817 23.2955 264.914 22.5191 266.101C20.9662 268.295 18.5913 272.544 16.1707 277.387C15.4399 278.894 13.7958 282.093 12.5626 284.469C11.3295 286.844 10.0507 289.54 9.77662 290.408C9.50259 291.276 9.09154 292.19 8.86318 292.419C8.63482 292.693 8.45213 293.332 8.45213 293.881C8.45213 294.475 8.22377 295.069 7.99541 295.206C7.72138 295.388 7.63004 295.663 7.72138 295.845C7.8584 296.028 7.58437 296.896 7.12765 297.764C6.3969 299.135 6.07719 300.277 5.39211 303.795C5.34644 304.252 4.93539 305.212 4.57002 305.943C3.42822 308.136 3.15419 319.65 4.06763 325.909C4.47867 328.696 5.11808 331.574 5.48346 332.306C5.84883 332.991 6.16854 333.813 6.16854 334.087C6.16854 334.59 8.54348 339.799 9.41124 341.124C9.6396 341.489 10.3247 342.86 10.9184 344.093C11.4665 345.373 12.5169 346.972 13.1563 347.703C13.8414 348.434 14.4808 349.393 14.6178 349.85C14.8005 350.353 15.1659 350.718 15.4399 350.718C15.7596 350.764 16.6731 351.678 17.4952 352.82C18.3629 353.962 19.1394 354.83 19.2307 354.693C19.3677 354.602 20.0528 355.059 20.8292 355.79C21.56 356.475 23.3412 357.618 24.7113 358.349C26.0358 359.034 27.1776 359.719 27.1776 359.902C27.1776 360.405 29.9636 361.684 31.0597 361.684C31.6078 361.684 32.4299 362.095 32.8866 362.598C33.3433 363.1 34.0741 363.511 34.5308 363.511C34.9875 363.511 35.4899 363.694 35.6269 363.968C35.764 364.197 36.586 364.425 37.4081 364.425C38.1846 364.425 39.0523 364.608 39.3264 364.836C39.5547 365.019 40.7879 365.476 42.021 365.796C43.2998 366.116 44.533 366.527 44.7613 366.664C46.1772 367.486 54.9462 367.258 56.7274 366.344C57.1841 366.116 58.8283 365.75 60.3811 365.567C61.934 365.385 63.4411 364.974 63.7609 364.608C64.0349 364.243 64.857 363.968 65.5877 363.968C66.3185 363.968 66.9122 363.74 66.9122 363.466C66.9122 363.237 67.1406 363.146 67.4146 363.329C67.6886 363.466 68.5107 363.192 69.2415 362.643C69.9266 362.141 70.84 361.684 71.251 361.684C71.6164 361.684 71.9361 361.501 71.9361 361.227C71.9361 360.999 72.4842 360.633 73.2149 360.496C73.9 360.313 74.8135 359.811 75.2702 359.354C75.7269 358.851 76.3206 358.486 76.6403 358.486C76.96 358.486 78.4215 357.343 79.9287 355.973C81.4359 354.602 82.8974 353.46 83.1258 353.46C83.5825 353.46 85.592 350.993 87.9213 347.52C88.515 346.652 89.2458 345.784 89.4742 345.601C89.7482 345.418 89.8395 345.19 89.7025 345.007C89.5655 344.87 90.1136 344.048 90.9357 343.134C91.8034 342.266 92.6255 340.987 92.7625 340.301C92.8995 339.616 93.539 338.062 94.1327 336.829C94.7264 335.549 95.2288 334.224 95.2288 333.813C95.2288 333.402 95.3658 332.899 95.5485 332.717C96.7817 331.529 97.6038 318.919 96.8273 313.527C96.2336 309.369 92.8082 299.775 91.7577 299.363C91.3924 299.226 91.1183 298.815 91.1183 298.45C91.1183 297.17 89.0631 293.15 88.2867 292.875C87.83 292.738 87.4646 292.327 87.4646 291.962C87.4646 291.642 86.5511 290.454 85.455 289.403C84.3589 288.307 83.3541 286.982 83.1714 286.479C82.9887 285.931 82.1666 284.788 81.3445 283.92C79.1523 281.682 76.549 275.559 75.2245 269.437C72.8039 258.471 74.037 243.714 77.8278 238.414C78.2845 237.728 78.7412 236.814 78.8326 236.403C79.1066 235.17 84.7243 227.494 86.8708 225.346C90.2962 222.011 91.7577 220.777 93.8587 219.361C95.0005 218.63 96.0052 217.899 96.1423 217.716C96.2793 217.533 97.6037 216.94 99.1109 216.391C100.618 215.797 102.034 215.203 102.308 214.975C102.536 214.746 103.084 214.564 103.495 214.564C103.906 214.564 104.5 214.244 104.82 213.878C105.14 213.513 106.053 213.193 106.829 213.193C107.606 213.193 108.656 212.873 109.113 212.508C109.615 212.142 110.803 211.822 111.716 211.822C112.675 211.822 113.498 211.594 113.589 211.32C113.68 211.046 114.776 210.726 116.01 210.589C117.288 210.497 118.841 210.177 119.572 209.903C120.485 209.538 120.988 209.584 121.49 209.995C122.038 210.452 122.312 210.452 122.86 209.995C123.363 209.584 123.728 209.675 124.55 210.452C125.372 211.228 125.966 211.365 127.291 211.183C128.387 211 129.026 211.091 129.209 211.502C129.437 211.914 129.528 211.914 129.757 211.457C130.076 210.817 131.31 210.726 131.31 211.365C131.31 211.594 131.584 211.822 131.949 211.822C132.314 211.822 132.68 212.096 132.817 212.371C132.954 212.827 133.137 212.827 133.776 212.325C134.415 211.777 134.644 211.777 135.329 212.371C135.74 212.782 136.927 213.239 137.932 213.421C139.896 213.741 142.362 214.975 145.194 216.94C146.153 217.671 147.249 218.219 147.569 218.219C147.889 218.219 148.208 218.402 148.3 218.584C148.619 219.407 154.876 223.245 155.835 223.245C156.384 223.245 156.932 223.427 157.114 223.656C157.251 223.884 158.119 224.341 159.078 224.661C159.992 224.935 161.681 225.621 162.823 226.123C165.016 227.083 165.746 227.311 170.816 228.499C172.597 228.91 174.652 229.458 175.474 229.687C176.479 230.007 177.256 230.007 177.849 229.687C178.443 229.321 178.854 229.321 179.037 229.641C179.22 229.915 180.087 229.961 181.138 229.824C182.143 229.641 183.33 229.458 183.741 229.413C186.299 229.139 188.445 228.545 188.902 227.996C189.176 227.631 189.998 227.357 190.729 227.357C192.053 227.357 192.327 227.265 195.113 225.803C195.89 225.392 196.758 225.072 197.077 225.072C197.351 225.072 198.31 224.524 199.178 223.884C200.046 223.199 201.233 222.651 201.873 222.651C202.512 222.651 203.015 222.468 203.015 222.239C203.015 221.737 207.171 217.762 207.673 217.762C208.176 217.762 213.976 211.959 213.976 211.411C213.976 211.183 214.387 210.863 214.844 210.68C215.346 210.543 216.214 209.446 216.762 208.259C217.31 207.071 218.406 205.197 219.137 204.101C219.868 203.004 220.507 201.634 220.507 200.994C220.507 200.354 221.238 197.841 222.197 195.374C223.75 191.308 223.932 190.394 224.024 185.916C224.115 183.221 224.115 180.662 224.115 180.297C223.978 178.286 223.658 176.778 223.247 175.956C222.973 175.453 222.608 174.265 222.471 173.26C222.288 172.301 221.968 171.159 221.74 170.747C221.557 170.336 221.101 169.103 220.781 167.96C220.461 166.818 219.594 164.808 218.908 163.483C218.223 162.158 217.63 160.833 217.63 160.467C217.63 160.147 216.945 158.96 216.122 157.863C215.3 156.766 214.341 155.167 214.022 154.391C213.702 153.568 213.199 153.02 212.971 153.157C212.286 153.614 210.779 151.923 210.779 150.69C210.779 149.913 210.596 149.639 210.139 149.822C209.683 150.004 209.546 149.867 209.728 149.456C209.865 148.999 209.546 148.634 208.769 148.314C208.084 148.085 207.353 147.4 207.125 146.852C206.12 144.385 202.375 141.735 200.594 142.146C199.681 142.374 199.452 142.283 199.498 141.598C199.589 141.049 199.224 140.729 198.447 140.638C197.808 140.547 197.123 140.273 196.849 140.09C195.479 138.993 192.373 137.577 189.77 136.846C187.395 136.16 185.431 135.978 179.722 136.023C175.84 136.069 172.049 136.206 171.273 136.298Z" fill="#AB66FA"/>
<g filter="url(#filter0_f_473_336)">
<path d="M172.678 138.644C168.276 139.238 157.34 142.847 155.339 144.309C154.672 144.812 151.56 146.548 149.293 147.736C148.182 148.33 146.937 149.198 146.448 149.746C146.003 150.249 145.203 150.66 144.625 150.66C144.047 150.66 143.425 150.934 143.247 151.208C142.891 151.802 142.358 152.214 139.379 153.95C138.445 154.544 137.334 155.229 136.934 155.458C136.534 155.732 134.578 156.92 132.577 158.153C130.532 159.341 128.887 160.483 128.887 160.62C128.887 160.803 127.954 161.443 126.798 162.083C125.597 162.677 124.575 163.362 124.441 163.545C124.308 163.727 122.974 164.687 121.552 165.692C120.085 166.697 118.395 167.885 117.773 168.342C117.15 168.753 115.283 170.033 113.549 171.175C111.86 172.317 109.859 173.825 109.104 174.51C108.392 175.241 107.103 176.246 106.303 176.84C105.547 177.389 104.747 178.211 104.614 178.668C104.48 179.079 103.724 179.719 102.924 180.084C102.168 180.404 101.235 180.998 100.879 181.318C100.523 181.683 99.7232 182.323 99.1008 182.734C98.4784 183.145 96.6112 184.745 94.8774 186.298C93.188 187.851 91.0096 189.77 90.076 190.547C86.6083 193.517 85.8525 194.248 79.9842 200.233C74.6049 205.67 70.9149 209.645 63.046 218.463C58.6002 223.398 57.0887 225.271 53.3098 230.388C51.2648 233.13 49.442 235.506 49.2198 235.551C49.0419 235.643 48.953 235.917 49.0864 236.1C49.2198 236.328 48.953 236.785 48.5084 237.105C48.1083 237.425 47.0414 238.612 46.1967 239.755C45.352 240.897 44.3739 242.085 44.0627 242.405C43.7515 242.77 43.1736 243.684 42.7735 244.461C42.1955 245.694 40.4172 248.253 36.9496 253.005C36.4605 253.644 35.5714 255.152 34.949 256.431C34.3266 257.665 33.393 259.173 32.8595 259.767C32.326 260.361 31.837 261.092 31.7925 261.457C31.7481 261.777 31.1701 262.874 30.5033 263.833C29.8364 264.838 29.3029 265.798 29.3029 265.981C29.3029 266.163 28.636 267.26 27.8803 268.448C26.3687 270.641 24.057 274.89 21.7007 279.733C20.9894 281.241 19.3889 284.439 18.1886 286.815C16.9882 289.191 15.7434 291.886 15.4767 292.755C15.21 293.623 14.8098 294.536 14.5876 294.765C14.3653 295.039 14.1874 295.679 14.1874 296.227C14.1874 296.821 13.9652 297.415 13.7429 297.552C13.4761 297.735 13.3872 298.009 13.4761 298.192C13.6095 298.374 13.3428 299.242 12.8982 300.111C12.1869 301.481 11.8757 302.623 11.2088 306.142C11.1643 306.598 10.7642 307.558 10.4086 308.289C9.29714 310.482 9.0304 321.996 9.91954 328.255C10.3197 331.042 10.9421 333.921 11.2977 334.652C11.6534 335.337 11.9646 336.16 11.9646 336.434C11.9646 336.936 14.2764 342.145 15.121 343.47C15.3433 343.835 16.0102 345.206 16.5881 346.44C17.1216 347.719 18.1441 349.318 18.7665 350.049C19.4334 350.78 20.0558 351.74 20.1892 352.197C20.367 352.699 20.7227 353.065 20.9894 353.065C21.3006 353.11 22.1897 354.024 22.99 355.166C23.8347 356.309 24.5904 357.177 24.6794 357.04C24.8127 356.948 25.4796 357.405 26.2354 358.136C26.9467 358.822 28.6805 359.964 30.0142 360.695C31.3035 361.38 32.4149 362.066 32.4149 362.248C32.4149 362.751 35.1268 364.03 36.1938 364.03C36.7273 364.03 37.5275 364.441 37.9721 364.944C38.4166 365.447 39.128 365.858 39.5725 365.858C40.0171 365.858 40.5061 366.041 40.6395 366.315C40.7729 366.543 41.5731 366.772 42.3733 366.772C43.1291 366.772 43.9738 366.954 44.2405 367.183C44.4628 367.366 45.6632 367.822 46.8635 368.142C48.1083 368.462 49.3087 368.873 49.531 369.01C50.9091 369.833 59.4449 369.604 61.1788 368.691C61.6233 368.462 63.2238 368.097 64.7353 367.914C66.2469 367.731 67.714 367.32 68.0252 366.954C68.2919 366.589 69.0922 366.315 69.8035 366.315C70.5148 366.315 71.0927 366.086 71.0927 365.812C71.0927 365.584 71.315 365.492 71.5818 365.675C71.8485 365.812 72.6487 365.538 73.3601 364.99C74.0269 364.487 74.9161 364.03 75.3162 364.03C75.6718 364.03 75.983 363.847 75.983 363.573C75.983 363.345 76.5165 362.979 77.2278 362.842C77.8947 362.66 78.7838 362.157 79.2284 361.7C79.673 361.197 80.2509 360.832 80.5621 360.832C80.8733 360.832 82.296 359.69 83.7631 358.319C85.2301 356.948 86.6528 355.806 86.8751 355.806C87.3196 355.806 89.2758 353.339 91.5431 349.866C92.121 348.998 92.8323 348.13 93.0546 347.947C93.3214 347.765 93.4103 347.536 93.2769 347.354C93.1435 347.216 93.677 346.394 94.4773 345.48C95.3219 344.612 96.1222 343.333 96.2555 342.648C96.3889 341.962 97.0113 340.409 97.5893 339.175C98.1672 337.896 98.6562 336.571 98.6562 336.16C98.6562 335.748 98.7896 335.246 98.9674 335.063C100.168 333.875 100.968 321.265 100.212 315.873C99.6343 311.716 96.3 302.121 95.2775 301.71C94.9218 301.573 94.6551 301.161 94.6551 300.796C94.6551 299.517 92.6545 295.496 91.8987 295.222C91.4542 295.085 91.0985 294.674 91.0985 294.308C91.0985 293.988 90.2094 292.8 89.1424 291.749C88.0754 290.653 87.0974 289.328 86.9195 288.825C86.7417 288.277 85.9415 287.135 85.1412 286.267C83.0073 284.028 80.4732 277.905 79.184 271.783C76.8277 260.818 78.0281 246.06 81.718 240.76C82.1626 240.075 82.6072 239.161 82.6961 238.75C82.9628 237.516 88.4311 229.84 90.5206 227.693C93.8549 224.357 95.2775 223.124 97.3225 221.707C98.434 220.976 99.412 220.245 99.5454 220.063C99.6788 219.88 100.968 219.286 102.435 218.738C103.902 218.144 105.28 217.55 105.547 217.321C105.769 217.093 106.303 216.91 106.703 216.91C107.103 216.91 107.681 216.59 107.992 216.225C108.303 215.859 109.193 215.539 109.948 215.539C110.704 215.539 111.727 215.219 112.171 214.854C112.66 214.488 113.816 214.169 114.705 214.169C115.639 214.169 116.439 213.94 116.528 213.666C116.617 213.392 117.684 213.072 118.884 212.935C120.129 212.844 121.641 212.524 122.352 212.25C123.241 211.884 123.73 211.93 124.219 212.341C124.753 212.798 125.019 212.798 125.553 212.341C126.042 211.93 126.398 212.021 127.198 212.798C127.998 213.575 128.576 213.712 129.865 213.529C130.932 213.346 131.555 213.438 131.732 213.849C131.955 214.26 132.044 214.26 132.266 213.803C132.577 213.163 133.777 213.072 133.777 213.712C133.777 213.94 134.044 214.169 134.4 214.169C134.756 214.169 135.111 214.443 135.245 214.717C135.378 215.174 135.556 215.174 136.178 214.671C136.801 214.123 137.023 214.123 137.69 214.717C138.09 215.128 139.246 215.585 140.224 215.768C142.135 216.088 144.536 217.321 147.292 219.286C148.226 220.017 149.293 220.565 149.604 220.565C149.915 220.565 150.227 220.748 150.316 220.931C150.627 221.753 156.717 225.591 157.651 225.591C158.185 225.591 158.718 225.774 158.896 226.002C159.029 226.231 159.874 226.688 160.807 227.007C161.697 227.281 163.342 227.967 164.453 228.469C166.587 229.429 167.298 229.657 172.233 230.845C173.967 231.256 175.967 231.805 176.768 232.033C177.746 232.353 178.501 232.353 179.079 232.033C179.657 231.668 180.057 231.668 180.235 231.988C180.413 232.262 181.258 232.307 182.28 232.17C183.258 231.988 184.414 231.805 184.814 231.759C187.304 231.485 189.393 230.891 189.838 230.343C190.105 229.977 190.905 229.703 191.616 229.703C192.906 229.703 193.172 229.612 195.884 228.15C196.64 227.738 197.485 227.419 197.796 227.419C198.063 227.419 198.996 226.87 199.841 226.231C200.686 225.545 201.842 224.997 202.464 224.997C203.086 224.997 203.575 224.814 203.575 224.586C203.575 224.083 207.621 220.108 208.11 220.108C208.599 220.108 214.245 214.306 214.245 213.757C214.245 213.529 214.645 213.209 215.09 213.026C215.579 212.889 216.424 211.793 216.957 210.605C217.491 209.417 218.557 207.544 219.269 206.447C219.98 205.351 220.602 203.98 220.602 203.34C220.602 202.701 221.314 200.188 222.247 197.72C223.759 193.654 223.937 192.74 224.026 188.263C224.115 185.567 224.115 183.008 224.115 182.643C223.981 180.633 223.67 179.125 223.27 178.302C223.003 177.8 222.648 176.612 222.514 175.607C222.336 174.647 222.025 173.505 221.803 173.094C221.625 172.683 221.18 171.449 220.869 170.307C220.558 169.164 219.713 167.154 219.047 165.829C218.38 164.504 217.802 163.179 217.802 162.814C217.802 162.494 217.135 161.306 216.335 160.209C215.534 159.113 214.601 157.514 214.29 156.737C213.978 155.914 213.489 155.366 213.267 155.503C212.6 155.96 211.133 154.27 211.133 153.036C211.133 152.259 210.955 151.985 210.511 152.168C210.066 152.351 209.933 152.214 210.111 151.802C210.244 151.346 209.933 150.98 209.177 150.66C208.51 150.432 207.799 149.746 207.577 149.198C206.598 146.731 202.953 144.081 201.219 144.492C200.33 144.721 200.108 144.629 200.152 143.944C200.241 143.396 199.885 143.076 199.13 142.984C198.507 142.893 197.84 142.619 197.574 142.436C196.24 141.34 193.217 139.923 190.683 139.192C188.371 138.507 186.459 138.324 180.902 138.37C177.123 138.415 173.433 138.552 172.678 138.644Z" fill="#A75FF9"/>
</g>
<g filter="url(#filter1_f_473_336)">
<path d="M169.951 144.489C165.718 145.034 155.2 148.351 153.276 149.694C152.634 150.156 149.641 151.751 147.461 152.842C146.392 153.388 145.195 154.186 144.724 154.689C144.297 155.151 143.527 155.529 142.971 155.529C142.415 155.529 141.817 155.781 141.646 156.033C141.304 156.578 140.791 156.956 137.926 158.551C137.028 159.097 135.959 159.727 135.574 159.937C135.189 160.189 133.308 161.28 131.384 162.414C129.417 163.505 127.835 164.554 127.835 164.68C127.835 164.848 126.937 165.436 125.826 166.024C124.671 166.569 123.688 167.199 123.56 167.367C123.431 167.535 122.149 168.416 120.78 169.34C119.369 170.264 117.745 171.355 117.146 171.775C116.548 172.153 114.752 173.328 113.084 174.377C111.459 175.427 109.535 176.812 108.809 177.442C108.124 178.114 106.885 179.037 106.115 179.583C105.388 180.087 104.618 180.842 104.49 181.262C104.362 181.64 103.635 182.227 102.865 182.563C102.139 182.857 101.241 183.403 100.899 183.697C100.557 184.033 99.7869 184.62 99.1883 184.998C98.5897 185.376 96.7939 186.845 95.1264 188.272C93.5017 189.7 91.4066 191.463 90.5087 192.176C87.1737 194.905 86.4468 195.577 80.8029 201.076C75.6294 206.071 72.0806 209.724 64.5126 217.825C60.2369 222.359 58.7832 224.08 55.1489 228.782C53.1821 231.301 51.4291 233.483 51.2153 233.525C51.0443 233.609 50.9587 233.861 51.087 234.029C51.2153 234.239 50.9587 234.659 50.5312 234.953C50.1464 235.247 49.1202 236.338 48.3078 237.387C47.4954 238.437 46.5548 239.528 46.2555 239.822C45.9562 240.158 45.4004 240.998 45.0156 241.711C44.4597 242.845 42.7495 245.196 39.4144 249.561C38.9441 250.149 38.089 251.534 37.4904 252.71C36.8918 253.843 35.9939 255.228 35.4808 255.774C34.9677 256.32 34.4974 256.992 34.4547 257.327C34.4119 257.621 33.8561 258.629 33.2147 259.51C32.5734 260.434 32.0603 261.315 32.0603 261.483C32.0603 261.651 31.4189 262.659 30.6921 263.75C29.2383 265.765 27.015 269.669 24.7489 274.119C24.0648 275.504 22.5255 278.443 21.3711 280.626C20.2167 282.808 19.0195 285.285 18.7629 286.083C18.5064 286.88 18.1216 287.72 17.9078 287.93C17.694 288.182 17.523 288.769 17.523 289.273C17.523 289.819 17.3092 290.365 17.0954 290.491C16.8389 290.658 16.7534 290.91 16.8389 291.078C16.9672 291.246 16.7106 292.044 16.283 292.841C15.5989 294.101 15.2996 295.15 14.6583 298.383C14.6155 298.802 14.2307 299.684 13.8887 300.356C12.8198 302.37 12.5632 312.949 13.4183 318.7C13.8032 321.261 14.4018 323.906 14.7438 324.577C15.0859 325.207 15.3852 325.963 15.3852 326.214C15.3852 326.676 17.6085 331.462 18.4209 332.679C18.6347 333.015 19.276 334.274 19.8319 335.408C20.3449 336.583 21.3283 338.052 21.9269 338.724C22.5683 339.396 23.1669 340.277 23.2951 340.697C23.4662 341.159 23.8082 341.495 24.0648 341.495C24.3641 341.537 25.2192 342.376 25.9888 343.426C26.8012 344.475 27.5281 345.273 27.6136 345.147C27.7418 345.063 28.3832 345.483 29.1101 346.154C29.7942 346.784 31.4617 347.833 32.7444 348.505C33.9843 349.135 35.0532 349.764 35.0532 349.932C35.0532 350.394 37.6614 351.57 38.6876 351.57C39.2006 351.57 39.9703 351.947 40.3978 352.409C40.8254 352.871 41.5095 353.249 41.9371 353.249C42.3646 353.249 42.835 353.417 42.9632 353.668C43.0915 353.878 43.8611 354.088 44.6307 354.088C45.3576 354.088 46.17 354.256 46.4265 354.466C46.6403 354.634 47.7947 355.054 48.9492 355.348C50.1464 355.641 51.3008 356.019 51.5146 356.145C52.84 356.901 61.0493 356.691 62.7168 355.851C63.1444 355.641 64.6836 355.306 66.1374 355.138C67.5911 354.97 69.0021 354.592 69.3014 354.256C69.5579 353.92 70.3275 353.668 71.0116 353.668C71.6957 353.668 72.2516 353.459 72.2516 353.207C72.2516 352.997 72.4654 352.913 72.7219 353.081C72.9785 353.207 73.7481 352.955 74.4322 352.451C75.0735 351.989 75.9287 351.57 76.3135 351.57C76.6555 351.57 76.9548 351.402 76.9548 351.15C76.9548 350.94 77.4679 350.604 78.152 350.478C78.7934 350.31 79.6485 349.848 80.0761 349.429C80.5036 348.967 81.0595 348.631 81.3588 348.631C81.6581 348.631 83.0263 347.582 84.4372 346.322C85.8482 345.063 87.2164 344.013 87.4302 344.013C87.8578 344.013 89.7391 341.746 91.9197 338.556C92.4755 337.759 93.1596 336.961 93.3734 336.793C93.6299 336.625 93.7155 336.415 93.5872 336.247C93.4589 336.121 93.972 335.366 94.7416 334.526C95.554 333.729 96.3236 332.553 96.4519 331.923C96.5802 331.294 97.1787 329.867 97.7346 328.733C98.2904 327.558 98.7607 326.34 98.7607 325.963C98.7607 325.585 98.889 325.123 99.06 324.955C100.214 323.864 100.984 312.277 100.257 307.324C99.7014 303.504 96.4946 294.688 95.5112 294.311C95.1692 294.185 94.9126 293.807 94.9126 293.471C94.9126 292.296 92.9886 288.601 92.2617 288.35C91.8342 288.224 91.4921 287.846 91.4921 287.51C91.4921 287.216 90.637 286.125 89.6108 285.159C88.5846 284.152 87.644 282.934 87.473 282.473C87.3019 281.969 86.5323 280.919 85.7627 280.122C83.7104 278.065 81.2732 272.44 80.0333 266.815C77.7672 256.74 78.9216 243.181 82.4704 238.311C82.898 237.681 83.3256 236.842 83.4111 236.464C83.6676 235.331 88.9267 228.278 90.9363 226.305C94.143 223.241 95.5112 222.107 97.478 220.806C98.547 220.134 99.4876 219.463 99.6159 219.295C99.7441 219.127 100.984 218.581 102.395 218.077C103.806 217.532 105.131 216.986 105.388 216.776C105.602 216.566 106.115 216.398 106.5 216.398C106.885 216.398 107.44 216.104 107.74 215.768C108.039 215.433 108.894 215.139 109.621 215.139C110.348 215.139 111.331 214.845 111.759 214.509C112.229 214.173 113.341 213.879 114.196 213.879C115.094 213.879 115.863 213.67 115.949 213.418C116.034 213.166 117.061 212.872 118.215 212.746C119.412 212.662 120.866 212.368 121.55 212.116C122.405 211.78 122.876 211.822 123.346 212.2C123.859 212.62 124.115 212.62 124.629 212.2C125.099 211.822 125.441 211.906 126.211 212.62C126.98 213.334 127.536 213.46 128.776 213.292C129.802 213.124 130.401 213.208 130.572 213.586C130.786 213.963 130.871 213.963 131.085 213.544C131.384 212.956 132.539 212.872 132.539 213.46C132.539 213.67 132.795 213.879 133.137 213.879C133.479 213.879 133.821 214.131 133.95 214.383C134.078 214.803 134.249 214.803 134.847 214.341C135.446 213.837 135.66 213.837 136.301 214.383C136.686 214.761 137.798 215.181 138.738 215.349C140.577 215.643 142.886 216.776 145.537 218.581C146.434 219.253 147.461 219.756 147.76 219.756C148.059 219.756 148.359 219.924 148.444 220.092C148.743 220.848 154.601 224.374 155.499 224.374C156.012 224.374 156.525 224.542 156.696 224.752C156.824 224.962 157.637 225.382 158.535 225.675C159.39 225.927 160.972 226.557 162.041 227.019C164.093 227.9 164.777 228.11 169.523 229.202C171.191 229.579 173.115 230.083 173.884 230.293C174.825 230.587 175.552 230.587 176.108 230.293C176.663 229.957 177.048 229.957 177.219 230.251C177.39 230.503 178.203 230.545 179.186 230.419C180.127 230.251 181.238 230.083 181.623 230.041C184.018 229.789 186.027 229.244 186.455 228.74C186.711 228.404 187.481 228.152 188.165 228.152C189.405 228.152 189.662 228.068 192.27 226.725C192.997 226.347 193.809 226.053 194.108 226.053C194.365 226.053 195.263 225.549 196.075 224.962C196.887 224.332 197.999 223.828 198.598 223.828C199.196 223.828 199.667 223.66 199.667 223.451C199.667 222.989 203.557 219.337 204.028 219.337C204.498 219.337 209.928 214.005 209.928 213.502C209.928 213.292 210.313 212.998 210.741 212.83C211.211 212.704 212.023 211.697 212.536 210.605C213.049 209.514 214.076 207.792 214.76 206.785C215.444 205.778 216.042 204.518 216.042 203.93C216.042 203.343 216.727 201.034 217.624 198.767C219.078 195.031 219.249 194.191 219.335 190.077C219.42 187.601 219.42 185.25 219.42 184.914C219.292 183.067 218.993 181.682 218.608 180.926C218.351 180.464 218.009 179.373 217.881 178.449C217.71 177.568 217.411 176.518 217.197 176.141C217.026 175.763 216.598 174.629 216.299 173.58C216 172.53 215.187 170.683 214.546 169.466C213.905 168.249 213.349 167.031 213.349 166.695C213.349 166.402 212.707 165.31 211.938 164.303C211.168 163.295 210.27 161.826 209.971 161.112C209.672 160.357 209.201 159.853 208.988 159.979C208.346 160.399 206.935 158.845 206.935 157.712C206.935 156.998 206.764 156.746 206.337 156.914C205.909 157.082 205.781 156.956 205.952 156.578C206.08 156.159 205.781 155.823 205.054 155.529C204.413 155.319 203.728 154.689 203.515 154.186C202.574 151.919 199.068 149.484 197.4 149.862C196.545 150.072 196.332 149.988 196.374 149.358C196.46 148.854 196.118 148.561 195.391 148.477C194.792 148.393 194.151 148.141 193.894 147.973C192.612 146.965 189.704 145.664 187.267 144.992C185.044 144.363 183.205 144.195 177.861 144.237C174.226 144.279 170.678 144.405 169.951 144.489Z" fill="#7F3AF5"/>
</g>
<g filter="url(#filter2_f_473_336)">
<path d="M100.118 18.7107C104.469 13.8758 114.824 9.44377 119.457 7.83214C125.259 4.93121 141.617 5.81761 149.071 6.62342C151.488 6.62342 158.942 9.44377 162.367 10.854C173.487 15.2054 180.296 23.1426 182.311 26.5673C187.629 28.9848 193.391 47.72 195.607 56.7854C196.574 63.0708 202.053 74.3119 204.672 79.1468C207.09 84.4652 212.529 89.4209 214.946 91.234C216.88 94.6184 231.063 101.105 237.912 103.926C242.264 106.827 254.633 106.343 260.274 105.739L268.735 103.926L277.196 101.508C279.613 100.058 293.111 99.6951 299.557 99.6951C304.392 99.2116 314.868 103.12 319.501 105.134C326.27 106.101 336.423 118.027 340.654 123.87C344.522 128.221 347.906 137.77 349.115 142C351.049 146.352 351.532 151.469 351.532 153.483C352.983 157.835 351.331 167.384 350.323 171.614L347.906 178.262L346.093 183.097C346.093 185.031 338.841 194.378 335.214 198.81C332.797 204.129 316.479 210.696 308.622 213.315L299.557 215.732L287.47 219.359L278.404 224.194L271.756 229.028C264.988 233.38 259.266 242.526 257.252 246.555C252.9 252.84 251.007 264.484 250.604 269.521C249.153 273.872 252.014 285.838 253.626 291.278C254.109 292.728 256.244 301.955 257.252 306.387V312.43C258.702 318.716 255.842 328.748 254.23 332.979C253.263 336.847 247.38 345.872 244.56 349.901C241.176 354.252 233.48 360.578 230.055 363.197C221.836 370.449 204.874 372.262 197.42 372.262C194.519 372.746 182.915 369.643 177.476 368.032C169.74 365.131 162.971 359.168 160.554 356.549C152.818 350.263 147.661 340.231 146.049 336C140.731 327.298 141.013 310.214 141.819 302.76C143.753 290.19 151.488 278.586 155.115 274.356C160.433 267.103 175.864 260.858 182.915 258.642C192.102 257.192 209.306 249.174 216.759 245.346L228.847 236.281L236.099 227.82C239 223.468 243.754 212.308 245.769 207.271C248.186 199.052 248.791 190.551 248.791 187.327C248.307 175.24 244.56 164.16 242.747 160.131C240.33 152.395 234.89 144.418 232.473 141.396C225.704 133.66 214.342 126.086 209.507 123.265C204.672 119.881 195.002 117.423 190.772 116.617C185.454 114.2 175.663 114.804 171.432 115.408L149.071 120.848C136.984 124.232 123.486 120.646 118.249 118.43C108.579 116.013 99.3119 107.753 95.8872 103.926C88.1514 98.1237 83.3971 85.3919 81.987 79.7512C77.1521 68.6309 80.3754 51.7491 82.5914 44.6982C83.5583 40.3468 86.6204 34.424 88.0306 32.0066C90.9315 27.1717 97.2975 21.1281 100.118 18.7107Z" fill="#A861FA"/>
<path d="M100.118 18.7107C104.469 13.8758 114.824 9.44377 119.457 7.83214C125.259 4.93121 141.617 5.81761 149.071 6.62342C151.488 6.62342 158.942 9.44377 162.367 10.854C173.487 15.2054 180.296 23.1426 182.311 26.5673C187.629 28.9848 193.391 47.72 195.607 56.7854C196.574 63.0708 202.053 74.3119 204.672 79.1468C207.09 84.4652 212.529 89.4209 214.946 91.234C216.88 94.6184 231.063 101.105 237.912 103.926C242.264 106.827 254.633 106.343 260.274 105.739L268.735 103.926L277.196 101.508C279.613 100.058 293.111 99.6951 299.557 99.6951C304.392 99.2116 314.868 103.12 319.501 105.134C326.27 106.101 336.423 118.027 340.654 123.87C344.522 128.221 347.906 137.77 349.115 142C351.049 146.352 351.532 151.469 351.532 153.483C352.983 157.835 351.331 167.384 350.323 171.614L347.906 178.262L346.093 183.097C346.093 185.031 338.841 194.378 335.214 198.81C332.797 204.129 316.479 210.696 308.622 213.315L299.557 215.732L287.47 219.359L278.404 224.194L271.756 229.028C264.988 233.38 259.266 242.526 257.252 246.555C252.9 252.84 251.007 264.484 250.604 269.521C249.153 273.872 252.014 285.838 253.626 291.278C254.109 292.728 256.244 301.955 257.252 306.387V312.43C258.702 318.716 255.842 328.748 254.23 332.979C253.263 336.847 247.38 345.872 244.56 349.901C241.176 354.252 233.48 360.578 230.055 363.197C221.836 370.449 204.874 372.262 197.42 372.262C194.519 372.746 182.915 369.643 177.476 368.032C169.74 365.131 162.971 359.168 160.554 356.549C152.818 350.263 147.661 340.231 146.049 336C140.731 327.298 141.013 310.214 141.819 302.76C143.753 290.19 151.488 278.586 155.115 274.356C160.433 267.103 175.864 260.858 182.915 258.642C192.102 257.192 209.306 249.174 216.759 245.346L228.847 236.281L236.099 227.82C239 223.468 243.754 212.308 245.769 207.271C248.186 199.052 248.791 190.551 248.791 187.327C248.307 175.24 244.56 164.16 242.747 160.131C240.33 152.395 234.89 144.418 232.473 141.396C225.704 133.66 214.342 126.086 209.507 123.265C204.672 119.881 195.002 117.423 190.772 116.617C185.454 114.2 175.663 114.804 171.432 115.408L149.071 120.848C136.984 124.232 123.486 120.646 118.249 118.43C108.579 116.013 99.3119 107.753 95.8872 103.926C88.1514 98.1237 83.3971 85.3919 81.987 79.7512C77.1521 68.6309 80.3754 51.7491 82.5914 44.6982C83.5583 40.3468 86.6204 34.424 88.0306 32.0066C90.9315 27.1717 97.2975 21.1281 100.118 18.7107Z" stroke="#A861FA" strokeWidth="1.20872"/>
</g>
<g filter="url(#filter3_f_473_336)">
<path d="M102.535 19.9193C106.886 15.0844 117.845 11.2572 122.479 9.64552C129.127 7.83272 142.826 7.63104 150.279 8.43686C152.697 8.43686 160.151 11.8615 163.575 13.2717C174.696 17.6231 177.274 25.5604 179.289 28.9851C184.607 31.4025 189.16 49.5334 191.376 58.5988C192.343 64.8842 197.822 77.9384 200.441 82.7733C204.672 88.2125 211.924 94.2561 214.342 96.0692C223.407 103.926 231.264 107.552 237.912 109.365C242.263 112.266 256.446 111.178 262.086 110.574L272.36 109.365L282.635 105.739C285.052 104.289 294.923 103.322 301.37 103.322C306.205 102.838 315.471 106.142 320.105 108.156C326.874 109.123 336.423 119.841 340.653 125.683C344.521 130.034 346.092 138.375 347.301 142.605C349.235 146.956 351.532 152.275 350.927 154.088C351.532 163.758 350.323 167.988 348.51 171.614L346.092 178.867L343.071 183.702C343.071 185.636 335.818 193.371 331.588 196.998C324.537 203.041 319.501 205.459 307.413 209.085L300.867 209.689L295.326 211.502L285.052 215.733L274.778 221.172L268.734 225.403C262.086 230.237 256.244 240.713 254.23 244.742C249.878 251.027 247.38 264.485 246.977 269.521C245.527 273.872 247.783 287.652 249.395 293.091C249.878 294.542 252.618 303.164 253.625 307.596L254.23 314.244C255.68 320.529 252.819 329.353 251.208 333.583C250.241 337.451 245.567 344.663 242.747 348.692C239.362 353.044 232.473 358.966 228.242 360.78C220.023 368.032 205.478 369.241 198.024 369.241C195.123 369.724 185.332 365.413 179.893 363.801C172.157 360.9 168.41 358.362 163.575 353.527C155.839 347.242 153.1 339.022 151.488 334.792C146.17 326.089 147.056 311.423 147.862 303.97C149.796 291.399 158.136 282.817 161.762 278.586C167.081 271.334 179.49 266.298 186.541 264.082C201.65 262.873 214.745 255.822 222.199 251.994L234.89 240.511L243.351 230.237C246.252 225.886 252.215 214.725 254.23 209.689C256.647 201.469 257.252 189.342 257.252 186.119C256.768 174.031 253.021 159.325 251.208 155.296C248.791 147.56 240.934 138.374 238.516 135.352C231.748 127.616 220.386 119.437 215.551 116.617C210.716 113.233 196.815 109.566 192.585 108.76C187.267 106.343 175.663 107.552 171.432 108.156L146.049 114.2C132.753 116.617 125.904 113.394 120.666 111.178C110.996 108.76 104.751 104.127 101.326 100.299C93.5906 94.4975 87.6272 83.5787 86.2171 77.938C83.4975 67.0595 84.0011 52.3533 86.2171 45.3024C87.1841 40.951 89.6418 35.0283 91.0519 32.6109C93.9529 27.776 99.7145 22.3367 102.535 19.9193Z" fill="#A861FA"/>
<path d="M102.535 19.9193C106.886 15.0844 117.845 11.2572 122.479 9.64552C129.127 7.83272 142.826 7.63104 150.279 8.43686C152.697 8.43686 160.151 11.8615 163.575 13.2717C174.696 17.6231 177.274 25.5604 179.289 28.9851C184.607 31.4025 189.16 49.5334 191.376 58.5988C192.343 64.8842 197.822 77.9384 200.441 82.7733C204.672 88.2125 211.924 94.2561 214.342 96.0692C223.407 103.926 231.264 107.552 237.912 109.365C242.263 112.266 256.446 111.178 262.086 110.574L272.36 109.365L282.635 105.739C285.052 104.289 294.923 103.322 301.37 103.322C306.205 102.838 315.471 106.142 320.105 108.156C326.874 109.123 336.423 119.841 340.653 125.683C344.521 130.034 346.092 138.375 347.301 142.605C349.235 146.956 351.532 152.275 350.927 154.088C351.532 163.758 350.323 167.988 348.51 171.614L346.092 178.867L343.071 183.702C343.071 185.636 335.818 193.371 331.588 196.998C324.537 203.041 319.501 205.459 307.413 209.085L300.867 209.689L295.326 211.502L285.052 215.733L274.778 221.172L268.734 225.403C262.086 230.237 256.244 240.713 254.23 244.742C249.878 251.027 247.38 264.485 246.977 269.521C245.527 273.872 247.783 287.652 249.395 293.091C249.878 294.542 252.618 303.164 253.625 307.596L254.23 314.244C255.68 320.529 252.819 329.353 251.208 333.583C250.241 337.451 245.567 344.663 242.747 348.692C239.362 353.044 232.473 358.966 228.242 360.78C220.023 368.032 205.478 369.241 198.024 369.241C195.123 369.724 185.332 365.413 179.893 363.801C172.157 360.9 168.41 358.362 163.575 353.527C155.839 347.242 153.1 339.022 151.488 334.792C146.17 326.089 147.056 311.423 147.862 303.97C149.796 291.399 158.136 282.817 161.762 278.586C167.081 271.334 179.49 266.298 186.541 264.082C201.65 262.873 214.745 255.822 222.199 251.994L234.89 240.511L243.351 230.237C246.252 225.886 252.215 214.725 254.23 209.689C256.647 201.469 257.252 189.342 257.252 186.119C256.768 174.031 253.021 159.325 251.208 155.296C248.791 147.56 240.934 138.374 238.516 135.352C231.748 127.616 220.386 119.437 215.551 116.617C210.716 113.233 196.815 109.566 192.585 108.76C187.267 106.343 175.663 107.552 171.432 108.156L146.049 114.2C132.753 116.617 125.904 113.394 120.666 111.178C110.996 108.76 104.751 104.127 101.326 100.299C93.5906 94.4975 87.6272 83.5787 86.2171 77.938C83.4975 67.0595 84.0011 52.3533 86.2171 45.3024C87.1841 40.951 89.6418 35.0283 91.0519 32.6109C93.9529 27.776 99.7145 22.3367 102.535 19.9193Z" stroke="#A861FA" strokeWidth="1.20872"/>
</g>
<g filter="url(#filter4_f_473_336)">
<path d="M133.196 15.942C131.576 16.0727 128.651 16.6391 126.671 17.1183C124.69 17.5975 122.665 18.0332 122.215 18.0332C120.01 18.0332 109.165 22.8692 108.265 24.2198C107.995 24.6555 107.454 25.004 107.004 25.004C106.599 25.004 106.194 25.1783 106.104 25.3526C106.059 25.5704 105.069 26.311 103.944 27.0953C101.379 28.7944 97.0139 32.8462 96.6089 33.8047C96.4739 34.2403 96.1139 34.5889 95.8889 34.5889C95.6189 34.5889 94.4938 35.8959 93.3237 37.5079C92.1537 39.1635 90.8486 40.8626 90.4436 41.3418C88.3735 43.7816 85.5833 52.3208 84.5933 59.4223C83.5132 67.1773 85.6283 83.1666 87.9685 84.7786C88.1935 84.9529 88.4185 85.6935 88.4635 86.4777C88.5085 87.2184 88.7335 88.264 88.9585 88.7868C90.6236 92.2286 92.5137 95.6705 93.4137 96.7161C93.9988 97.4132 94.8088 98.4152 95.2588 98.9816C98.274 102.728 100.524 104.907 102.279 105.822C103.224 106.301 105.024 107.608 106.329 108.741C107.59 109.917 108.85 110.832 109.12 110.832C109.39 110.832 111.415 111.703 113.62 112.792C115.87 113.882 118.03 114.753 118.525 114.753C118.975 114.753 119.92 115.232 120.64 115.842C122.08 117.019 124.555 117.803 126.716 117.803C127.481 117.803 128.381 118.064 128.651 118.369C128.921 118.718 130.226 119.023 131.711 119.066C133.151 119.11 134.501 119.328 134.816 119.589C135.086 119.807 135.401 119.894 135.491 119.807C135.581 119.72 137.741 119.545 140.306 119.415C142.826 119.284 145.122 119.023 145.437 118.848C145.707 118.674 146.382 118.5 146.877 118.413C147.957 118.282 152.412 117.149 153.582 116.714C154.122 116.496 154.347 116.626 154.392 117.193C154.392 117.672 154.527 117.803 154.662 117.454C154.977 116.67 157.272 115.624 158.712 115.624C159.387 115.624 160.287 115.45 160.647 115.189C161.052 114.927 161.412 114.971 161.592 115.276C161.817 115.581 162.402 115.407 163.392 114.709C165.058 113.577 165.508 113.402 167.848 113.185C168.703 113.141 169.918 112.923 170.548 112.749C171.943 112.4 185.354 112.313 188.144 112.662C189.269 112.792 190.979 113.141 191.879 113.446C192.824 113.707 193.679 113.838 193.814 113.707C193.949 113.577 194.759 113.751 195.614 114.1C196.424 114.448 197.414 114.622 197.819 114.448C198.179 114.317 198.809 114.492 199.259 114.884C199.664 115.232 200.699 115.537 201.51 115.537C202.365 115.537 203.265 115.842 203.535 116.191C203.85 116.539 204.885 116.975 205.875 117.149C207.855 117.454 216.9 121.506 216.9 122.029C216.9 122.421 217.575 122.813 220.861 124.294C221.896 124.774 222.751 125.34 222.751 125.514C222.751 125.732 223.561 126.211 224.551 126.647C225.541 127.039 226.351 127.562 226.351 127.823C226.351 128.041 226.576 128.259 226.846 128.259C227.296 128.259 235.081 135.709 237.691 138.628C238.367 139.412 239.132 140.022 239.402 140.022C239.627 140.022 239.852 140.327 239.852 140.676C239.852 141.024 240.257 141.503 240.752 141.765C241.247 142.026 241.652 142.506 241.652 142.854C241.652 143.203 242.057 143.725 242.507 144.03C243.002 144.379 243.632 145.163 243.947 145.817C244.262 146.47 244.622 146.993 244.757 146.993C244.937 146.993 245.432 147.734 245.927 148.605C246.422 149.52 246.917 150.348 247.052 150.478C248.042 151.437 249.527 154.051 250.472 156.491C251.102 158.103 251.777 159.584 251.957 159.845C252.137 160.063 252.542 161.37 252.857 162.677C253.217 163.984 253.622 165.248 253.802 165.509C253.982 165.727 254.387 167.688 254.657 169.866C255.287 174.048 256.277 179.015 256.953 181.193C257.853 184.156 257.403 198.577 256.232 203.021C255.872 204.415 255.377 206.375 255.197 207.334C254.972 208.292 254.477 209.948 254.072 211.037C253.622 212.126 253.037 214.087 252.722 215.394C252.407 216.701 251.822 218.357 251.417 219.097C251.012 219.794 250.382 221.101 249.932 221.929C248.177 225.589 246.872 227.854 246.107 228.726C245.612 229.205 245.252 229.728 245.252 229.902C245.252 230.207 241.922 234.215 236.296 240.707C231.616 246.153 230.626 247.155 230.086 247.198C229.771 247.198 228.961 247.895 228.286 248.723C227.611 249.551 226.801 250.248 226.531 250.248C226.261 250.248 225.181 251.032 224.101 251.991C223.021 252.949 221.806 253.733 221.401 253.733C220.951 253.733 220.231 254.213 219.781 254.822C219.33 255.432 218.565 255.912 218.07 255.912C217.575 255.912 216.81 256.217 216.36 256.652C215.505 257.393 212.22 258.831 207.315 260.53C204.66 261.445 201.915 262.098 193.049 263.797C191.924 264.015 190.259 264.494 189.314 264.843C188.414 265.192 186.614 265.497 185.399 265.497C184.139 265.497 183.149 265.671 183.149 265.889C183.149 266.106 182.564 266.411 181.798 266.586C181.078 266.76 180.448 267.021 180.448 267.196C180.448 267.413 179.188 267.98 177.658 268.546C176.083 269.069 173.653 270.202 172.213 270.986C170.773 271.814 169.513 272.467 169.423 272.467C169.153 272.467 167.173 274.079 164.878 276.171C163.843 277.129 162.582 278.218 162.132 278.654C161.682 279.046 160.197 280.571 158.847 282.096C157.497 283.577 155.922 285.276 155.382 285.799C154.842 286.365 154.257 287.28 154.077 287.803C153.942 288.369 153.447 289.284 152.997 289.894C152.592 290.504 152.097 291.55 151.917 292.291C151.737 292.988 151.332 293.903 151.017 294.251C149.982 295.427 148.812 301.091 148.317 307.452C148.272 307.626 148.002 307.975 147.642 308.149C147.192 308.41 147.012 309.543 147.012 311.939C146.967 316.95 147.237 321.394 147.597 322.134C147.822 322.483 148.092 323.572 148.227 324.53C148.407 325.445 148.677 326.36 148.902 326.491C149.127 326.622 149.487 327.667 149.757 328.887C150.027 330.064 150.657 331.85 151.197 332.808C151.692 333.723 152.097 334.856 152.097 335.335C152.097 336.337 155.157 341.827 155.967 342.306C156.327 342.48 156.597 342.916 156.597 343.221C156.597 343.569 156.912 344.049 157.272 344.354C157.632 344.659 157.947 345.269 157.947 345.748C157.947 346.183 158.127 346.488 158.352 346.358C158.757 346.096 161.412 349.146 161.187 349.669C161.142 349.887 161.322 350.017 161.592 350.017C161.817 350.017 163.438 351.412 165.193 353.067C166.903 354.766 168.478 356.117 168.703 356.117C168.928 356.117 170.728 356.988 172.753 358.077C174.778 359.167 176.623 360.038 176.893 360.038C177.478 360.038 180.898 361.694 181.798 362.434C182.159 362.739 183.104 362.957 183.914 362.957C184.724 362.957 185.669 363.218 186.119 363.567C187.109 364.351 189.854 365.266 191.294 365.266C191.924 365.266 192.824 365.571 193.319 365.92C193.769 366.268 194.714 366.573 195.389 366.573C196.064 366.573 196.739 366.791 196.874 367.009C197.054 367.27 197.414 367.314 197.684 367.139C197.999 366.965 200.88 366.747 204.165 366.704C209.115 366.617 210.33 366.442 211.68 365.702C212.58 365.222 214.155 364.7 215.235 364.569C216.27 364.395 217.44 364.046 217.8 363.741C218.16 363.48 219.06 363.218 219.781 363.175C220.501 363.131 221.446 362.826 221.806 362.478C222.211 362.173 222.976 361.737 223.471 361.606C224.011 361.432 224.776 360.953 225.226 360.474C225.631 360.038 226.261 359.777 226.666 359.907C227.026 360.038 227.611 359.777 227.971 359.21C228.331 358.731 229.096 358.295 229.636 358.295C230.221 358.295 230.806 357.903 231.076 357.337C231.391 356.596 231.886 356.335 232.876 356.335C233.776 356.335 234.271 356.073 234.361 355.551C234.451 355.158 234.811 354.81 235.171 354.81C235.531 354.81 235.801 354.505 235.801 354.156C235.801 353.808 236.206 353.503 236.701 353.503C237.286 353.503 237.871 352.98 238.367 351.978C238.772 351.15 239.267 350.453 239.447 350.453C239.987 350.453 242.552 347.708 242.552 347.142C242.552 346.881 243.137 345.966 243.902 345.181C244.622 344.354 245.252 343.352 245.252 342.916C245.252 342.524 245.432 342.175 245.702 342.175C245.927 342.175 246.287 341.652 246.422 340.955C246.602 340.302 247.322 339.082 248.042 338.254C248.717 337.426 249.302 336.381 249.302 335.945C249.302 335.509 249.707 334.29 250.202 333.2C251.642 330.238 252.092 329.018 252.272 327.58C252.407 326.84 252.677 325.794 252.902 325.184C254.027 322.309 254.117 311.983 253.127 308.41C252.767 307.191 252.362 305.274 252.227 304.097C252.092 302.877 251.687 301.44 251.327 300.83C249.842 298.172 245.837 280.614 246.377 279.002C246.512 278.567 246.422 278.088 246.152 277.913C245.837 277.739 245.747 276.998 245.882 275.996C246.287 273.644 247.142 266.281 247.097 265.279C247.097 264.843 247.277 264.233 247.457 263.972C247.682 263.754 247.997 262.273 248.132 260.704C248.312 259.136 248.762 257.393 249.167 256.827C249.527 256.26 249.887 255.389 249.977 254.866C250.382 252.252 253.622 245.848 256.953 241.012C257.988 239.487 258.888 238.005 258.933 237.657C259.023 237.352 259.428 236.742 259.923 236.35C260.418 235.958 261.633 234.607 262.578 233.344C263.568 232.124 264.513 231.078 264.693 231.078C264.873 231.078 265.053 230.817 265.053 230.512C265.053 229.684 266.538 228.464 267.438 228.464C267.843 228.464 268.203 228.246 268.203 227.985C268.203 227.419 269.328 226.286 269.913 226.286C270.183 226.286 270.453 226.024 270.588 225.719C270.903 224.979 275.403 222.016 278.329 220.666C279.589 220.099 280.894 219.402 281.254 219.097C281.614 218.792 282.559 218.4 283.369 218.269C284.134 218.095 284.899 217.659 285.034 217.311C285.169 216.962 285.709 216.701 286.249 216.701C286.789 216.701 287.959 216.265 288.859 215.699C290.704 214.61 294.169 213.651 295.07 213.956C295.385 214.087 295.655 213.956 295.655 213.695C295.655 213.433 296.15 213.216 296.735 213.216C297.365 213.216 297.95 213.041 298.13 212.78C298.265 212.562 298.67 212.475 298.985 212.606C299.3 212.736 299.84 212.518 300.155 212.126C300.515 211.691 301.55 211.473 303.26 211.429C306.005 211.429 310.235 210.645 311.63 209.904C312.125 209.643 312.755 209.469 313.026 209.599C313.296 209.687 313.791 209.469 314.106 209.077C314.421 208.728 315.006 208.423 315.366 208.423C316.581 208.423 324.861 204.328 324.861 203.718C324.906 203.413 325.086 203.239 325.356 203.413C325.986 203.761 329.631 201.539 332.152 199.274C332.512 198.925 333.457 198.098 334.177 197.488C334.897 196.878 336.292 195.44 337.282 194.307C338.272 193.131 339.622 191.563 340.342 190.778C341.017 189.994 341.557 189.166 341.557 188.948C341.557 188.382 342.997 185.724 344.212 184.112C344.797 183.328 345.292 182.457 345.337 182.152C345.382 181.847 345.967 180.627 346.642 179.364C347.317 178.1 347.857 176.575 347.857 175.965C347.857 175.355 348.037 174.876 348.262 174.876C348.487 174.876 348.757 174.353 348.892 173.656C349.027 173.003 349.432 171.478 349.747 170.302C350.423 167.731 350.378 159.148 349.612 154.617C349.342 152.962 348.712 150.74 348.217 149.651C347.767 148.561 347.137 146.732 346.912 145.642C346.642 144.51 346.147 143.333 345.787 143.028C345.427 142.767 345.157 142.113 345.157 141.591C345.112 140.327 343.717 136.537 342.772 135.23C342.367 134.663 342.007 133.792 342.007 133.356C342.007 132.921 341.827 132.659 341.557 132.834C341.332 132.964 340.927 132.267 340.612 131.309C340.297 130.35 339.892 129.566 339.667 129.566C339.487 129.566 339.307 129.305 339.307 128.956C339.307 128.651 338.992 128.128 338.632 127.823C338.272 127.518 337.957 126.908 337.957 126.473C337.957 126.037 337.642 125.514 337.282 125.34C336.922 125.122 336.112 124.338 335.527 123.51C334.177 121.724 328.461 116.931 327.741 116.931C327.426 116.931 327.156 116.714 327.156 116.496C327.156 116.234 326.751 116.06 326.256 116.06C325.761 116.06 325.356 115.886 325.356 115.668C325.356 115.45 324.186 114.753 322.791 114.056C321.351 113.359 320.091 112.705 319.956 112.575C319.821 112.444 319.056 112.313 318.201 112.27C317.346 112.226 316.356 111.921 315.951 111.573C314.061 110.091 309.875 109.351 300.335 108.828C294.395 108.523 288.859 109.307 280.804 111.573C278.689 112.139 274.998 113.185 272.613 113.882C270.228 114.535 268.068 115.189 267.888 115.319C267.483 115.581 257.538 116.496 253.217 116.67C252.047 116.714 250.877 116.539 250.652 116.278C250.067 115.624 244.352 115.45 244.352 116.104C244.352 116.452 244.172 116.452 243.677 116.06C243.317 115.799 242.327 115.494 241.472 115.407C240.617 115.319 239.492 115.014 238.952 114.753C238.367 114.448 237.376 114.143 236.746 114.1C234.451 113.838 232.246 113.097 231.481 112.4C231.076 111.965 230.446 111.747 230.086 111.878C229.726 112.052 228.916 111.747 228.286 111.268C227.656 110.788 226.756 110.396 226.306 110.396C225.856 110.396 225.226 110.004 224.911 109.525C224.596 109.046 224.056 108.654 223.741 108.654C223.426 108.654 222.616 108.044 221.986 107.347C221.401 106.606 220.501 106.04 220.006 106.04C219.556 106.04 219.15 105.778 219.15 105.473C219.15 104.994 217.215 103.643 215.415 102.903C215.01 102.728 214.515 102.293 214.38 101.901C214.2 101.552 213.75 101.247 213.3 101.247C212.85 101.247 212.4 100.942 212.22 100.594C212.085 100.245 211.68 99.9401 211.275 99.9401C210.915 99.9401 210.06 99.1559 209.43 98.1974C208.755 97.2389 207.945 96.4547 207.63 96.4547C207.315 96.4547 206.91 96.019 206.775 95.4526C206.595 94.9298 205.605 93.7099 204.615 92.7515C202.455 90.7038 201.15 89.1789 201.15 88.6997C201.15 88.5254 200.745 88.0462 200.249 87.6105C199.754 87.2184 199.349 86.6084 199.349 86.3035C199.349 85.9549 198.764 84.9093 198.044 83.9508C196.244 81.5546 193.769 76.2394 193.319 73.7996C193.274 73.6689 193.049 72.9718 192.779 72.2747C191.654 69.2686 191.159 67.5695 191.024 65.8268C190.754 62.8206 189.854 58.8124 188.189 53.3229C187.784 52.0159 187.424 50.491 187.424 49.9682C187.379 49.4018 186.929 48.3998 186.389 47.6591C185.804 46.9185 185.489 46.1343 185.624 45.9164C185.759 45.6986 185.669 45.4372 185.444 45.3065C185.264 45.1758 184.949 44.3044 184.814 43.4331C184.634 42.5181 184.004 41.2547 183.374 40.6012C182.744 39.9477 182.249 39.1635 182.249 38.8149C182.249 38.4664 181.843 37.8564 181.348 37.4208C180.853 36.9851 180.448 36.3751 180.448 36.0266C180.448 35.7216 180.133 35.4602 179.773 35.4602C179.413 35.4602 178.873 35.0245 178.603 34.5017C178.333 33.9789 177.883 33.3254 177.703 33.1076C177.478 32.8462 176.803 32.0184 176.173 31.2777C175.543 30.4935 175.048 29.7093 175.048 29.4479C175.048 29.2301 174.553 28.7073 173.923 28.3152C173.293 27.923 172.798 27.3567 172.798 27.0517C172.798 25.4397 164.068 20.6473 157.947 18.9046C156.102 18.3818 153.897 17.6847 153.042 17.2926C152.232 16.944 151.017 16.5519 150.342 16.4648C149.712 16.3777 147.597 16.1163 145.707 15.8549C142.151 15.3756 138.506 15.3756 133.196 15.942Z" fill="#7F3AF5"/>
</g>
<path d="M110.558 5.51805C97.9869 11.3199 85.0939 24.213 78.8085 37.106C69.9445 55.6398 72.2008 80.1366 84.288 99.315C90.5734 109.307 105.562 120.75 117.165 124.779C128.93 128.647 151.171 128.324 160.84 124.134C174.378 118.171 195.974 121.717 212.574 132.515C245.773 154.11 251.898 197.302 226.273 229.374C217.57 240.655 207.9 245.812 187.594 250.325C159.874 256.449 141.34 275.466 135.86 303.186C130.542 329.295 147.142 360.883 171.961 372.164C181.953 376.838 198.391 379.094 209.028 377.482C230.302 374.42 252.059 356.37 258.989 335.902C263.824 321.559 263.985 310.439 259.472 293.355C254.637 274.822 255.121 263.701 261.245 251.614C269.142 235.659 283.324 225.506 302.825 221.477C339.087 214.063 362.778 181.992 356.654 148.309C349.562 108.501 313.14 87.2277 270.754 98.0257C249.803 103.505 232.075 99.315 216.925 85.4549C208.222 77.558 204.999 71.4338 200.648 54.1893C198.714 46.7758 195.491 37.2672 193.234 33.0769C188.077 22.7625 176.151 11.3199 165.192 5.84038C157.295 1.97246 154.072 1.48897 138.439 1.16665C121.678 0.683159 120.066 1.00548 110.558 5.51805ZM161.969 10.6753C180.341 19.0557 189.689 31.4653 195.491 55.4786C200.164 74.1735 204.032 81.4259 214.347 90.7733C230.302 105.439 250.125 109.952 269.948 103.666C287.676 98.1868 304.598 98.5092 317.652 104.472C343.599 116.237 358.104 148.309 349.562 174.9C341.988 198.914 326.355 211.001 294.445 218.253C282.035 220.993 267.853 230.824 260.923 241.3C249.964 257.738 248.03 272.082 253.832 291.583C262.373 320.431 254.96 345.089 233.042 361.688C203.71 383.607 161.807 372.325 146.336 338.32C140.05 324.782 139.083 306.571 144.08 293.516C151.815 273.049 165.192 262.573 192.267 255.804C216.281 249.841 231.913 237.271 241.744 215.836C261.084 173.45 234.009 124.295 186.949 116.237C176.796 114.464 174.701 114.787 158.262 118.977C137.15 124.456 127.48 123.973 112.33 116.721C79.6143 100.765 68.9776 57.4126 90.7346 28.7255C97.5034 19.5392 109.107 11.3199 119.744 7.9355C131.187 4.22875 150.848 5.51805 161.969 10.6753Z" fill="#DDB7FD"/>
<defs>
<filter id="filter0_f_473_336" x="4.69384" y="133.67" width="224.114" height="240.542" filterUnits="userSpaceOnUse" color-interpolation-filters="sRGB">
<feFlood flood-opacity="0" result="BackgroundImageFix"/>
<feBlend mode="normal" in="SourceGraphic" in2="BackgroundImageFix" result="shape"/>
<feGaussianBlur stdDeviation="2.34675" result="effect1_foregroundBlur_473_336"/>
</filter>
<filter id="filter1_f_473_336" x="8.213" y="139.537" width="215.901" height="221.767" filterUnits="userSpaceOnUse" color-interpolation-filters="sRGB">
<feFlood flood-opacity="0" result="BackgroundImageFix"/>
<feBlend mode="normal" in="SourceGraphic" in2="BackgroundImageFix" result="shape"/>
<feGaussianBlur stdDeviation="2.34675" result="effect1_foregroundBlur_473_336"/>
</filter>
<filter id="filter2_f_473_336" x="74.0292" y="0.395821" width="283.513" height="377.356" filterUnits="userSpaceOnUse" color-interpolation-filters="sRGB">
<feFlood flood-opacity="0" result="BackgroundImageFix"/>
<feBlend mode="normal" in="SourceGraphic" in2="BackgroundImageFix" result="shape"/>
<feGaussianBlur stdDeviation="2.41745" result="effect1_foregroundBlur_473_336"/>
</filter>
<filter id="filter3_f_473_336" x="78.9222" y="2.54719" width="277.602" height="372.17" filterUnits="userSpaceOnUse" color-interpolation-filters="sRGB">
<feFlood flood-opacity="0" result="BackgroundImageFix"/>
<feBlend mode="normal" in="SourceGraphic" in2="BackgroundImageFix" result="shape"/>
<feGaussianBlur stdDeviation="2.41745" result="effect1_foregroundBlur_473_336"/>
</filter>
<filter id="filter4_f_473_336" x="79.4682" y="10.6707" width="275.589" height="361.408" filterUnits="userSpaceOnUse" color-interpolation-filters="sRGB">
<feFlood flood-opacity="0" result="BackgroundImageFix"/>
<feBlend mode="normal" in="SourceGraphic" in2="BackgroundImageFix" result="shape"/>
<feGaussianBlur stdDeviation="2.41745" result="effect1_foregroundBlur_473_336"/>
</filter>
<linearGradient id="paint0_linear_473_336" x1="273.525" y1="26.8142" x2="1200.05" y2="284.49" gradientUnits="userSpaceOnUse">
<stop stop-color="white"/>
<stop offset="0.5" stop-color="#A861FA"/>
<stop offset="1" stop-color="#7F3AF5"/>
</linearGradient>
</defs>
</svg>
