<?xml version="1.0" standalone="no"?>
<!DOCTYPE svg PUBLIC "-//W3C//DTD SVG 20010904//EN"
 "http://www.w3.org/TR/2001/REC-SVG-20010904/DTD/svg10.dtd">
<svg version="1.0" xmlns="http://www.w3.org/2000/svg"
 width="2560.000000pt" height="1066.000000pt" viewBox="0 0 2560.000000 1066.000000"
 preserveAspectRatio="xMidYMid meet">

<g transform="translate(0.000000,1066.000000) scale(0.100000,-0.100000)"
fill="#000000" stroke="none">
<path d="M12950 10465 c-476 -102 -866 -184 -867 -185 -7 -1 -2 -1440 5 -1440
6 0 1684 360 1750 375 l22 5 0 715 0 715 -22 -1 c-13 0 -412 -83 -888 -184z"/>
<path d="M5750 9650 c-459 -99 -845 -182 -857 -185 l-23 -5 0 -2918 c0 -1975
3 -2945 10 -3002 68 -548 336 -994 773 -1286 188 -126 411 -217 662 -271 126
-27 139 -28 440 -28 242 0 340 4 445 18 276 37 514 98 678 172 l72 34 0 715
c0 394 -3 716 -6 716 -3 0 -49 -13 -102 -30 -200 -61 -289 -74 -502 -75 -219
0 -266 8 -400 72 -56 27 -94 55 -150 112 -82 83 -122 151 -162 281 l-23 75 -3
1368 -2 1367 675 0 675 0 0 755 0 755 -675 0 -675 0 0 770 c0 424 -3 770 -7
769 -5 0 -384 -81 -843 -179z"/>
<path d="M2115 8399 c-1078 -82 -1831 -618 -2045 -1457 -74 -292 -86 -643 -30
-910 113 -542 481 -933 1155 -1228 158 -69 281 -116 575 -224 413 -150 555
-213 697 -306 179 -119 254 -257 233 -430 -22 -177 -140 -290 -361 -344 -109
-27 -375 -37 -544 -21 -473 46 -1035 217 -1545 469 -85 42 -158 79 -162 80 -5
2 -7 -375 -6 -838 l3 -842 60 -25 c414 -172 882 -292 1364 -350 209 -25 810
-25 996 0 527 71 949 226 1276 468 174 129 367 340 473 516 168 281 256 620
256 985 -1 684 -283 1183 -863 1529 -228 136 -457 233 -967 409 -500 173 -662
250 -781 371 -72 73 -99 139 -99 244 0 180 98 290 308 347 109 29 401 36 610
14 453 -48 941 -187 1335 -379 l107 -52 0 830 0 831 -32 12 c-228 90 -583 188
-848 236 -366 66 -819 91 -1165 65z"/>
<path d="M17355 8400 c-406 -47 -779 -207 -1092 -472 -47 -38 -86 -68 -88 -67
-1 2 -22 94 -45 204 -23 110 -44 208 -46 218 -5 16 -51 17 -785 17 l-779 0 0
-4146 c0 -3313 3 -4145 13 -4142 6 3 401 87 877 188 476 100 870 187 875 192
6 6 12 361 15 1008 l5 999 125 -85 c442 -303 911 -411 1454 -338 806 110 1465
661 1808 1514 187 463 281 975 295 1595 12 573 -49 1031 -198 1494 -322 994
-1035 1671 -1905 1806 -120 19 -419 27 -529 15z m-4 -1589 c436 -112 761 -580
864 -1241 22 -145 31 -485 16 -646 -74 -781 -430 -1310 -942 -1400 -160 -28
-398 -7 -565 50 -137 46 -264 122 -366 217 l-58 54 -2 1323 -2 1322 40 41
c167 172 386 269 684 303 75 9 257 -4 331 -23z"/>
<path d="M22781 8400 c-873 -85 -1568 -549 -2014 -1346 -201 -360 -351 -834
-411 -1301 -56 -441 -43 -1004 34 -1429 120 -657 382 -1194 777 -1592 550
-552 1364 -824 2319 -773 647 34 1130 150 1607 387 l137 67 0 708 0 708 -87
-41 c-382 -176 -780 -283 -1223 -329 -164 -18 -637 -18 -755 -1 -542 77 -883
343 -1010 788 -25 89 -55 262 -48 277 2 4 784 7 1737 7 l1733 0 7 143 c10 217
8 748 -4 887 -61 726 -248 1324 -562 1795 -109 164 -190 265 -313 389 -348
348 -773 561 -1277 637 -154 23 -498 33 -647 19z m394 -1441 c274 -51 503
-236 630 -512 67 -145 115 -368 115 -534 l0 -83 -920 0 -920 0 0 28 c0 85 25
271 50 368 78 311 260 541 522 663 45 22 117 47 158 56 41 9 80 18 85 20 25 8
227 4 280 -6z"/>
<path d="M11025 8354 c-362 -55 -617 -212 -799 -492 -33 -50 -63 -89 -66 -87
-3 2 -30 119 -60 259 l-55 256 -762 0 -763 0 0 -3110 0 -3110 885 0 885 0 0
2116 0 2115 88 88 c173 174 373 274 632 316 173 27 432 14 575 -29 28 -9 51
-16 53 -16 1 0 2 367 2 815 l0 814 -53 16 c-124 36 -198 46 -362 50 -93 2
-183 1 -200 -1z"/>
<path d="M12080 5180 l0 -3110 890 0 890 0 0 3110 0 3110 -890 0 -890 0 0
-3110z"/>
</g>
</svg>
