<?xml version="1.0" standalone="no"?>
<!DOCTYPE svg PUBLIC "-//W3C//DTD SVG 20010904//EN"
 "http://www.w3.org/TR/2001/REC-SVG-20010904/DTD/svg10.dtd">
<svg version="1.0" xmlns="http://www.w3.org/2000/svg"
 width="2560.000000pt" height="768.000000pt" viewBox="0 0 2560.000000 768.000000"
 preserveAspectRatio="xMidYMid meet">

<g transform="translate(0.000000,768.000000) scale(0.100000,-0.100000)"
fill="#000000" stroke="none">
<path d="M3655 7673 c-578 -28 -1172 -196 -1665 -470 -871 -483 -1517 -1271
-1810 -2208 -235 -750 -235 -1560 0 -2310 309 -989 1014 -1813 1947 -2280
1035 -517 2266 -536 3320 -51 641 295 1197 771 1588 1360 355 535 554 1097
626 1766 18 165 15 593 -5 765 -68 579 -231 1074 -509 1545 -473 801 -1216
1400 -2102 1695 -431 143 -931 211 -1390 188z m550 -1038 c436 -58 836 -207
1194 -446 696 -463 1140 -1187 1243 -2029 16 -135 16 -505 0 -640 -91 -741
-449 -1397 -1015 -1861 -816 -669 -1941 -825 -2917 -403 -397 172 -771 455
-1055 799 -330 400 -550 923 -617 1465 -16 136 -16 505 0 640 43 341 130 634
278 936 379 771 1113 1336 1954 1504 126 25 196 35 385 54 84 9 435 -3 550
-19z"/>
<path d="M2775 5570 c-347 -55 -617 -332 -666 -685 -48 -348 166 -705 500
-834 98 -38 173 -51 288 -51 126 0 218 22 338 80 172 84 281 193 365 365 58
120 80 212 80 338 0 115 -13 190 -51 288 -90 233 -298 418 -538 480 -90 23
-232 32 -316 19z"/>
<path d="M4654 5566 c-128 -25 -221 -64 -329 -141 -331 -235 -424 -692 -214
-1042 84 -139 183 -229 334 -303 136 -66 223 -84 379 -78 101 4 136 10 208 35
258 89 450 293 520 552 27 98 30 287 6 376 -57 212 -170 372 -345 485 -162
106 -377 151 -559 116z"/>
<path d="M2724 3665 c-282 -61 -519 -289 -596 -574 -27 -98 -30 -287 -6 -376
57 -211 171 -372 345 -485 135 -89 258 -124 428 -123 137 0 232 21 336 73 200
101 339 259 412 468 39 114 49 286 22 408 -21 97 -87 239 -148 320 -106 140
-275 247 -457 289 -80 18 -252 18 -336 0z"/>
<path d="M4615 3664 c-300 -71 -530 -303 -600 -604 -17 -76 -20 -232 -4 -316
53 -288 286 -537 578 -616 109 -30 288 -30 393 0 149 42 256 103 360 205 102
101 167 214 210 365 30 105 30 284 0 393 -79 292 -328 525 -616 578 -81 15
-248 12 -321 -5z"/>
<path d="M10105 6083 c-465 -150 -949 -305 -1010 -322 -44 -12 -63 -23 -72
-41 -10 -19 -13 -114 -13 -377 l0 -353 -174 0 c-170 0 -176 -1 -203 -24 l-28
-24 -3 -484 c-2 -265 0 -498 3 -516 3 -18 15 -42 26 -53 17 -17 34 -19 199
-19 l180 0 0 -607 c0 -765 9 -900 77 -1108 53 -165 133 -294 249 -406 149
-141 313 -221 572 -276 120 -26 142 -27 402 -27 295 0 364 7 574 60 104 26
241 76 315 113 l42 22 -3 524 c-4 620 7 574 -115 532 -123 -42 -210 -59 -313
-60 -212 -1 -329 83 -359 259 -7 37 -11 240 -11 517 l0 457 384 0 c373 0 384
1 410 21 l26 20 1 422 c0 281 4 415 10 402 5 -11 228 -742 494 -1625 423
-1403 487 -1608 510 -1627 l26 -23 553 0 c545 0 554 0 580 21 14 11 26 26 26
32 0 29 465 1456 471 1445 11 -21 229 -730 339 -1103 89 -303 103 -343 130
-367 l30 -28 549 0 c632 0 586 -7 616 98 88 305 959 3179 966 3186 5 6 9 -648
9 -1616 l0 -1627 26 -20 c26 -21 34 -21 691 -21 703 0 710 0 727 45 3 9 6 789
6 1733 0 1364 -3 1722 -13 1742 l-13 25 -1331 3 c-1256 2 -1332 1 -1350 -15
-15 -14 -60 -174 -183 -648 -183 -712 -199 -765 -210 -744 -4 7 -99 318 -211
689 -151 502 -209 681 -226 698 l-22 22 -539 0 -539 0 -21 -23 c-12 -13 -22
-29 -22 -35 0 -14 -382 -1289 -400 -1337 -10 -25 -13 -27 -21 -13 -5 9 -81
316 -169 683 -88 366 -164 675 -170 685 -6 11 -19 24 -30 30 -12 7 -366 10
-1049 10 l-1031 0 0 558 0 559 -23 21 c-14 13 -35 22 -53 21 -16 -1 -146 -39
-289 -86z"/>
<path d="M16620 6163 c-8 -3 -23 -12 -32 -21 -17 -14 -18 -48 -18 -441 0 -370
2 -430 16 -449 l15 -22 713 0 713 0 21 23 c22 23 22 26 22 444 l0 421 -31 26
-31 26 -686 -1 c-378 0 -694 -3 -702 -6z"/>
<path d="M18360 6163 c-8 -3 -23 -12 -32 -21 -17 -14 -18 -137 -18 -2312 l0
-2296 20 -22 21 -22 680 0 680 0 24 25 25 24 0 2299 c0 2127 -1 2301 -17 2313
-13 12 -136 14 -692 16 -372 1 -683 -1 -691 -4z"/>
<path d="M20050 6163 c-8 -3 -23 -12 -32 -21 -17 -14 -18 -48 -18 -441 0 -370
2 -430 16 -449 l15 -22 715 0 c702 0 714 0 734 20 20 20 20 31 18 457 l-3 437
-25 13 c-19 10 -178 13 -715 12 -379 0 -697 -3 -705 -6z"/>
<path d="M23305 5075 c-768 -94 -1393 -587 -1613 -1275 -269 -842 141 -1745
971 -2140 286 -136 554 -194 892 -194 212 0 356 17 538 63 1002 254 1606 1197
1378 2152 -47 198 -131 387 -258 579 -109 165 -321 375 -493 490 -344 229
-729 342 -1160 339 -80 -1 -195 -7 -255 -14z m407 -1216 c135 -28 288 -153
356 -291 100 -205 95 -469 -14 -655 -36 -63 -124 -155 -185 -194 -210 -135
-482 -104 -663 74 -76 75 -125 156 -162 262 -24 68 -28 97 -28 195 -1 129 20
216 77 325 45 84 156 194 237 234 113 55 264 75 382 50z"/>
<path d="M20041 4984 l-21 -27 0 -1694 0 -1695 29 -29 30 -29 675 2 675 3 23
23 23 23 0 1703 c0 1662 0 1704 -19 1725 -19 21 -20 21 -707 21 l-688 0 -20
-26z"/>
</g>
</svg>
