<svg width="267" height="135" viewBox="0 0 267 135" fill="none" xmlns="http://www.w3.org/2000/svg">
<path fill-rule="evenodd" clip-rule="evenodd" d="M67.7651 0L69.9028 1.19318L100.579 18.3151L131.255 1.19318L133.392 0L135.53 1.19318L166.206 18.3151L196.882 1.19318L199.02 0L201.158 1.19318L231.833 18.3151L262.509 1.19318L266.785 8.80273L233.971 27.1178L231.833 28.311L229.696 27.1178L199.02 9.99591L168.344 27.1178L166.206 28.311L164.068 27.1178L133.392 9.99591L102.716 27.1178L100.579 28.311L98.441 27.1178L67.7651 9.9959L37.0891 27.1178L34.9514 28.311L32.8137 27.1178L0 8.80273L4.27543 1.19318L34.9514 18.3151L65.6274 1.19318L67.7651 0ZM67.7651 53.2011L69.9028 54.3942L100.579 71.5162L131.255 54.3942L133.392 53.2011L135.53 54.3942L166.206 71.5162L196.882 54.3942L199.02 53.2011L201.158 54.3942L231.833 71.5162L262.509 54.3942L266.785 62.0038L233.971 80.3189L231.833 81.5121L229.696 80.3189L199.02 63.197L168.344 80.3189L166.206 81.5121L164.068 80.3189L133.392 63.197L102.716 80.3189L100.579 81.5121L98.441 80.3189L67.7651 63.197L37.0891 80.3189L34.9514 81.5121L32.8137 80.3189L0 62.0038L4.27543 54.3942L34.9514 71.5162L65.6274 54.3942L67.7651 53.2011ZM69.9028 107.595L67.7651 106.402L65.6274 107.595L34.9514 124.717L4.27543 107.595L0 115.205L32.8137 133.52L34.9514 134.713L37.0891 133.52L67.7651 116.398L98.441 133.52L100.579 134.713L102.716 133.52L133.392 116.398L164.068 133.52L166.206 134.713L168.344 133.52L199.02 116.398L229.696 133.52L231.833 134.713L233.971 133.52L266.785 115.205L262.509 107.595L231.833 124.717L201.158 107.595L199.02 106.402L196.882 107.595L166.206 124.717L135.53 107.595L133.392 106.402L131.255 107.595L100.579 124.717L69.9028 107.595Z" fill="white" fill-opacity="0.8"/>
</svg>
