<?xml version="1.0" standalone="no"?>
<!DOCTYPE svg PUBLIC "-//W3C//DTD SVG 20010904//EN"
 "http://www.w3.org/TR/2001/REC-SVG-20010904/DTD/svg10.dtd">
<svg version="1.0" xmlns="http://www.w3.org/2000/svg"
 width="1200.000000pt" height="550.000000pt" viewBox="0 0 1200.000000 550.000000"
 preserveAspectRatio="xMidYMid meet">

<g transform="translate(0.000000,550.000000) scale(0.100000,-0.100000)"
fill="#000000" stroke="none">
<path d="M7228 5483 l-28 -4 0 -222 0 -222 -159 159 -159 159 -88 -87 -87 -88
156 -156 c87 -87 157 -161 157 -165 0 -4 -98 -7 -219 -7 -218 0 -219 0 -225
-22 -8 -30 -8 -182 0 -202 5 -14 35 -16 225 -16 120 0 219 -3 219 -7 0 -4 -71
-79 -157 -165 l-157 -157 88 -87 88 -87 159 159 159 159 0 -221 0 -221 31 -7
c40 -8 167 -8 197 0 22 6 22 7 22 225 0 121 3 219 7 219 4 0 78 -70 164 -156
l156 -156 82 80 c44 44 81 86 81 94 0 7 -67 81 -150 163 -82 82 -150 153 -150
157 0 5 98 8 219 8 l218 0 7 38 c3 20 6 57 6 82 0 25 -3 62 -6 83 l-7 37 -218
0 c-121 0 -219 3 -219 8 0 4 68 75 150 157 83 82 150 155 150 162 0 17 -145
163 -162 163 -7 0 -81 -67 -163 -150 -82 -82 -153 -150 -157 -150 -5 0 -8 98
-8 219 l0 219 -31 6 c-33 6 -145 6 -191 -1z m227 -577 c36 -10 41 -16 52 -56
6 -25 11 -79 11 -120 0 -41 -5 -95 -11 -120 -11 -40 -16 -46 -52 -56 -52 -16
-211 -16 -255 0 -46 17 -62 63 -62 176 0 47 6 103 13 125 12 33 20 41 54 51
51 16 198 16 250 0z"/>
<path d="M2863 3510 c-118 -12 -306 -46 -397 -71 l-79 -22 6 -81 c6 -80 45
-226 69 -258 12 -16 19 -15 105 7 180 47 268 59 458 59 195 0 259 -10 357 -60
141 -71 207 -211 208 -438 l0 -78 -26 6 c-58 15 -391 25 -503 15 -307 -26
-561 -140 -707 -317 -113 -138 -158 -272 -157 -477 2 -224 57 -370 190 -502
161 -160 408 -233 789 -233 234 0 417 21 728 86 65 13 120 24 122 24 9 0 3
1514 -6 1611 -38 403 -233 627 -615 709 -114 24 -401 35 -542 20z m532 -1270
c61 -5 129 -12 153 -15 l42 -6 0 -378 0 -378 -57 -12 c-163 -31 -435 -41 -563
-20 -100 16 -172 53 -234 120 -81 87 -111 211 -86 348 49 268 296 381 745 341z"/>
<path d="M5527 3510 c-228 -41 -421 -162 -535 -333 -14 -21 -28 -34 -32 -30
-4 4 -14 73 -24 152 -10 79 -20 149 -22 156 -3 7 -26 15 -51 19 -59 8 -227 8
-287 0 l-46 -7 0 -1722 0 -1722 61 -7 c79 -8 249 -8 328 0 l61 7 0 541 0 542
88 -19 c113 -24 384 -34 518 -18 292 34 520 137 700 316 170 169 275 386 326
675 17 99 17 478 0 585 -46 280 -140 485 -292 635 -109 108 -215 166 -388 211
-87 23 -323 34 -405 19z m218 -400 c167 -43 267 -137 338 -319 88 -225 101
-578 31 -819 -79 -273 -244 -446 -491 -514 -66 -18 -105 -22 -253 -22 -171 0
-230 7 -342 41 l-49 14 3 562 c4 623 3 607 73 752 124 255 403 378 690 305z"/>
<path d="M9073 3509 c-370 -48 -672 -278 -813 -620 -70 -169 -100 -328 -107
-564 -13 -437 93 -748 330 -971 166 -157 382 -252 647 -284 124 -15 402 -12
534 5 140 18 222 37 342 76 l90 30 -8 77 c-9 84 -40 207 -63 253 -9 16 -17 29
-18 29 -1 0 -24 -9 -52 -19 -167 -63 -393 -96 -613 -88 -181 6 -248 20 -372
79 -207 99 -318 293 -344 601 l-5 67 803 0 803 0 7 53 c11 93 6 330 -9 427
-21 141 -50 232 -110 355 -133 272 -361 440 -667 490 -98 16 -271 18 -375 4z
m322 -364 c185 -49 320 -196 375 -409 10 -42 22 -110 26 -151 l7 -75 -588 0
-587 0 7 57 c4 32 18 96 32 143 70 242 204 386 408 436 72 18 249 17 320 -1z"/>
<path d="M10783 3473 l-33 -4 0 -1179 0 -1179 58 -7 c72 -10 282 -10 345 0
l47 7 0 632 c0 778 6 837 92 1017 31 63 58 102 107 151 113 113 248 159 465
159 l114 0 9 78 c9 89 9 233 -1 285 -6 34 -10 36 -53 43 -63 9 -225 -2 -298
-21 -110 -28 -198 -79 -294 -170 -48 -47 -104 -107 -122 -135 -19 -27 -37 -50
-40 -50 -3 0 -9 46 -13 103 -8 117 -29 253 -40 264 -8 9 -291 14 -343 6z"/>
<path d="M146 3439 c-8 -41 -8 -257 0 -298 l6 -31 545 0 c460 0 544 -2 540
-14 -3 -7 -281 -442 -617 -965 -578 -899 -612 -954 -606 -986 l7 -35 918 0
919 0 6 23 c8 29 8 266 0 306 l-7 31 -583 0 c-321 0 -584 2 -584 4 0 2 281
439 625 971 l625 967 -15 29 -16 29 -878 0 -878 0 -7 -31z"/>
<path d="M6904 3458 c-11 -18 -17 -207 -9 -282 l7 -66 149 0 149 0 0 -999 0
-1000 58 -7 c72 -10 272 -10 335 0 l47 7 0 1180 0 1179 -364 0 c-270 0 -367
-3 -372 -12z"/>
</g>
</svg>
